G75*
%MOIN*%
%OFA0B0*%
%FSLAX25Y25*%
%IPPOS*%
%LPD*%
%AMOC8*
5,1,8,0,0,1.08239X$1,22.5*
%
%ADD10C,0.00500*%
%ADD11C,0.00200*%
%ADD12C,0.00400*%
%ADD13R,0.10000X0.25000*%
%ADD14C,0.00600*%
%ADD15C,0.01000*%
D10*
X0001300Y0007700D02*
X0101300Y0007700D01*
X0101300Y0132700D01*
X0101297Y0132942D01*
X0101288Y0133183D01*
X0101274Y0133424D01*
X0101253Y0133665D01*
X0101227Y0133905D01*
X0101195Y0134145D01*
X0101157Y0134384D01*
X0101114Y0134621D01*
X0101064Y0134858D01*
X0101009Y0135093D01*
X0100949Y0135327D01*
X0100882Y0135559D01*
X0100811Y0135790D01*
X0100733Y0136019D01*
X0100650Y0136246D01*
X0100562Y0136471D01*
X0100468Y0136694D01*
X0100369Y0136914D01*
X0100264Y0137132D01*
X0100155Y0137347D01*
X0100040Y0137560D01*
X0099920Y0137770D01*
X0099795Y0137976D01*
X0099665Y0138180D01*
X0099530Y0138381D01*
X0099390Y0138578D01*
X0099246Y0138772D01*
X0099097Y0138962D01*
X0098943Y0139148D01*
X0098785Y0139331D01*
X0098623Y0139510D01*
X0098456Y0139685D01*
X0098285Y0139856D01*
X0098110Y0140023D01*
X0097931Y0140185D01*
X0097748Y0140343D01*
X0097562Y0140497D01*
X0097372Y0140646D01*
X0097178Y0140790D01*
X0096981Y0140930D01*
X0096780Y0141065D01*
X0096576Y0141195D01*
X0096370Y0141320D01*
X0096160Y0141440D01*
X0095947Y0141555D01*
X0095732Y0141664D01*
X0095514Y0141769D01*
X0095294Y0141868D01*
X0095071Y0141962D01*
X0094846Y0142050D01*
X0094619Y0142133D01*
X0094390Y0142211D01*
X0094159Y0142282D01*
X0093927Y0142349D01*
X0093693Y0142409D01*
X0093458Y0142464D01*
X0093221Y0142514D01*
X0092984Y0142557D01*
X0092745Y0142595D01*
X0092505Y0142627D01*
X0092265Y0142653D01*
X0092024Y0142674D01*
X0091783Y0142688D01*
X0091542Y0142697D01*
X0091300Y0142700D01*
X0011300Y0142700D01*
X0019410Y0142606D02*
X0082402Y0142606D01*
X0082402Y0119771D01*
X0019410Y0119771D01*
X0019410Y0142606D01*
X0011300Y0142700D02*
X0011058Y0142697D01*
X0010817Y0142688D01*
X0010576Y0142674D01*
X0010335Y0142653D01*
X0010095Y0142627D01*
X0009855Y0142595D01*
X0009616Y0142557D01*
X0009379Y0142514D01*
X0009142Y0142464D01*
X0008907Y0142409D01*
X0008673Y0142349D01*
X0008441Y0142282D01*
X0008210Y0142211D01*
X0007981Y0142133D01*
X0007754Y0142050D01*
X0007529Y0141962D01*
X0007306Y0141868D01*
X0007086Y0141769D01*
X0006868Y0141664D01*
X0006653Y0141555D01*
X0006440Y0141440D01*
X0006230Y0141320D01*
X0006024Y0141195D01*
X0005820Y0141065D01*
X0005619Y0140930D01*
X0005422Y0140790D01*
X0005228Y0140646D01*
X0005038Y0140497D01*
X0004852Y0140343D01*
X0004669Y0140185D01*
X0004490Y0140023D01*
X0004315Y0139856D01*
X0004144Y0139685D01*
X0003977Y0139510D01*
X0003815Y0139331D01*
X0003657Y0139148D01*
X0003503Y0138962D01*
X0003354Y0138772D01*
X0003210Y0138578D01*
X0003070Y0138381D01*
X0002935Y0138180D01*
X0002805Y0137976D01*
X0002680Y0137770D01*
X0002560Y0137560D01*
X0002445Y0137347D01*
X0002336Y0137132D01*
X0002231Y0136914D01*
X0002132Y0136694D01*
X0002038Y0136471D01*
X0001950Y0136246D01*
X0001867Y0136019D01*
X0001789Y0135790D01*
X0001718Y0135559D01*
X0001651Y0135327D01*
X0001591Y0135093D01*
X0001536Y0134858D01*
X0001486Y0134621D01*
X0001443Y0134384D01*
X0001405Y0134145D01*
X0001373Y0133905D01*
X0001347Y0133665D01*
X0001326Y0133424D01*
X0001312Y0133183D01*
X0001303Y0132942D01*
X0001300Y0132700D01*
X0001300Y0007700D01*
X0019400Y0047700D02*
X0082300Y0047700D01*
X0082400Y0047700D02*
X0082400Y0119800D01*
X0082300Y0119800D01*
X0019400Y0119800D02*
X0019400Y0047700D01*
X0046800Y0007950D02*
X0046800Y0003450D01*
X0045550Y0003450D02*
X0048050Y0003450D01*
X0045550Y0006950D02*
X0046800Y0007950D01*
X0043200Y0005325D02*
X0041825Y0006075D01*
X0042325Y0007950D02*
X0042405Y0007948D01*
X0042486Y0007943D01*
X0042566Y0007934D01*
X0042645Y0007922D01*
X0042724Y0007907D01*
X0042802Y0007888D01*
X0042880Y0007866D01*
X0042956Y0007841D01*
X0043031Y0007812D01*
X0043105Y0007780D01*
X0043177Y0007745D01*
X0043248Y0007707D01*
X0043317Y0007666D01*
X0043385Y0007622D01*
X0043450Y0007575D01*
X0041825Y0006075D02*
X0041773Y0006108D01*
X0041722Y0006144D01*
X0041674Y0006183D01*
X0041629Y0006225D01*
X0041586Y0006270D01*
X0041546Y0006318D01*
X0041509Y0006367D01*
X0041475Y0006419D01*
X0041444Y0006473D01*
X0041416Y0006529D01*
X0041392Y0006586D01*
X0041372Y0006645D01*
X0041355Y0006704D01*
X0041342Y0006765D01*
X0041333Y0006826D01*
X0041327Y0006888D01*
X0041325Y0006950D01*
X0041327Y0007010D01*
X0041332Y0007071D01*
X0041341Y0007130D01*
X0041354Y0007189D01*
X0041370Y0007248D01*
X0041390Y0007305D01*
X0041413Y0007360D01*
X0041440Y0007415D01*
X0041469Y0007467D01*
X0041502Y0007518D01*
X0041538Y0007567D01*
X0041576Y0007613D01*
X0041618Y0007657D01*
X0041662Y0007699D01*
X0041708Y0007737D01*
X0041757Y0007773D01*
X0041808Y0007806D01*
X0041860Y0007835D01*
X0041915Y0007862D01*
X0041970Y0007885D01*
X0042027Y0007905D01*
X0042086Y0007921D01*
X0042145Y0007934D01*
X0042204Y0007943D01*
X0042265Y0007948D01*
X0042325Y0007950D01*
X0041200Y0004074D02*
X0041263Y0004013D01*
X0041328Y0003955D01*
X0041396Y0003899D01*
X0041467Y0003846D01*
X0041539Y0003797D01*
X0041613Y0003750D01*
X0041689Y0003706D01*
X0041767Y0003666D01*
X0041847Y0003629D01*
X0041928Y0003595D01*
X0042010Y0003565D01*
X0042094Y0003538D01*
X0042179Y0003514D01*
X0042264Y0003494D01*
X0042350Y0003478D01*
X0042437Y0003465D01*
X0042525Y0003456D01*
X0042612Y0003451D01*
X0042700Y0003449D01*
X0042700Y0003450D02*
X0042760Y0003452D01*
X0042821Y0003457D01*
X0042880Y0003466D01*
X0042939Y0003479D01*
X0042998Y0003495D01*
X0043055Y0003515D01*
X0043110Y0003538D01*
X0043165Y0003565D01*
X0043217Y0003594D01*
X0043268Y0003627D01*
X0043317Y0003663D01*
X0043363Y0003701D01*
X0043407Y0003743D01*
X0043449Y0003787D01*
X0043487Y0003833D01*
X0043523Y0003882D01*
X0043556Y0003933D01*
X0043585Y0003985D01*
X0043612Y0004040D01*
X0043635Y0004095D01*
X0043655Y0004152D01*
X0043671Y0004211D01*
X0043684Y0004270D01*
X0043693Y0004329D01*
X0043698Y0004390D01*
X0043700Y0004450D01*
X0043698Y0004512D01*
X0043692Y0004574D01*
X0043683Y0004635D01*
X0043670Y0004696D01*
X0043653Y0004755D01*
X0043633Y0004814D01*
X0043609Y0004871D01*
X0043581Y0004927D01*
X0043550Y0004981D01*
X0043516Y0005033D01*
X0043479Y0005082D01*
X0043439Y0005130D01*
X0043396Y0005175D01*
X0043351Y0005217D01*
X0043303Y0005256D01*
X0043252Y0005292D01*
X0043200Y0005325D01*
X0081825Y0006075D02*
X0083200Y0005325D01*
X0082700Y0003449D02*
X0082612Y0003451D01*
X0082525Y0003456D01*
X0082437Y0003465D01*
X0082350Y0003478D01*
X0082264Y0003494D01*
X0082179Y0003514D01*
X0082094Y0003538D01*
X0082010Y0003565D01*
X0081928Y0003595D01*
X0081847Y0003629D01*
X0081767Y0003666D01*
X0081689Y0003706D01*
X0081613Y0003750D01*
X0081539Y0003797D01*
X0081467Y0003846D01*
X0081396Y0003899D01*
X0081328Y0003955D01*
X0081263Y0004013D01*
X0081200Y0004074D01*
X0083200Y0005325D02*
X0083252Y0005292D01*
X0083303Y0005256D01*
X0083351Y0005217D01*
X0083396Y0005175D01*
X0083439Y0005130D01*
X0083479Y0005082D01*
X0083516Y0005033D01*
X0083550Y0004981D01*
X0083581Y0004927D01*
X0083609Y0004871D01*
X0083633Y0004814D01*
X0083653Y0004755D01*
X0083670Y0004696D01*
X0083683Y0004635D01*
X0083692Y0004574D01*
X0083698Y0004512D01*
X0083700Y0004450D01*
X0083698Y0004390D01*
X0083693Y0004329D01*
X0083684Y0004270D01*
X0083671Y0004211D01*
X0083655Y0004152D01*
X0083635Y0004095D01*
X0083612Y0004040D01*
X0083585Y0003985D01*
X0083556Y0003933D01*
X0083523Y0003882D01*
X0083487Y0003833D01*
X0083449Y0003787D01*
X0083407Y0003743D01*
X0083363Y0003701D01*
X0083317Y0003663D01*
X0083268Y0003627D01*
X0083217Y0003594D01*
X0083165Y0003565D01*
X0083110Y0003538D01*
X0083055Y0003515D01*
X0082998Y0003495D01*
X0082939Y0003479D01*
X0082880Y0003466D01*
X0082821Y0003457D01*
X0082760Y0003452D01*
X0082700Y0003450D01*
X0083450Y0007575D02*
X0083385Y0007622D01*
X0083317Y0007666D01*
X0083248Y0007707D01*
X0083177Y0007745D01*
X0083105Y0007780D01*
X0083031Y0007812D01*
X0082956Y0007841D01*
X0082880Y0007866D01*
X0082802Y0007888D01*
X0082724Y0007907D01*
X0082645Y0007922D01*
X0082566Y0007934D01*
X0082486Y0007943D01*
X0082405Y0007948D01*
X0082325Y0007950D01*
X0082265Y0007948D01*
X0082204Y0007943D01*
X0082145Y0007934D01*
X0082086Y0007921D01*
X0082027Y0007905D01*
X0081970Y0007885D01*
X0081915Y0007862D01*
X0081860Y0007835D01*
X0081808Y0007806D01*
X0081757Y0007773D01*
X0081708Y0007737D01*
X0081662Y0007699D01*
X0081618Y0007657D01*
X0081576Y0007613D01*
X0081538Y0007567D01*
X0081502Y0007518D01*
X0081469Y0007467D01*
X0081440Y0007415D01*
X0081413Y0007360D01*
X0081390Y0007305D01*
X0081370Y0007248D01*
X0081354Y0007189D01*
X0081341Y0007130D01*
X0081332Y0007071D01*
X0081327Y0007010D01*
X0081325Y0006950D01*
X0081327Y0006888D01*
X0081333Y0006826D01*
X0081342Y0006765D01*
X0081355Y0006704D01*
X0081372Y0006645D01*
X0081392Y0006586D01*
X0081416Y0006529D01*
X0081444Y0006473D01*
X0081475Y0006419D01*
X0081509Y0006367D01*
X0081546Y0006318D01*
X0081586Y0006270D01*
X0081629Y0006225D01*
X0081674Y0006183D01*
X0081722Y0006144D01*
X0081773Y0006108D01*
X0081825Y0006075D01*
X0085550Y0003450D02*
X0088050Y0003450D01*
X0085550Y0003450D02*
X0087675Y0005950D01*
X0086925Y0007950D02*
X0086852Y0007948D01*
X0086780Y0007943D01*
X0086708Y0007934D01*
X0086636Y0007921D01*
X0086565Y0007905D01*
X0086495Y0007885D01*
X0086427Y0007861D01*
X0086359Y0007835D01*
X0086293Y0007804D01*
X0086228Y0007771D01*
X0086166Y0007734D01*
X0086105Y0007695D01*
X0086046Y0007652D01*
X0085989Y0007606D01*
X0085935Y0007558D01*
X0085884Y0007507D01*
X0085834Y0007453D01*
X0085788Y0007397D01*
X0085745Y0007339D01*
X0085704Y0007278D01*
X0085667Y0007216D01*
X0085633Y0007152D01*
X0085602Y0007086D01*
X0085574Y0007019D01*
X0085550Y0006950D01*
X0087675Y0005950D02*
X0087721Y0005996D01*
X0087765Y0006045D01*
X0087805Y0006096D01*
X0087843Y0006149D01*
X0087878Y0006204D01*
X0087910Y0006261D01*
X0087939Y0006319D01*
X0087965Y0006379D01*
X0087987Y0006441D01*
X0088006Y0006503D01*
X0088022Y0006566D01*
X0088034Y0006630D01*
X0088043Y0006695D01*
X0088048Y0006760D01*
X0088050Y0006825D01*
X0088048Y0006890D01*
X0088042Y0006956D01*
X0088033Y0007020D01*
X0088020Y0007084D01*
X0088003Y0007148D01*
X0087982Y0007210D01*
X0087958Y0007271D01*
X0087930Y0007330D01*
X0087899Y0007388D01*
X0087865Y0007443D01*
X0087827Y0007497D01*
X0087787Y0007548D01*
X0087743Y0007597D01*
X0087697Y0007643D01*
X0087648Y0007687D01*
X0087597Y0007727D01*
X0087543Y0007765D01*
X0087488Y0007799D01*
X0087430Y0007830D01*
X0087371Y0007858D01*
X0087310Y0007882D01*
X0087248Y0007903D01*
X0087184Y0007920D01*
X0087120Y0007933D01*
X0087056Y0007942D01*
X0086990Y0007948D01*
X0086925Y0007950D01*
D11*
X0081300Y0010700D02*
X0081300Y0011700D01*
X0071300Y0011700D01*
X0071300Y0010700D01*
X0071800Y0033700D02*
X0071800Y0034700D01*
X0071800Y0033700D02*
X0081300Y0033700D01*
X0081300Y0034700D01*
X0086789Y0041300D02*
X0087722Y0041300D01*
X0087771Y0041302D01*
X0087819Y0041308D01*
X0087867Y0041317D01*
X0087914Y0041330D01*
X0087960Y0041347D01*
X0088004Y0041368D01*
X0088047Y0041392D01*
X0088088Y0041419D01*
X0088126Y0041449D01*
X0088162Y0041482D01*
X0088195Y0041518D01*
X0088225Y0041556D01*
X0088252Y0041597D01*
X0088276Y0041640D01*
X0088297Y0041684D01*
X0088314Y0041730D01*
X0088327Y0041777D01*
X0088336Y0041825D01*
X0088342Y0041873D01*
X0088344Y0041922D01*
X0088344Y0042233D01*
X0088342Y0042282D01*
X0088336Y0042330D01*
X0088327Y0042378D01*
X0088314Y0042425D01*
X0088297Y0042471D01*
X0088276Y0042515D01*
X0088252Y0042558D01*
X0088225Y0042599D01*
X0088195Y0042637D01*
X0088162Y0042673D01*
X0088126Y0042706D01*
X0088088Y0042736D01*
X0088047Y0042763D01*
X0088004Y0042787D01*
X0087960Y0042808D01*
X0087914Y0042825D01*
X0087867Y0042838D01*
X0087819Y0042847D01*
X0087771Y0042853D01*
X0087722Y0042855D01*
X0087722Y0042856D02*
X0086789Y0042856D01*
X0086789Y0044100D01*
X0088344Y0044100D01*
X0089333Y0044100D02*
X0090267Y0041300D01*
X0091200Y0044100D01*
X0090422Y0051300D02*
X0089644Y0051300D01*
X0089644Y0054100D01*
X0090422Y0054100D01*
X0090478Y0054098D01*
X0090533Y0054092D01*
X0090587Y0054082D01*
X0090641Y0054068D01*
X0090694Y0054051D01*
X0090745Y0054030D01*
X0090795Y0054005D01*
X0090843Y0053976D01*
X0090888Y0053945D01*
X0090931Y0053910D01*
X0090972Y0053872D01*
X0091010Y0053831D01*
X0091045Y0053788D01*
X0091076Y0053743D01*
X0091105Y0053695D01*
X0091130Y0053645D01*
X0091151Y0053594D01*
X0091168Y0053541D01*
X0091182Y0053487D01*
X0091192Y0053433D01*
X0091198Y0053378D01*
X0091200Y0053322D01*
X0091200Y0052078D01*
X0091198Y0052025D01*
X0091193Y0051972D01*
X0091184Y0051920D01*
X0091171Y0051868D01*
X0091155Y0051817D01*
X0091136Y0051768D01*
X0091113Y0051720D01*
X0091087Y0051674D01*
X0091058Y0051629D01*
X0091026Y0051587D01*
X0090991Y0051547D01*
X0090953Y0051509D01*
X0090913Y0051474D01*
X0090871Y0051442D01*
X0090826Y0051413D01*
X0090780Y0051387D01*
X0090732Y0051364D01*
X0090683Y0051345D01*
X0090632Y0051329D01*
X0090580Y0051316D01*
X0090528Y0051307D01*
X0090475Y0051302D01*
X0090422Y0051300D01*
X0088320Y0051300D02*
X0088320Y0054100D01*
X0086764Y0054100D02*
X0086764Y0051300D01*
X0085440Y0051300D02*
X0085440Y0052856D01*
X0084973Y0052856D01*
X0083885Y0053478D02*
X0083887Y0053527D01*
X0083893Y0053575D01*
X0083902Y0053623D01*
X0083915Y0053670D01*
X0083932Y0053716D01*
X0083953Y0053760D01*
X0083977Y0053803D01*
X0084004Y0053844D01*
X0084034Y0053882D01*
X0084067Y0053918D01*
X0084103Y0053951D01*
X0084141Y0053981D01*
X0084182Y0054008D01*
X0084225Y0054032D01*
X0084269Y0054053D01*
X0084315Y0054070D01*
X0084362Y0054083D01*
X0084410Y0054092D01*
X0084458Y0054098D01*
X0084507Y0054100D01*
X0085440Y0054100D01*
X0086764Y0054100D02*
X0088320Y0051300D01*
X0085440Y0051300D02*
X0084507Y0051300D01*
X0084458Y0051302D01*
X0084410Y0051308D01*
X0084362Y0051317D01*
X0084315Y0051330D01*
X0084269Y0051347D01*
X0084225Y0051368D01*
X0084182Y0051392D01*
X0084141Y0051419D01*
X0084103Y0051449D01*
X0084067Y0051482D01*
X0084034Y0051518D01*
X0084004Y0051556D01*
X0083977Y0051597D01*
X0083953Y0051640D01*
X0083932Y0051684D01*
X0083915Y0051730D01*
X0083902Y0051777D01*
X0083893Y0051825D01*
X0083887Y0051873D01*
X0083885Y0051922D01*
X0083884Y0051922D02*
X0083884Y0053478D01*
X0080589Y0056400D02*
X0079978Y0056400D01*
X0080589Y0056400D02*
X0080637Y0056402D01*
X0080685Y0056408D01*
X0080732Y0056417D01*
X0080778Y0056430D01*
X0080823Y0056447D01*
X0080866Y0056467D01*
X0080908Y0056490D01*
X0080948Y0056517D01*
X0080986Y0056546D01*
X0081021Y0056579D01*
X0081054Y0056614D01*
X0081083Y0056652D01*
X0081110Y0056692D01*
X0081133Y0056734D01*
X0081153Y0056777D01*
X0081170Y0056822D01*
X0081183Y0056868D01*
X0081192Y0056915D01*
X0081198Y0056963D01*
X0081200Y0057011D01*
X0081198Y0057059D01*
X0081192Y0057107D01*
X0081183Y0057154D01*
X0081170Y0057200D01*
X0081153Y0057245D01*
X0081133Y0057288D01*
X0081110Y0057330D01*
X0081083Y0057370D01*
X0081054Y0057408D01*
X0081021Y0057443D01*
X0080986Y0057476D01*
X0080948Y0057505D01*
X0080908Y0057532D01*
X0080866Y0057555D01*
X0080823Y0057575D01*
X0080778Y0057592D01*
X0080732Y0057605D01*
X0080685Y0057614D01*
X0080637Y0057620D01*
X0080589Y0057622D01*
X0080711Y0057622D02*
X0080222Y0057622D01*
X0080711Y0057622D02*
X0080754Y0057624D01*
X0080796Y0057629D01*
X0080838Y0057639D01*
X0080878Y0057651D01*
X0080918Y0057668D01*
X0080956Y0057688D01*
X0080991Y0057710D01*
X0081025Y0057736D01*
X0081057Y0057765D01*
X0081086Y0057797D01*
X0081112Y0057831D01*
X0081134Y0057867D01*
X0081154Y0057904D01*
X0081171Y0057944D01*
X0081183Y0057984D01*
X0081193Y0058026D01*
X0081198Y0058068D01*
X0081200Y0058111D01*
X0081198Y0058154D01*
X0081193Y0058196D01*
X0081183Y0058238D01*
X0081171Y0058278D01*
X0081154Y0058318D01*
X0081134Y0058356D01*
X0081112Y0058391D01*
X0081086Y0058425D01*
X0081057Y0058457D01*
X0081025Y0058486D01*
X0080991Y0058512D01*
X0080956Y0058534D01*
X0080918Y0058554D01*
X0080878Y0058571D01*
X0080838Y0058583D01*
X0080796Y0058593D01*
X0080754Y0058598D01*
X0080711Y0058600D01*
X0079978Y0058600D01*
X0078968Y0057989D02*
X0078968Y0057011D01*
X0078966Y0056963D01*
X0078960Y0056915D01*
X0078951Y0056868D01*
X0078938Y0056822D01*
X0078921Y0056777D01*
X0078901Y0056734D01*
X0078878Y0056692D01*
X0078851Y0056652D01*
X0078822Y0056614D01*
X0078789Y0056579D01*
X0078754Y0056546D01*
X0078716Y0056517D01*
X0078676Y0056490D01*
X0078634Y0056467D01*
X0078591Y0056447D01*
X0078546Y0056430D01*
X0078500Y0056417D01*
X0078453Y0056408D01*
X0078405Y0056402D01*
X0078357Y0056400D01*
X0077746Y0056400D01*
X0077746Y0058600D01*
X0078357Y0058600D01*
X0078405Y0058598D01*
X0078453Y0058592D01*
X0078500Y0058583D01*
X0078546Y0058570D01*
X0078591Y0058553D01*
X0078634Y0058533D01*
X0078676Y0058510D01*
X0078716Y0058483D01*
X0078754Y0058454D01*
X0078789Y0058421D01*
X0078822Y0058386D01*
X0078851Y0058348D01*
X0078878Y0058308D01*
X0078901Y0058266D01*
X0078921Y0058223D01*
X0078938Y0058178D01*
X0078951Y0058132D01*
X0078960Y0058085D01*
X0078966Y0058037D01*
X0078968Y0057989D01*
X0076856Y0058600D02*
X0075878Y0058600D01*
X0075878Y0056400D01*
X0076856Y0056400D01*
X0076612Y0057622D02*
X0075878Y0057622D01*
X0074984Y0056400D02*
X0074006Y0056400D01*
X0074006Y0058600D01*
X0074356Y0048600D02*
X0073378Y0048600D01*
X0073378Y0046400D01*
X0074356Y0046400D01*
X0075246Y0046400D02*
X0075246Y0048600D01*
X0075857Y0048600D01*
X0075905Y0048598D01*
X0075953Y0048592D01*
X0076000Y0048583D01*
X0076046Y0048570D01*
X0076091Y0048553D01*
X0076134Y0048533D01*
X0076176Y0048510D01*
X0076216Y0048483D01*
X0076254Y0048454D01*
X0076289Y0048421D01*
X0076322Y0048386D01*
X0076351Y0048348D01*
X0076378Y0048308D01*
X0076401Y0048266D01*
X0076421Y0048223D01*
X0076438Y0048178D01*
X0076451Y0048132D01*
X0076460Y0048085D01*
X0076466Y0048037D01*
X0076468Y0047989D01*
X0076468Y0047011D01*
X0076466Y0046963D01*
X0076460Y0046915D01*
X0076451Y0046868D01*
X0076438Y0046822D01*
X0076421Y0046777D01*
X0076401Y0046734D01*
X0076378Y0046692D01*
X0076351Y0046652D01*
X0076322Y0046614D01*
X0076289Y0046579D01*
X0076254Y0046546D01*
X0076216Y0046517D01*
X0076176Y0046490D01*
X0076134Y0046467D01*
X0076091Y0046447D01*
X0076046Y0046430D01*
X0076000Y0046417D01*
X0075953Y0046408D01*
X0075905Y0046402D01*
X0075857Y0046400D01*
X0075246Y0046400D01*
X0074112Y0047622D02*
X0073378Y0047622D01*
X0072484Y0046400D02*
X0071506Y0046400D01*
X0071506Y0048600D01*
X0078517Y0046706D02*
X0078551Y0046780D01*
X0078582Y0046856D01*
X0078609Y0046934D01*
X0078633Y0047013D01*
X0078654Y0047092D01*
X0078670Y0047173D01*
X0078683Y0047254D01*
X0078693Y0047336D01*
X0078698Y0047418D01*
X0078700Y0047500D01*
X0077478Y0047500D02*
X0077480Y0047582D01*
X0077485Y0047664D01*
X0077495Y0047746D01*
X0077508Y0047827D01*
X0077524Y0047908D01*
X0077545Y0047987D01*
X0077569Y0048066D01*
X0077596Y0048144D01*
X0077627Y0048220D01*
X0077661Y0048294D01*
X0078089Y0048600D02*
X0078129Y0048598D01*
X0078169Y0048593D01*
X0078208Y0048584D01*
X0078246Y0048572D01*
X0078283Y0048556D01*
X0078318Y0048538D01*
X0078352Y0048516D01*
X0078383Y0048491D01*
X0078412Y0048464D01*
X0078439Y0048434D01*
X0078463Y0048402D01*
X0078484Y0048368D01*
X0078502Y0048332D01*
X0078517Y0048295D01*
X0078578Y0048111D02*
X0077600Y0046889D01*
X0078089Y0046400D02*
X0078129Y0046402D01*
X0078169Y0046407D01*
X0078208Y0046416D01*
X0078246Y0046428D01*
X0078283Y0046444D01*
X0078318Y0046462D01*
X0078352Y0046484D01*
X0078383Y0046509D01*
X0078412Y0046536D01*
X0078439Y0046566D01*
X0078463Y0046598D01*
X0078484Y0046632D01*
X0078502Y0046668D01*
X0078517Y0046705D01*
X0078089Y0046400D02*
X0078049Y0046402D01*
X0078009Y0046407D01*
X0077970Y0046416D01*
X0077932Y0046428D01*
X0077895Y0046444D01*
X0077860Y0046462D01*
X0077826Y0046484D01*
X0077795Y0046509D01*
X0077766Y0046536D01*
X0077739Y0046566D01*
X0077715Y0046598D01*
X0077694Y0046632D01*
X0077676Y0046668D01*
X0077661Y0046705D01*
X0078700Y0047500D02*
X0078698Y0047582D01*
X0078693Y0047664D01*
X0078683Y0047746D01*
X0078670Y0047827D01*
X0078654Y0047908D01*
X0078633Y0047987D01*
X0078609Y0048066D01*
X0078582Y0048144D01*
X0078551Y0048220D01*
X0078517Y0048294D01*
X0078089Y0048600D02*
X0078049Y0048598D01*
X0078009Y0048593D01*
X0077970Y0048584D01*
X0077932Y0048572D01*
X0077895Y0048556D01*
X0077860Y0048538D01*
X0077826Y0048516D01*
X0077795Y0048491D01*
X0077766Y0048464D01*
X0077739Y0048434D01*
X0077715Y0048402D01*
X0077694Y0048368D01*
X0077676Y0048332D01*
X0077661Y0048295D01*
X0077478Y0047500D02*
X0077480Y0047418D01*
X0077485Y0047336D01*
X0077495Y0047254D01*
X0077508Y0047173D01*
X0077524Y0047092D01*
X0077545Y0047013D01*
X0077569Y0046934D01*
X0077596Y0046856D01*
X0077627Y0046780D01*
X0077661Y0046706D01*
X0086854Y0061300D02*
X0087632Y0061300D01*
X0086854Y0061300D02*
X0086854Y0064100D01*
X0087632Y0064100D01*
X0087688Y0064098D01*
X0087743Y0064092D01*
X0087797Y0064082D01*
X0087851Y0064068D01*
X0087904Y0064051D01*
X0087955Y0064030D01*
X0088005Y0064005D01*
X0088053Y0063976D01*
X0088098Y0063945D01*
X0088141Y0063910D01*
X0088182Y0063872D01*
X0088220Y0063831D01*
X0088255Y0063788D01*
X0088286Y0063743D01*
X0088315Y0063695D01*
X0088340Y0063645D01*
X0088361Y0063594D01*
X0088378Y0063541D01*
X0088392Y0063487D01*
X0088402Y0063433D01*
X0088408Y0063378D01*
X0088410Y0063322D01*
X0088410Y0062078D01*
X0088408Y0062025D01*
X0088403Y0061972D01*
X0088394Y0061920D01*
X0088381Y0061868D01*
X0088365Y0061817D01*
X0088346Y0061768D01*
X0088323Y0061720D01*
X0088297Y0061674D01*
X0088268Y0061629D01*
X0088236Y0061587D01*
X0088201Y0061547D01*
X0088163Y0061509D01*
X0088123Y0061474D01*
X0088081Y0061442D01*
X0088036Y0061413D01*
X0087990Y0061387D01*
X0087942Y0061364D01*
X0087893Y0061345D01*
X0087842Y0061329D01*
X0087790Y0061316D01*
X0087738Y0061307D01*
X0087685Y0061302D01*
X0087632Y0061300D01*
X0089644Y0061922D02*
X0091200Y0061922D01*
X0090733Y0062544D02*
X0090733Y0061300D01*
X0089644Y0061922D02*
X0090267Y0064100D01*
X0090422Y0071300D02*
X0089644Y0071300D01*
X0090422Y0071300D02*
X0090478Y0071302D01*
X0090533Y0071308D01*
X0090587Y0071318D01*
X0090641Y0071332D01*
X0090694Y0071349D01*
X0090745Y0071370D01*
X0090795Y0071395D01*
X0090843Y0071424D01*
X0090888Y0071455D01*
X0090931Y0071490D01*
X0090972Y0071528D01*
X0091010Y0071569D01*
X0091045Y0071612D01*
X0091076Y0071657D01*
X0091105Y0071705D01*
X0091130Y0071755D01*
X0091151Y0071806D01*
X0091168Y0071859D01*
X0091182Y0071913D01*
X0091192Y0071967D01*
X0091198Y0072022D01*
X0091200Y0072078D01*
X0091198Y0072134D01*
X0091192Y0072189D01*
X0091182Y0072243D01*
X0091168Y0072297D01*
X0091151Y0072350D01*
X0091130Y0072401D01*
X0091105Y0072451D01*
X0091076Y0072499D01*
X0091045Y0072544D01*
X0091010Y0072587D01*
X0090972Y0072628D01*
X0090931Y0072666D01*
X0090888Y0072701D01*
X0090843Y0072732D01*
X0090795Y0072761D01*
X0090745Y0072786D01*
X0090694Y0072807D01*
X0090641Y0072824D01*
X0090587Y0072838D01*
X0090533Y0072848D01*
X0090478Y0072854D01*
X0090422Y0072856D01*
X0090578Y0072856D02*
X0089956Y0072856D01*
X0090578Y0072856D02*
X0090627Y0072858D01*
X0090675Y0072864D01*
X0090723Y0072873D01*
X0090770Y0072886D01*
X0090816Y0072903D01*
X0090860Y0072924D01*
X0090903Y0072948D01*
X0090944Y0072975D01*
X0090982Y0073005D01*
X0091018Y0073038D01*
X0091051Y0073074D01*
X0091081Y0073112D01*
X0091108Y0073153D01*
X0091132Y0073196D01*
X0091153Y0073240D01*
X0091170Y0073286D01*
X0091183Y0073333D01*
X0091192Y0073381D01*
X0091198Y0073429D01*
X0091200Y0073478D01*
X0091198Y0073527D01*
X0091192Y0073575D01*
X0091183Y0073623D01*
X0091170Y0073670D01*
X0091153Y0073716D01*
X0091132Y0073760D01*
X0091108Y0073803D01*
X0091081Y0073844D01*
X0091051Y0073882D01*
X0091018Y0073918D01*
X0090982Y0073951D01*
X0090944Y0073981D01*
X0090903Y0074008D01*
X0090860Y0074032D01*
X0090816Y0074053D01*
X0090770Y0074070D01*
X0090723Y0074083D01*
X0090675Y0074092D01*
X0090627Y0074098D01*
X0090578Y0074100D01*
X0089644Y0074100D01*
X0088410Y0073322D02*
X0088410Y0072078D01*
X0088408Y0072025D01*
X0088403Y0071972D01*
X0088394Y0071920D01*
X0088381Y0071868D01*
X0088365Y0071817D01*
X0088346Y0071768D01*
X0088323Y0071720D01*
X0088297Y0071674D01*
X0088268Y0071629D01*
X0088236Y0071587D01*
X0088201Y0071547D01*
X0088163Y0071509D01*
X0088123Y0071474D01*
X0088081Y0071442D01*
X0088036Y0071413D01*
X0087990Y0071387D01*
X0087942Y0071364D01*
X0087893Y0071345D01*
X0087842Y0071329D01*
X0087790Y0071316D01*
X0087738Y0071307D01*
X0087685Y0071302D01*
X0087632Y0071300D01*
X0086854Y0071300D01*
X0086854Y0074100D01*
X0087632Y0074100D01*
X0087688Y0074098D01*
X0087743Y0074092D01*
X0087797Y0074082D01*
X0087851Y0074068D01*
X0087904Y0074051D01*
X0087955Y0074030D01*
X0088005Y0074005D01*
X0088053Y0073976D01*
X0088098Y0073945D01*
X0088141Y0073910D01*
X0088182Y0073872D01*
X0088220Y0073831D01*
X0088255Y0073788D01*
X0088286Y0073743D01*
X0088315Y0073695D01*
X0088340Y0073645D01*
X0088361Y0073594D01*
X0088378Y0073541D01*
X0088392Y0073487D01*
X0088402Y0073433D01*
X0088408Y0073378D01*
X0088410Y0073322D01*
X0087632Y0081300D02*
X0086854Y0081300D01*
X0086854Y0084100D01*
X0087632Y0084100D01*
X0087688Y0084098D01*
X0087743Y0084092D01*
X0087797Y0084082D01*
X0087851Y0084068D01*
X0087904Y0084051D01*
X0087955Y0084030D01*
X0088005Y0084005D01*
X0088053Y0083976D01*
X0088098Y0083945D01*
X0088141Y0083910D01*
X0088182Y0083872D01*
X0088220Y0083831D01*
X0088255Y0083788D01*
X0088286Y0083743D01*
X0088315Y0083695D01*
X0088340Y0083645D01*
X0088361Y0083594D01*
X0088378Y0083541D01*
X0088392Y0083487D01*
X0088402Y0083433D01*
X0088408Y0083378D01*
X0088410Y0083322D01*
X0088410Y0082078D01*
X0088408Y0082025D01*
X0088403Y0081972D01*
X0088394Y0081920D01*
X0088381Y0081868D01*
X0088365Y0081817D01*
X0088346Y0081768D01*
X0088323Y0081720D01*
X0088297Y0081674D01*
X0088268Y0081629D01*
X0088236Y0081587D01*
X0088201Y0081547D01*
X0088163Y0081509D01*
X0088123Y0081474D01*
X0088081Y0081442D01*
X0088036Y0081413D01*
X0087990Y0081387D01*
X0087942Y0081364D01*
X0087893Y0081345D01*
X0087842Y0081329D01*
X0087790Y0081316D01*
X0087738Y0081307D01*
X0087685Y0081302D01*
X0087632Y0081300D01*
X0089644Y0081300D02*
X0091200Y0081300D01*
X0089644Y0081300D02*
X0090967Y0082856D01*
X0090500Y0084100D02*
X0090444Y0084098D01*
X0090387Y0084093D01*
X0090331Y0084084D01*
X0090276Y0084072D01*
X0090222Y0084056D01*
X0090169Y0084037D01*
X0090117Y0084014D01*
X0090067Y0083989D01*
X0090018Y0083960D01*
X0089971Y0083928D01*
X0089927Y0083893D01*
X0089884Y0083856D01*
X0089844Y0083816D01*
X0089807Y0083774D01*
X0089772Y0083729D01*
X0089741Y0083682D01*
X0089712Y0083633D01*
X0089686Y0083583D01*
X0089664Y0083531D01*
X0089645Y0083478D01*
X0090967Y0082855D02*
X0091002Y0082892D01*
X0091035Y0082930D01*
X0091066Y0082971D01*
X0091093Y0083013D01*
X0091118Y0083058D01*
X0091139Y0083104D01*
X0091158Y0083151D01*
X0091173Y0083199D01*
X0091185Y0083249D01*
X0091193Y0083299D01*
X0091198Y0083349D01*
X0091200Y0083400D01*
X0091198Y0083450D01*
X0091193Y0083500D01*
X0091184Y0083549D01*
X0091172Y0083597D01*
X0091156Y0083645D01*
X0091137Y0083691D01*
X0091114Y0083735D01*
X0091089Y0083778D01*
X0091060Y0083819D01*
X0091029Y0083858D01*
X0090995Y0083895D01*
X0090958Y0083929D01*
X0090919Y0083960D01*
X0090878Y0083989D01*
X0090835Y0084014D01*
X0090791Y0084037D01*
X0090745Y0084056D01*
X0090697Y0084072D01*
X0090649Y0084084D01*
X0090600Y0084093D01*
X0090550Y0084098D01*
X0090500Y0084100D01*
X0090422Y0091300D02*
X0090422Y0094100D01*
X0089644Y0093478D01*
X0088410Y0093322D02*
X0088410Y0092078D01*
X0088408Y0092025D01*
X0088403Y0091972D01*
X0088394Y0091920D01*
X0088381Y0091868D01*
X0088365Y0091817D01*
X0088346Y0091768D01*
X0088323Y0091720D01*
X0088297Y0091674D01*
X0088268Y0091629D01*
X0088236Y0091587D01*
X0088201Y0091547D01*
X0088163Y0091509D01*
X0088123Y0091474D01*
X0088081Y0091442D01*
X0088036Y0091413D01*
X0087990Y0091387D01*
X0087942Y0091364D01*
X0087893Y0091345D01*
X0087842Y0091329D01*
X0087790Y0091316D01*
X0087738Y0091307D01*
X0087685Y0091302D01*
X0087632Y0091300D01*
X0086854Y0091300D01*
X0086854Y0094100D01*
X0087632Y0094100D01*
X0087688Y0094098D01*
X0087743Y0094092D01*
X0087797Y0094082D01*
X0087851Y0094068D01*
X0087904Y0094051D01*
X0087955Y0094030D01*
X0088005Y0094005D01*
X0088053Y0093976D01*
X0088098Y0093945D01*
X0088141Y0093910D01*
X0088182Y0093872D01*
X0088220Y0093831D01*
X0088255Y0093788D01*
X0088286Y0093743D01*
X0088315Y0093695D01*
X0088340Y0093645D01*
X0088361Y0093594D01*
X0088378Y0093541D01*
X0088392Y0093487D01*
X0088402Y0093433D01*
X0088408Y0093378D01*
X0088410Y0093322D01*
X0089644Y0091300D02*
X0091200Y0091300D01*
X0091200Y0101300D02*
X0089333Y0104100D01*
X0091200Y0104100D02*
X0089333Y0101300D01*
X0088360Y0101300D02*
X0087738Y0102544D01*
X0087583Y0102544D02*
X0086805Y0102544D01*
X0087583Y0102544D02*
X0087639Y0102546D01*
X0087694Y0102552D01*
X0087748Y0102562D01*
X0087802Y0102576D01*
X0087855Y0102593D01*
X0087906Y0102614D01*
X0087956Y0102639D01*
X0088004Y0102668D01*
X0088049Y0102699D01*
X0088092Y0102734D01*
X0088133Y0102772D01*
X0088171Y0102813D01*
X0088206Y0102856D01*
X0088237Y0102901D01*
X0088266Y0102949D01*
X0088291Y0102999D01*
X0088312Y0103050D01*
X0088329Y0103103D01*
X0088343Y0103157D01*
X0088353Y0103211D01*
X0088359Y0103266D01*
X0088361Y0103322D01*
X0088359Y0103378D01*
X0088353Y0103433D01*
X0088343Y0103487D01*
X0088329Y0103541D01*
X0088312Y0103594D01*
X0088291Y0103645D01*
X0088266Y0103695D01*
X0088237Y0103743D01*
X0088206Y0103788D01*
X0088171Y0103831D01*
X0088133Y0103872D01*
X0088092Y0103910D01*
X0088049Y0103945D01*
X0088004Y0103976D01*
X0087956Y0104005D01*
X0087906Y0104030D01*
X0087855Y0104051D01*
X0087802Y0104068D01*
X0087748Y0104082D01*
X0087694Y0104092D01*
X0087639Y0104098D01*
X0087583Y0104100D01*
X0086805Y0104100D01*
X0086805Y0101300D01*
X0087747Y0111300D02*
X0087747Y0114100D01*
X0088524Y0114100D02*
X0086969Y0114100D01*
X0089333Y0114100D02*
X0091200Y0111300D01*
X0089333Y0111300D02*
X0091200Y0114100D01*
X0078843Y0089700D02*
X0078232Y0089700D01*
X0078232Y0087500D01*
X0078232Y0088478D02*
X0078843Y0088478D01*
X0078965Y0088478D02*
X0079454Y0087500D01*
X0081417Y0087806D02*
X0081451Y0087880D01*
X0081482Y0087956D01*
X0081509Y0088034D01*
X0081533Y0088113D01*
X0081554Y0088192D01*
X0081570Y0088273D01*
X0081583Y0088354D01*
X0081593Y0088436D01*
X0081598Y0088518D01*
X0081600Y0088600D01*
X0080378Y0088600D02*
X0080380Y0088682D01*
X0080385Y0088764D01*
X0080395Y0088846D01*
X0080408Y0088927D01*
X0080424Y0089008D01*
X0080445Y0089087D01*
X0080469Y0089166D01*
X0080496Y0089244D01*
X0080527Y0089320D01*
X0080561Y0089394D01*
X0080989Y0089700D02*
X0081029Y0089698D01*
X0081069Y0089693D01*
X0081108Y0089684D01*
X0081146Y0089672D01*
X0081183Y0089656D01*
X0081218Y0089638D01*
X0081252Y0089616D01*
X0081283Y0089591D01*
X0081312Y0089564D01*
X0081339Y0089534D01*
X0081363Y0089502D01*
X0081384Y0089468D01*
X0081402Y0089432D01*
X0081417Y0089395D01*
X0081478Y0089211D02*
X0080500Y0087989D01*
X0080989Y0087500D02*
X0081029Y0087502D01*
X0081069Y0087507D01*
X0081108Y0087516D01*
X0081146Y0087528D01*
X0081183Y0087544D01*
X0081218Y0087562D01*
X0081252Y0087584D01*
X0081283Y0087609D01*
X0081312Y0087636D01*
X0081339Y0087666D01*
X0081363Y0087698D01*
X0081384Y0087732D01*
X0081402Y0087768D01*
X0081417Y0087805D01*
X0080989Y0087500D02*
X0080949Y0087502D01*
X0080909Y0087507D01*
X0080870Y0087516D01*
X0080832Y0087528D01*
X0080795Y0087544D01*
X0080760Y0087562D01*
X0080726Y0087584D01*
X0080695Y0087609D01*
X0080666Y0087636D01*
X0080639Y0087666D01*
X0080615Y0087698D01*
X0080594Y0087732D01*
X0080576Y0087768D01*
X0080561Y0087805D01*
X0081600Y0088600D02*
X0081598Y0088682D01*
X0081593Y0088764D01*
X0081583Y0088846D01*
X0081570Y0088927D01*
X0081554Y0089008D01*
X0081533Y0089087D01*
X0081509Y0089166D01*
X0081482Y0089244D01*
X0081451Y0089320D01*
X0081417Y0089394D01*
X0080989Y0089700D02*
X0080949Y0089698D01*
X0080909Y0089693D01*
X0080870Y0089684D01*
X0080832Y0089672D01*
X0080795Y0089656D01*
X0080760Y0089638D01*
X0080726Y0089616D01*
X0080695Y0089591D01*
X0080666Y0089564D01*
X0080639Y0089534D01*
X0080615Y0089502D01*
X0080594Y0089468D01*
X0080576Y0089432D01*
X0080561Y0089395D01*
X0078843Y0089700D02*
X0078891Y0089698D01*
X0078939Y0089692D01*
X0078986Y0089683D01*
X0079032Y0089670D01*
X0079077Y0089653D01*
X0079120Y0089633D01*
X0079162Y0089610D01*
X0079202Y0089583D01*
X0079240Y0089554D01*
X0079275Y0089521D01*
X0079308Y0089486D01*
X0079337Y0089448D01*
X0079364Y0089408D01*
X0079387Y0089366D01*
X0079407Y0089323D01*
X0079424Y0089278D01*
X0079437Y0089232D01*
X0079446Y0089185D01*
X0079452Y0089137D01*
X0079454Y0089089D01*
X0079452Y0089041D01*
X0079446Y0088993D01*
X0079437Y0088946D01*
X0079424Y0088900D01*
X0079407Y0088855D01*
X0079387Y0088812D01*
X0079364Y0088770D01*
X0079337Y0088730D01*
X0079308Y0088692D01*
X0079275Y0088657D01*
X0079240Y0088624D01*
X0079202Y0088595D01*
X0079162Y0088568D01*
X0079120Y0088545D01*
X0079077Y0088525D01*
X0079032Y0088508D01*
X0078986Y0088495D01*
X0078939Y0088486D01*
X0078891Y0088480D01*
X0078843Y0088478D01*
X0080378Y0088600D02*
X0080380Y0088518D01*
X0080385Y0088436D01*
X0080395Y0088354D01*
X0080408Y0088273D01*
X0080424Y0088192D01*
X0080445Y0088113D01*
X0080469Y0088034D01*
X0080496Y0087956D01*
X0080527Y0087880D01*
X0080561Y0087806D01*
X0071600Y0087500D02*
X0070378Y0087500D01*
X0070989Y0087500D02*
X0070989Y0089700D01*
X0070378Y0089211D01*
X0068843Y0089700D02*
X0068891Y0089698D01*
X0068939Y0089692D01*
X0068986Y0089683D01*
X0069032Y0089670D01*
X0069077Y0089653D01*
X0069120Y0089633D01*
X0069162Y0089610D01*
X0069202Y0089583D01*
X0069240Y0089554D01*
X0069275Y0089521D01*
X0069308Y0089486D01*
X0069337Y0089448D01*
X0069364Y0089408D01*
X0069387Y0089366D01*
X0069407Y0089323D01*
X0069424Y0089278D01*
X0069437Y0089232D01*
X0069446Y0089185D01*
X0069452Y0089137D01*
X0069454Y0089089D01*
X0069452Y0089041D01*
X0069446Y0088993D01*
X0069437Y0088946D01*
X0069424Y0088900D01*
X0069407Y0088855D01*
X0069387Y0088812D01*
X0069364Y0088770D01*
X0069337Y0088730D01*
X0069308Y0088692D01*
X0069275Y0088657D01*
X0069240Y0088624D01*
X0069202Y0088595D01*
X0069162Y0088568D01*
X0069120Y0088545D01*
X0069077Y0088525D01*
X0069032Y0088508D01*
X0068986Y0088495D01*
X0068939Y0088486D01*
X0068891Y0088480D01*
X0068843Y0088478D01*
X0068232Y0088478D01*
X0068965Y0088478D02*
X0069454Y0087500D01*
X0068232Y0087500D02*
X0068232Y0089700D01*
X0068843Y0089700D01*
X0061600Y0087500D02*
X0060378Y0087500D01*
X0061417Y0088722D01*
X0061050Y0089700D02*
X0060998Y0089698D01*
X0060946Y0089692D01*
X0060894Y0089683D01*
X0060844Y0089669D01*
X0060794Y0089652D01*
X0060746Y0089631D01*
X0060700Y0089607D01*
X0060656Y0089580D01*
X0060613Y0089549D01*
X0060573Y0089515D01*
X0060536Y0089479D01*
X0060502Y0089439D01*
X0060470Y0089397D01*
X0060442Y0089354D01*
X0060417Y0089308D01*
X0060395Y0089260D01*
X0060377Y0089211D01*
X0061417Y0088722D02*
X0061450Y0088756D01*
X0061480Y0088793D01*
X0061508Y0088833D01*
X0061532Y0088874D01*
X0061552Y0088917D01*
X0061569Y0088962D01*
X0061583Y0089008D01*
X0061592Y0089055D01*
X0061598Y0089102D01*
X0061600Y0089150D01*
X0061598Y0089195D01*
X0061592Y0089241D01*
X0061583Y0089285D01*
X0061570Y0089329D01*
X0061554Y0089371D01*
X0061534Y0089412D01*
X0061510Y0089451D01*
X0061484Y0089488D01*
X0061455Y0089523D01*
X0061423Y0089555D01*
X0061388Y0089584D01*
X0061351Y0089610D01*
X0061312Y0089634D01*
X0061271Y0089654D01*
X0061229Y0089670D01*
X0061185Y0089683D01*
X0061141Y0089692D01*
X0061095Y0089698D01*
X0061050Y0089700D01*
X0058843Y0089700D02*
X0058232Y0089700D01*
X0058232Y0087500D01*
X0058232Y0088478D02*
X0058843Y0088478D01*
X0058965Y0088478D02*
X0059454Y0087500D01*
X0058843Y0088478D02*
X0058891Y0088480D01*
X0058939Y0088486D01*
X0058986Y0088495D01*
X0059032Y0088508D01*
X0059077Y0088525D01*
X0059120Y0088545D01*
X0059162Y0088568D01*
X0059202Y0088595D01*
X0059240Y0088624D01*
X0059275Y0088657D01*
X0059308Y0088692D01*
X0059337Y0088730D01*
X0059364Y0088770D01*
X0059387Y0088812D01*
X0059407Y0088855D01*
X0059424Y0088900D01*
X0059437Y0088946D01*
X0059446Y0088993D01*
X0059452Y0089041D01*
X0059454Y0089089D01*
X0059452Y0089137D01*
X0059446Y0089185D01*
X0059437Y0089232D01*
X0059424Y0089278D01*
X0059407Y0089323D01*
X0059387Y0089366D01*
X0059364Y0089408D01*
X0059337Y0089448D01*
X0059308Y0089486D01*
X0059275Y0089521D01*
X0059240Y0089554D01*
X0059202Y0089583D01*
X0059162Y0089610D01*
X0059120Y0089633D01*
X0059077Y0089653D01*
X0059032Y0089670D01*
X0058986Y0089683D01*
X0058939Y0089692D01*
X0058891Y0089698D01*
X0058843Y0089700D01*
X0051111Y0089700D02*
X0050378Y0089700D01*
X0051111Y0089700D02*
X0051154Y0089698D01*
X0051196Y0089693D01*
X0051238Y0089683D01*
X0051278Y0089671D01*
X0051318Y0089654D01*
X0051356Y0089634D01*
X0051391Y0089612D01*
X0051425Y0089586D01*
X0051457Y0089557D01*
X0051486Y0089525D01*
X0051512Y0089491D01*
X0051534Y0089456D01*
X0051554Y0089418D01*
X0051571Y0089378D01*
X0051583Y0089338D01*
X0051593Y0089296D01*
X0051598Y0089254D01*
X0051600Y0089211D01*
X0051598Y0089168D01*
X0051593Y0089126D01*
X0051583Y0089084D01*
X0051571Y0089044D01*
X0051554Y0089004D01*
X0051534Y0088967D01*
X0051512Y0088931D01*
X0051486Y0088897D01*
X0051457Y0088865D01*
X0051425Y0088836D01*
X0051391Y0088810D01*
X0051356Y0088788D01*
X0051318Y0088768D01*
X0051278Y0088751D01*
X0051238Y0088739D01*
X0051196Y0088729D01*
X0051154Y0088724D01*
X0051111Y0088722D01*
X0050622Y0088722D01*
X0050989Y0088722D02*
X0051037Y0088720D01*
X0051085Y0088714D01*
X0051132Y0088705D01*
X0051178Y0088692D01*
X0051223Y0088675D01*
X0051266Y0088655D01*
X0051308Y0088632D01*
X0051348Y0088605D01*
X0051386Y0088576D01*
X0051421Y0088543D01*
X0051454Y0088508D01*
X0051483Y0088470D01*
X0051510Y0088430D01*
X0051533Y0088388D01*
X0051553Y0088345D01*
X0051570Y0088300D01*
X0051583Y0088254D01*
X0051592Y0088207D01*
X0051598Y0088159D01*
X0051600Y0088111D01*
X0051598Y0088063D01*
X0051592Y0088015D01*
X0051583Y0087968D01*
X0051570Y0087922D01*
X0051553Y0087877D01*
X0051533Y0087834D01*
X0051510Y0087792D01*
X0051483Y0087752D01*
X0051454Y0087714D01*
X0051421Y0087679D01*
X0051386Y0087646D01*
X0051348Y0087617D01*
X0051308Y0087590D01*
X0051266Y0087567D01*
X0051223Y0087547D01*
X0051178Y0087530D01*
X0051132Y0087517D01*
X0051085Y0087508D01*
X0051037Y0087502D01*
X0050989Y0087500D01*
X0050378Y0087500D01*
X0049454Y0087500D02*
X0048965Y0088478D01*
X0048843Y0088478D02*
X0048232Y0088478D01*
X0048843Y0088478D02*
X0048891Y0088480D01*
X0048939Y0088486D01*
X0048986Y0088495D01*
X0049032Y0088508D01*
X0049077Y0088525D01*
X0049120Y0088545D01*
X0049162Y0088568D01*
X0049202Y0088595D01*
X0049240Y0088624D01*
X0049275Y0088657D01*
X0049308Y0088692D01*
X0049337Y0088730D01*
X0049364Y0088770D01*
X0049387Y0088812D01*
X0049407Y0088855D01*
X0049424Y0088900D01*
X0049437Y0088946D01*
X0049446Y0088993D01*
X0049452Y0089041D01*
X0049454Y0089089D01*
X0049452Y0089137D01*
X0049446Y0089185D01*
X0049437Y0089232D01*
X0049424Y0089278D01*
X0049407Y0089323D01*
X0049387Y0089366D01*
X0049364Y0089408D01*
X0049337Y0089448D01*
X0049308Y0089486D01*
X0049275Y0089521D01*
X0049240Y0089554D01*
X0049202Y0089583D01*
X0049162Y0089610D01*
X0049120Y0089633D01*
X0049077Y0089653D01*
X0049032Y0089670D01*
X0048986Y0089683D01*
X0048939Y0089692D01*
X0048891Y0089698D01*
X0048843Y0089700D01*
X0048232Y0089700D01*
X0048232Y0087500D01*
X0048511Y0077900D02*
X0049000Y0077900D01*
X0048511Y0077900D02*
X0048468Y0077898D01*
X0048426Y0077893D01*
X0048384Y0077883D01*
X0048344Y0077871D01*
X0048304Y0077854D01*
X0048266Y0077834D01*
X0048231Y0077812D01*
X0048197Y0077786D01*
X0048165Y0077757D01*
X0048136Y0077725D01*
X0048110Y0077691D01*
X0048088Y0077655D01*
X0048068Y0077618D01*
X0048051Y0077578D01*
X0048039Y0077538D01*
X0048029Y0077496D01*
X0048024Y0077454D01*
X0048022Y0077411D01*
X0048022Y0076189D01*
X0048024Y0076146D01*
X0048029Y0076104D01*
X0048039Y0076062D01*
X0048051Y0076022D01*
X0048068Y0075982D01*
X0048088Y0075945D01*
X0048110Y0075909D01*
X0048136Y0075875D01*
X0048165Y0075843D01*
X0048197Y0075814D01*
X0048231Y0075788D01*
X0048267Y0075766D01*
X0048304Y0075746D01*
X0048344Y0075729D01*
X0048384Y0075717D01*
X0048426Y0075707D01*
X0048468Y0075702D01*
X0048511Y0075700D01*
X0049000Y0075700D01*
X0047200Y0075700D02*
X0046711Y0075700D01*
X0046668Y0075702D01*
X0046626Y0075707D01*
X0046584Y0075717D01*
X0046544Y0075729D01*
X0046504Y0075746D01*
X0046467Y0075766D01*
X0046431Y0075788D01*
X0046397Y0075814D01*
X0046365Y0075843D01*
X0046336Y0075875D01*
X0046310Y0075909D01*
X0046288Y0075945D01*
X0046268Y0075982D01*
X0046251Y0076022D01*
X0046239Y0076062D01*
X0046229Y0076104D01*
X0046224Y0076146D01*
X0046222Y0076189D01*
X0046222Y0077411D01*
X0046224Y0077454D01*
X0046229Y0077496D01*
X0046239Y0077538D01*
X0046251Y0077578D01*
X0046268Y0077618D01*
X0046288Y0077655D01*
X0046310Y0077691D01*
X0046336Y0077725D01*
X0046365Y0077757D01*
X0046397Y0077786D01*
X0046431Y0077812D01*
X0046466Y0077834D01*
X0046504Y0077854D01*
X0046544Y0077871D01*
X0046584Y0077883D01*
X0046626Y0077893D01*
X0046668Y0077898D01*
X0046711Y0077900D01*
X0047200Y0077900D01*
X0045413Y0077900D02*
X0044680Y0075700D01*
X0043946Y0077900D01*
X0041233Y0087500D02*
X0041233Y0088478D01*
X0041600Y0087989D02*
X0040378Y0087989D01*
X0040867Y0089700D01*
X0038843Y0089700D02*
X0038232Y0089700D01*
X0038232Y0087500D01*
X0038232Y0088478D02*
X0038843Y0088478D01*
X0038965Y0088478D02*
X0039454Y0087500D01*
X0038843Y0088478D02*
X0038891Y0088480D01*
X0038939Y0088486D01*
X0038986Y0088495D01*
X0039032Y0088508D01*
X0039077Y0088525D01*
X0039120Y0088545D01*
X0039162Y0088568D01*
X0039202Y0088595D01*
X0039240Y0088624D01*
X0039275Y0088657D01*
X0039308Y0088692D01*
X0039337Y0088730D01*
X0039364Y0088770D01*
X0039387Y0088812D01*
X0039407Y0088855D01*
X0039424Y0088900D01*
X0039437Y0088946D01*
X0039446Y0088993D01*
X0039452Y0089041D01*
X0039454Y0089089D01*
X0039452Y0089137D01*
X0039446Y0089185D01*
X0039437Y0089232D01*
X0039424Y0089278D01*
X0039407Y0089323D01*
X0039387Y0089366D01*
X0039364Y0089408D01*
X0039337Y0089448D01*
X0039308Y0089486D01*
X0039275Y0089521D01*
X0039240Y0089554D01*
X0039202Y0089583D01*
X0039162Y0089610D01*
X0039120Y0089633D01*
X0039077Y0089653D01*
X0039032Y0089670D01*
X0038986Y0089683D01*
X0038939Y0089692D01*
X0038891Y0089698D01*
X0038843Y0089700D01*
X0031600Y0089700D02*
X0030378Y0089700D01*
X0030378Y0088722D01*
X0031111Y0088722D01*
X0031154Y0088720D01*
X0031196Y0088715D01*
X0031238Y0088705D01*
X0031278Y0088693D01*
X0031318Y0088676D01*
X0031356Y0088656D01*
X0031391Y0088634D01*
X0031425Y0088608D01*
X0031457Y0088579D01*
X0031486Y0088547D01*
X0031512Y0088513D01*
X0031534Y0088478D01*
X0031554Y0088440D01*
X0031571Y0088400D01*
X0031583Y0088360D01*
X0031593Y0088318D01*
X0031598Y0088276D01*
X0031600Y0088233D01*
X0031600Y0087989D01*
X0031598Y0087946D01*
X0031593Y0087904D01*
X0031583Y0087862D01*
X0031571Y0087822D01*
X0031554Y0087782D01*
X0031534Y0087744D01*
X0031512Y0087709D01*
X0031486Y0087675D01*
X0031457Y0087643D01*
X0031425Y0087614D01*
X0031391Y0087588D01*
X0031355Y0087566D01*
X0031318Y0087546D01*
X0031278Y0087529D01*
X0031238Y0087517D01*
X0031196Y0087507D01*
X0031154Y0087502D01*
X0031111Y0087500D01*
X0030378Y0087500D01*
X0029454Y0087500D02*
X0028965Y0088478D01*
X0028843Y0088478D02*
X0028232Y0088478D01*
X0028843Y0088478D02*
X0028891Y0088480D01*
X0028939Y0088486D01*
X0028986Y0088495D01*
X0029032Y0088508D01*
X0029077Y0088525D01*
X0029120Y0088545D01*
X0029162Y0088568D01*
X0029202Y0088595D01*
X0029240Y0088624D01*
X0029275Y0088657D01*
X0029308Y0088692D01*
X0029337Y0088730D01*
X0029364Y0088770D01*
X0029387Y0088812D01*
X0029407Y0088855D01*
X0029424Y0088900D01*
X0029437Y0088946D01*
X0029446Y0088993D01*
X0029452Y0089041D01*
X0029454Y0089089D01*
X0029452Y0089137D01*
X0029446Y0089185D01*
X0029437Y0089232D01*
X0029424Y0089278D01*
X0029407Y0089323D01*
X0029387Y0089366D01*
X0029364Y0089408D01*
X0029337Y0089448D01*
X0029308Y0089486D01*
X0029275Y0089521D01*
X0029240Y0089554D01*
X0029202Y0089583D01*
X0029162Y0089610D01*
X0029120Y0089633D01*
X0029077Y0089653D01*
X0029032Y0089670D01*
X0028986Y0089683D01*
X0028939Y0089692D01*
X0028891Y0089698D01*
X0028843Y0089700D01*
X0028232Y0089700D01*
X0028232Y0087500D01*
X0021500Y0096332D02*
X0019300Y0096332D01*
X0019300Y0096943D01*
X0019302Y0096991D01*
X0019308Y0097039D01*
X0019317Y0097086D01*
X0019330Y0097132D01*
X0019347Y0097177D01*
X0019367Y0097220D01*
X0019390Y0097262D01*
X0019417Y0097302D01*
X0019446Y0097340D01*
X0019479Y0097375D01*
X0019514Y0097408D01*
X0019552Y0097437D01*
X0019592Y0097464D01*
X0019634Y0097487D01*
X0019677Y0097507D01*
X0019722Y0097524D01*
X0019768Y0097537D01*
X0019815Y0097546D01*
X0019863Y0097552D01*
X0019911Y0097554D01*
X0019959Y0097552D01*
X0020007Y0097546D01*
X0020054Y0097537D01*
X0020100Y0097524D01*
X0020145Y0097507D01*
X0020188Y0097487D01*
X0020230Y0097464D01*
X0020270Y0097437D01*
X0020308Y0097408D01*
X0020343Y0097375D01*
X0020376Y0097340D01*
X0020405Y0097302D01*
X0020432Y0097262D01*
X0020455Y0097220D01*
X0020475Y0097177D01*
X0020492Y0097132D01*
X0020505Y0097086D01*
X0020514Y0097039D01*
X0020520Y0096991D01*
X0020522Y0096943D01*
X0020522Y0096332D01*
X0020522Y0097065D02*
X0021500Y0097554D01*
X0020889Y0098478D02*
X0020278Y0098478D01*
X0020278Y0099211D01*
X0020278Y0098478D02*
X0020217Y0098480D01*
X0020155Y0098486D01*
X0020095Y0098495D01*
X0020035Y0098509D01*
X0019976Y0098526D01*
X0019918Y0098547D01*
X0019862Y0098571D01*
X0019807Y0098599D01*
X0019754Y0098630D01*
X0019703Y0098665D01*
X0019655Y0098702D01*
X0019609Y0098743D01*
X0019565Y0098787D01*
X0019524Y0098833D01*
X0019487Y0098881D01*
X0019452Y0098932D01*
X0019421Y0098985D01*
X0019393Y0099040D01*
X0019369Y0099096D01*
X0019348Y0099154D01*
X0019331Y0099213D01*
X0019317Y0099273D01*
X0019308Y0099333D01*
X0019302Y0099395D01*
X0019300Y0099456D01*
X0020767Y0099700D02*
X0020889Y0099700D01*
X0020767Y0099700D02*
X0020724Y0099698D01*
X0020682Y0099693D01*
X0020640Y0099683D01*
X0020600Y0099671D01*
X0020560Y0099654D01*
X0020523Y0099634D01*
X0020487Y0099612D01*
X0020453Y0099586D01*
X0020421Y0099557D01*
X0020392Y0099525D01*
X0020366Y0099491D01*
X0020344Y0099456D01*
X0020324Y0099418D01*
X0020307Y0099378D01*
X0020295Y0099338D01*
X0020285Y0099296D01*
X0020280Y0099254D01*
X0020278Y0099211D01*
X0020889Y0099700D02*
X0020937Y0099698D01*
X0020985Y0099692D01*
X0021032Y0099683D01*
X0021078Y0099670D01*
X0021123Y0099653D01*
X0021166Y0099633D01*
X0021208Y0099610D01*
X0021248Y0099583D01*
X0021286Y0099554D01*
X0021321Y0099521D01*
X0021354Y0099486D01*
X0021383Y0099448D01*
X0021410Y0099408D01*
X0021433Y0099366D01*
X0021453Y0099323D01*
X0021470Y0099278D01*
X0021483Y0099232D01*
X0021492Y0099185D01*
X0021498Y0099137D01*
X0021500Y0099089D01*
X0021498Y0099041D01*
X0021492Y0098993D01*
X0021483Y0098946D01*
X0021470Y0098900D01*
X0021453Y0098855D01*
X0021433Y0098812D01*
X0021410Y0098770D01*
X0021383Y0098730D01*
X0021354Y0098692D01*
X0021321Y0098657D01*
X0021286Y0098624D01*
X0021248Y0098595D01*
X0021208Y0098568D01*
X0021166Y0098545D01*
X0021123Y0098525D01*
X0021078Y0098508D01*
X0021032Y0098495D01*
X0020985Y0098486D01*
X0020937Y0098480D01*
X0020889Y0098478D01*
X0014489Y0101689D02*
X0014449Y0101775D01*
X0014413Y0101863D01*
X0014380Y0101953D01*
X0014351Y0102043D01*
X0014326Y0102135D01*
X0014305Y0102228D01*
X0014287Y0102321D01*
X0014274Y0102415D01*
X0014264Y0102510D01*
X0014258Y0102605D01*
X0014256Y0102700D01*
X0015811Y0102700D02*
X0015809Y0102795D01*
X0015803Y0102890D01*
X0015793Y0102985D01*
X0015780Y0103079D01*
X0015762Y0103172D01*
X0015741Y0103265D01*
X0015716Y0103357D01*
X0015687Y0103447D01*
X0015654Y0103537D01*
X0015618Y0103625D01*
X0015578Y0103711D01*
X0015656Y0103478D02*
X0014411Y0101922D01*
X0015033Y0101300D02*
X0015078Y0101302D01*
X0015122Y0101307D01*
X0015166Y0101316D01*
X0015209Y0101327D01*
X0015251Y0101343D01*
X0015291Y0101361D01*
X0015330Y0101383D01*
X0015368Y0101407D01*
X0015403Y0101435D01*
X0015436Y0101465D01*
X0015467Y0101497D01*
X0015495Y0101532D01*
X0015520Y0101569D01*
X0015542Y0101607D01*
X0015562Y0101648D01*
X0015578Y0101689D01*
X0015033Y0101300D02*
X0014988Y0101302D01*
X0014944Y0101307D01*
X0014900Y0101316D01*
X0014857Y0101327D01*
X0014815Y0101343D01*
X0014775Y0101361D01*
X0014736Y0101383D01*
X0014698Y0101407D01*
X0014663Y0101435D01*
X0014630Y0101465D01*
X0014599Y0101497D01*
X0014571Y0101532D01*
X0014546Y0101569D01*
X0014524Y0101607D01*
X0014504Y0101648D01*
X0014488Y0101689D01*
X0015578Y0101689D02*
X0015618Y0101775D01*
X0015654Y0101863D01*
X0015687Y0101953D01*
X0015716Y0102043D01*
X0015741Y0102135D01*
X0015762Y0102228D01*
X0015780Y0102321D01*
X0015793Y0102415D01*
X0015803Y0102510D01*
X0015809Y0102605D01*
X0015811Y0102700D01*
X0014256Y0102700D02*
X0014258Y0102795D01*
X0014264Y0102890D01*
X0014274Y0102985D01*
X0014287Y0103079D01*
X0014305Y0103172D01*
X0014326Y0103265D01*
X0014351Y0103357D01*
X0014380Y0103447D01*
X0014413Y0103537D01*
X0014449Y0103625D01*
X0014489Y0103711D01*
X0015033Y0104100D02*
X0015078Y0104098D01*
X0015122Y0104093D01*
X0015166Y0104084D01*
X0015209Y0104073D01*
X0015251Y0104057D01*
X0015291Y0104039D01*
X0015330Y0104017D01*
X0015368Y0103993D01*
X0015403Y0103965D01*
X0015436Y0103935D01*
X0015467Y0103903D01*
X0015495Y0103868D01*
X0015520Y0103831D01*
X0015542Y0103793D01*
X0015562Y0103752D01*
X0015578Y0103711D01*
X0015033Y0104100D02*
X0014988Y0104098D01*
X0014944Y0104093D01*
X0014900Y0104084D01*
X0014857Y0104073D01*
X0014815Y0104057D01*
X0014775Y0104039D01*
X0014736Y0104017D01*
X0014698Y0103993D01*
X0014663Y0103965D01*
X0014630Y0103935D01*
X0014599Y0103903D01*
X0014571Y0103868D01*
X0014546Y0103831D01*
X0014524Y0103793D01*
X0014504Y0103752D01*
X0014488Y0103711D01*
X0012333Y0104100D02*
X0013267Y0101300D01*
X0013033Y0102000D02*
X0011633Y0102000D01*
X0011400Y0101300D02*
X0012333Y0104100D01*
X0012956Y0111300D02*
X0012333Y0112544D01*
X0012178Y0112544D02*
X0011400Y0112544D01*
X0012178Y0112544D02*
X0012234Y0112546D01*
X0012289Y0112552D01*
X0012343Y0112562D01*
X0012397Y0112576D01*
X0012450Y0112593D01*
X0012501Y0112614D01*
X0012551Y0112639D01*
X0012599Y0112668D01*
X0012644Y0112699D01*
X0012687Y0112734D01*
X0012728Y0112772D01*
X0012766Y0112813D01*
X0012801Y0112856D01*
X0012832Y0112901D01*
X0012861Y0112949D01*
X0012886Y0112999D01*
X0012907Y0113050D01*
X0012924Y0113103D01*
X0012938Y0113157D01*
X0012948Y0113211D01*
X0012954Y0113266D01*
X0012956Y0113322D01*
X0012954Y0113378D01*
X0012948Y0113433D01*
X0012938Y0113487D01*
X0012924Y0113541D01*
X0012907Y0113594D01*
X0012886Y0113645D01*
X0012861Y0113695D01*
X0012832Y0113743D01*
X0012801Y0113788D01*
X0012766Y0113831D01*
X0012728Y0113872D01*
X0012687Y0113910D01*
X0012644Y0113945D01*
X0012599Y0113976D01*
X0012551Y0114005D01*
X0012501Y0114030D01*
X0012450Y0114051D01*
X0012397Y0114068D01*
X0012343Y0114082D01*
X0012289Y0114092D01*
X0012234Y0114098D01*
X0012178Y0114100D01*
X0011400Y0114100D01*
X0011400Y0111300D01*
X0014383Y0112933D02*
X0015238Y0112467D01*
X0014927Y0111300D02*
X0014858Y0111302D01*
X0014789Y0111307D01*
X0014720Y0111316D01*
X0014652Y0111329D01*
X0014585Y0111345D01*
X0014519Y0111365D01*
X0014454Y0111388D01*
X0014390Y0111415D01*
X0014328Y0111445D01*
X0014267Y0111478D01*
X0014208Y0111514D01*
X0014151Y0111554D01*
X0014096Y0111596D01*
X0014044Y0111641D01*
X0013994Y0111689D01*
X0015239Y0112466D02*
X0015278Y0112441D01*
X0015316Y0112413D01*
X0015351Y0112382D01*
X0015384Y0112349D01*
X0015414Y0112313D01*
X0015442Y0112275D01*
X0015467Y0112236D01*
X0015488Y0112194D01*
X0015507Y0112151D01*
X0015522Y0112107D01*
X0015534Y0112061D01*
X0015543Y0112015D01*
X0015548Y0111969D01*
X0015550Y0111922D01*
X0015549Y0111922D02*
X0015547Y0111873D01*
X0015541Y0111825D01*
X0015532Y0111777D01*
X0015519Y0111730D01*
X0015502Y0111684D01*
X0015481Y0111640D01*
X0015457Y0111597D01*
X0015430Y0111556D01*
X0015400Y0111518D01*
X0015367Y0111482D01*
X0015331Y0111449D01*
X0015293Y0111419D01*
X0015252Y0111392D01*
X0015209Y0111368D01*
X0015165Y0111347D01*
X0015119Y0111330D01*
X0015072Y0111317D01*
X0015024Y0111308D01*
X0014976Y0111302D01*
X0014927Y0111300D01*
X0015394Y0113867D02*
X0015343Y0113903D01*
X0015290Y0113936D01*
X0015236Y0113967D01*
X0015179Y0113994D01*
X0015122Y0114019D01*
X0015063Y0114040D01*
X0015003Y0114058D01*
X0014942Y0114073D01*
X0014881Y0114085D01*
X0014819Y0114093D01*
X0014757Y0114098D01*
X0014694Y0114100D01*
X0014645Y0114098D01*
X0014597Y0114092D01*
X0014549Y0114083D01*
X0014502Y0114070D01*
X0014456Y0114053D01*
X0014412Y0114032D01*
X0014369Y0114008D01*
X0014328Y0113981D01*
X0014290Y0113951D01*
X0014254Y0113918D01*
X0014221Y0113882D01*
X0014191Y0113844D01*
X0014164Y0113803D01*
X0014140Y0113760D01*
X0014119Y0113716D01*
X0014102Y0113670D01*
X0014089Y0113623D01*
X0014080Y0113575D01*
X0014074Y0113527D01*
X0014072Y0113478D01*
X0014074Y0113431D01*
X0014079Y0113385D01*
X0014088Y0113339D01*
X0014100Y0113293D01*
X0014115Y0113249D01*
X0014134Y0113206D01*
X0014155Y0113164D01*
X0014180Y0113125D01*
X0014208Y0113087D01*
X0014238Y0113051D01*
X0014271Y0113018D01*
X0014306Y0112987D01*
X0014344Y0112959D01*
X0014383Y0112934D01*
X0016424Y0114100D02*
X0017980Y0114100D01*
X0017202Y0114100D02*
X0017202Y0111300D01*
X0028600Y0107200D02*
X0029822Y0107200D01*
X0029211Y0107200D02*
X0029211Y0105000D01*
X0030710Y0105000D02*
X0030710Y0107200D01*
X0031443Y0105978D01*
X0032176Y0107200D01*
X0032176Y0105000D01*
X0033313Y0105000D02*
X0033313Y0107200D01*
X0033924Y0107200D01*
X0033972Y0107198D01*
X0034020Y0107192D01*
X0034067Y0107183D01*
X0034113Y0107170D01*
X0034158Y0107153D01*
X0034201Y0107133D01*
X0034243Y0107110D01*
X0034283Y0107083D01*
X0034321Y0107054D01*
X0034356Y0107021D01*
X0034389Y0106986D01*
X0034418Y0106948D01*
X0034445Y0106908D01*
X0034468Y0106866D01*
X0034488Y0106823D01*
X0034505Y0106778D01*
X0034518Y0106732D01*
X0034527Y0106685D01*
X0034533Y0106637D01*
X0034535Y0106589D01*
X0034533Y0106541D01*
X0034527Y0106493D01*
X0034518Y0106446D01*
X0034505Y0106400D01*
X0034488Y0106355D01*
X0034468Y0106312D01*
X0034445Y0106270D01*
X0034418Y0106230D01*
X0034389Y0106192D01*
X0034356Y0106157D01*
X0034321Y0106124D01*
X0034283Y0106095D01*
X0034243Y0106068D01*
X0034201Y0106045D01*
X0034158Y0106025D01*
X0034113Y0106008D01*
X0034067Y0105995D01*
X0034020Y0105986D01*
X0033972Y0105980D01*
X0033924Y0105978D01*
X0033313Y0105978D01*
X0014190Y0092700D02*
X0014192Y0092605D01*
X0014198Y0092510D01*
X0014208Y0092415D01*
X0014221Y0092321D01*
X0014239Y0092228D01*
X0014260Y0092135D01*
X0014285Y0092043D01*
X0014314Y0091953D01*
X0014347Y0091863D01*
X0014383Y0091775D01*
X0014423Y0091689D01*
X0014346Y0091922D02*
X0015590Y0093478D01*
X0015513Y0093711D02*
X0015497Y0093752D01*
X0015477Y0093793D01*
X0015455Y0093831D01*
X0015430Y0093868D01*
X0015402Y0093903D01*
X0015371Y0093935D01*
X0015338Y0093965D01*
X0015303Y0093993D01*
X0015265Y0094017D01*
X0015226Y0094039D01*
X0015186Y0094057D01*
X0015144Y0094073D01*
X0015101Y0094084D01*
X0015057Y0094093D01*
X0015013Y0094098D01*
X0014968Y0094100D01*
X0014923Y0094098D01*
X0014879Y0094093D01*
X0014835Y0094084D01*
X0014792Y0094073D01*
X0014750Y0094057D01*
X0014710Y0094039D01*
X0014671Y0094017D01*
X0014633Y0093993D01*
X0014598Y0093965D01*
X0014565Y0093935D01*
X0014534Y0093903D01*
X0014506Y0093868D01*
X0014481Y0093831D01*
X0014459Y0093793D01*
X0014439Y0093752D01*
X0014423Y0093711D01*
X0015512Y0093711D02*
X0015552Y0093625D01*
X0015588Y0093537D01*
X0015621Y0093447D01*
X0015650Y0093357D01*
X0015675Y0093265D01*
X0015696Y0093172D01*
X0015714Y0093079D01*
X0015727Y0092985D01*
X0015737Y0092890D01*
X0015743Y0092795D01*
X0015745Y0092700D01*
X0014190Y0092700D02*
X0014192Y0092795D01*
X0014198Y0092890D01*
X0014208Y0092985D01*
X0014221Y0093079D01*
X0014239Y0093172D01*
X0014260Y0093265D01*
X0014285Y0093357D01*
X0014314Y0093447D01*
X0014347Y0093537D01*
X0014383Y0093625D01*
X0014423Y0093711D01*
X0015745Y0092700D02*
X0015743Y0092605D01*
X0015737Y0092510D01*
X0015727Y0092415D01*
X0015714Y0092321D01*
X0015696Y0092228D01*
X0015675Y0092135D01*
X0015650Y0092043D01*
X0015621Y0091953D01*
X0015588Y0091863D01*
X0015552Y0091775D01*
X0015512Y0091689D01*
X0015513Y0091689D02*
X0015497Y0091648D01*
X0015477Y0091607D01*
X0015455Y0091569D01*
X0015430Y0091532D01*
X0015402Y0091497D01*
X0015371Y0091465D01*
X0015338Y0091435D01*
X0015303Y0091407D01*
X0015265Y0091383D01*
X0015226Y0091361D01*
X0015186Y0091343D01*
X0015144Y0091327D01*
X0015101Y0091316D01*
X0015057Y0091307D01*
X0015013Y0091302D01*
X0014968Y0091300D01*
X0014923Y0091302D01*
X0014879Y0091307D01*
X0014835Y0091316D01*
X0014792Y0091327D01*
X0014750Y0091343D01*
X0014710Y0091361D01*
X0014671Y0091383D01*
X0014633Y0091407D01*
X0014598Y0091435D01*
X0014565Y0091465D01*
X0014534Y0091497D01*
X0014506Y0091532D01*
X0014481Y0091569D01*
X0014459Y0091607D01*
X0014439Y0091648D01*
X0014423Y0091689D01*
X0012956Y0092078D02*
X0012956Y0093322D01*
X0012954Y0093378D01*
X0012948Y0093433D01*
X0012938Y0093487D01*
X0012924Y0093541D01*
X0012907Y0093594D01*
X0012886Y0093645D01*
X0012861Y0093695D01*
X0012832Y0093743D01*
X0012801Y0093788D01*
X0012766Y0093831D01*
X0012728Y0093872D01*
X0012687Y0093910D01*
X0012644Y0093945D01*
X0012599Y0093976D01*
X0012551Y0094005D01*
X0012501Y0094030D01*
X0012450Y0094051D01*
X0012397Y0094068D01*
X0012343Y0094082D01*
X0012289Y0094092D01*
X0012234Y0094098D01*
X0012178Y0094100D01*
X0011400Y0094100D01*
X0011400Y0091300D01*
X0012178Y0091300D01*
X0012231Y0091302D01*
X0012284Y0091307D01*
X0012336Y0091316D01*
X0012388Y0091329D01*
X0012439Y0091345D01*
X0012488Y0091364D01*
X0012536Y0091387D01*
X0012582Y0091413D01*
X0012627Y0091442D01*
X0012669Y0091474D01*
X0012709Y0091509D01*
X0012747Y0091547D01*
X0012782Y0091587D01*
X0012814Y0091629D01*
X0012843Y0091674D01*
X0012869Y0091720D01*
X0012892Y0091768D01*
X0012911Y0091817D01*
X0012927Y0091868D01*
X0012940Y0091920D01*
X0012949Y0091972D01*
X0012954Y0092025D01*
X0012956Y0092078D01*
X0012178Y0084100D02*
X0011400Y0084100D01*
X0011400Y0081300D01*
X0012178Y0081300D01*
X0012231Y0081302D01*
X0012284Y0081307D01*
X0012336Y0081316D01*
X0012388Y0081329D01*
X0012439Y0081345D01*
X0012488Y0081364D01*
X0012536Y0081387D01*
X0012582Y0081413D01*
X0012627Y0081442D01*
X0012669Y0081474D01*
X0012709Y0081509D01*
X0012747Y0081547D01*
X0012782Y0081587D01*
X0012814Y0081629D01*
X0012843Y0081674D01*
X0012869Y0081720D01*
X0012892Y0081768D01*
X0012911Y0081817D01*
X0012927Y0081868D01*
X0012940Y0081920D01*
X0012949Y0081972D01*
X0012954Y0082025D01*
X0012956Y0082078D01*
X0012956Y0083322D01*
X0012954Y0083378D01*
X0012948Y0083433D01*
X0012938Y0083487D01*
X0012924Y0083541D01*
X0012907Y0083594D01*
X0012886Y0083645D01*
X0012861Y0083695D01*
X0012832Y0083743D01*
X0012801Y0083788D01*
X0012766Y0083831D01*
X0012728Y0083872D01*
X0012687Y0083910D01*
X0012644Y0083945D01*
X0012599Y0083976D01*
X0012551Y0084005D01*
X0012501Y0084030D01*
X0012450Y0084051D01*
X0012397Y0084068D01*
X0012343Y0084082D01*
X0012289Y0084092D01*
X0012234Y0084098D01*
X0012178Y0084100D01*
X0014190Y0084100D02*
X0014190Y0082856D01*
X0015123Y0082856D01*
X0015123Y0082855D02*
X0015172Y0082853D01*
X0015220Y0082847D01*
X0015268Y0082838D01*
X0015315Y0082825D01*
X0015361Y0082808D01*
X0015405Y0082787D01*
X0015448Y0082763D01*
X0015489Y0082736D01*
X0015527Y0082706D01*
X0015563Y0082673D01*
X0015596Y0082637D01*
X0015626Y0082599D01*
X0015653Y0082558D01*
X0015677Y0082515D01*
X0015698Y0082471D01*
X0015715Y0082425D01*
X0015728Y0082378D01*
X0015737Y0082330D01*
X0015743Y0082282D01*
X0015745Y0082233D01*
X0015746Y0082233D02*
X0015746Y0081922D01*
X0015745Y0081922D02*
X0015743Y0081873D01*
X0015737Y0081825D01*
X0015728Y0081777D01*
X0015715Y0081730D01*
X0015698Y0081684D01*
X0015677Y0081640D01*
X0015653Y0081597D01*
X0015626Y0081556D01*
X0015596Y0081518D01*
X0015563Y0081482D01*
X0015527Y0081449D01*
X0015489Y0081419D01*
X0015448Y0081392D01*
X0015405Y0081368D01*
X0015361Y0081347D01*
X0015315Y0081330D01*
X0015268Y0081317D01*
X0015220Y0081308D01*
X0015172Y0081302D01*
X0015123Y0081300D01*
X0014190Y0081300D01*
X0014190Y0084100D02*
X0015746Y0084100D01*
X0012178Y0074100D02*
X0011400Y0074100D01*
X0011400Y0071300D01*
X0012178Y0071300D01*
X0012231Y0071302D01*
X0012284Y0071307D01*
X0012336Y0071316D01*
X0012388Y0071329D01*
X0012439Y0071345D01*
X0012488Y0071364D01*
X0012536Y0071387D01*
X0012582Y0071413D01*
X0012627Y0071442D01*
X0012669Y0071474D01*
X0012709Y0071509D01*
X0012747Y0071547D01*
X0012782Y0071587D01*
X0012814Y0071629D01*
X0012843Y0071674D01*
X0012869Y0071720D01*
X0012892Y0071768D01*
X0012911Y0071817D01*
X0012927Y0071868D01*
X0012940Y0071920D01*
X0012949Y0071972D01*
X0012954Y0072025D01*
X0012956Y0072078D01*
X0012956Y0073322D01*
X0012954Y0073378D01*
X0012948Y0073433D01*
X0012938Y0073487D01*
X0012924Y0073541D01*
X0012907Y0073594D01*
X0012886Y0073645D01*
X0012861Y0073695D01*
X0012832Y0073743D01*
X0012801Y0073788D01*
X0012766Y0073831D01*
X0012728Y0073872D01*
X0012687Y0073910D01*
X0012644Y0073945D01*
X0012599Y0073976D01*
X0012551Y0074005D01*
X0012501Y0074030D01*
X0012450Y0074051D01*
X0012397Y0074068D01*
X0012343Y0074082D01*
X0012289Y0074092D01*
X0012234Y0074098D01*
X0012178Y0074100D01*
X0014190Y0072856D02*
X0014190Y0072078D01*
X0014190Y0072856D02*
X0015123Y0072856D01*
X0014190Y0072856D02*
X0014192Y0072926D01*
X0014198Y0072995D01*
X0014208Y0073064D01*
X0014221Y0073133D01*
X0014239Y0073200D01*
X0014260Y0073267D01*
X0014285Y0073332D01*
X0014313Y0073396D01*
X0014345Y0073458D01*
X0014381Y0073518D01*
X0014419Y0073576D01*
X0014461Y0073632D01*
X0014506Y0073685D01*
X0014554Y0073736D01*
X0014605Y0073784D01*
X0014658Y0073829D01*
X0014714Y0073871D01*
X0014772Y0073909D01*
X0014832Y0073945D01*
X0014894Y0073977D01*
X0014958Y0074005D01*
X0015023Y0074030D01*
X0015090Y0074051D01*
X0015157Y0074069D01*
X0015226Y0074082D01*
X0015295Y0074092D01*
X0015364Y0074098D01*
X0015434Y0074100D01*
X0015123Y0072855D02*
X0015172Y0072853D01*
X0015220Y0072847D01*
X0015268Y0072838D01*
X0015315Y0072825D01*
X0015361Y0072808D01*
X0015405Y0072787D01*
X0015448Y0072763D01*
X0015489Y0072736D01*
X0015527Y0072706D01*
X0015563Y0072673D01*
X0015596Y0072637D01*
X0015626Y0072599D01*
X0015653Y0072558D01*
X0015677Y0072515D01*
X0015698Y0072471D01*
X0015715Y0072425D01*
X0015728Y0072378D01*
X0015737Y0072330D01*
X0015743Y0072282D01*
X0015745Y0072233D01*
X0015746Y0072233D02*
X0015746Y0072078D01*
X0015744Y0072022D01*
X0015738Y0071967D01*
X0015728Y0071913D01*
X0015714Y0071859D01*
X0015697Y0071806D01*
X0015676Y0071755D01*
X0015651Y0071705D01*
X0015622Y0071657D01*
X0015591Y0071612D01*
X0015556Y0071569D01*
X0015518Y0071528D01*
X0015477Y0071490D01*
X0015434Y0071455D01*
X0015389Y0071424D01*
X0015341Y0071395D01*
X0015291Y0071370D01*
X0015240Y0071349D01*
X0015187Y0071332D01*
X0015133Y0071318D01*
X0015079Y0071308D01*
X0015024Y0071302D01*
X0014968Y0071300D01*
X0014912Y0071302D01*
X0014857Y0071308D01*
X0014803Y0071318D01*
X0014749Y0071332D01*
X0014696Y0071349D01*
X0014645Y0071370D01*
X0014595Y0071395D01*
X0014547Y0071424D01*
X0014502Y0071455D01*
X0014459Y0071490D01*
X0014418Y0071528D01*
X0014380Y0071569D01*
X0014345Y0071612D01*
X0014314Y0071657D01*
X0014285Y0071705D01*
X0014260Y0071755D01*
X0014239Y0071806D01*
X0014222Y0071859D01*
X0014208Y0071913D01*
X0014198Y0071967D01*
X0014192Y0072022D01*
X0014190Y0072078D01*
X0014190Y0064100D02*
X0015746Y0064100D01*
X0014968Y0061300D01*
X0012956Y0062078D02*
X0012956Y0063322D01*
X0012954Y0063378D01*
X0012948Y0063433D01*
X0012938Y0063487D01*
X0012924Y0063541D01*
X0012907Y0063594D01*
X0012886Y0063645D01*
X0012861Y0063695D01*
X0012832Y0063743D01*
X0012801Y0063788D01*
X0012766Y0063831D01*
X0012728Y0063872D01*
X0012687Y0063910D01*
X0012644Y0063945D01*
X0012599Y0063976D01*
X0012551Y0064005D01*
X0012501Y0064030D01*
X0012450Y0064051D01*
X0012397Y0064068D01*
X0012343Y0064082D01*
X0012289Y0064092D01*
X0012234Y0064098D01*
X0012178Y0064100D01*
X0011400Y0064100D01*
X0011400Y0061300D01*
X0012178Y0061300D01*
X0012231Y0061302D01*
X0012284Y0061307D01*
X0012336Y0061316D01*
X0012388Y0061329D01*
X0012439Y0061345D01*
X0012488Y0061364D01*
X0012536Y0061387D01*
X0012582Y0061413D01*
X0012627Y0061442D01*
X0012669Y0061474D01*
X0012709Y0061509D01*
X0012747Y0061547D01*
X0012782Y0061587D01*
X0012814Y0061629D01*
X0012843Y0061674D01*
X0012869Y0061720D01*
X0012892Y0061768D01*
X0012911Y0061817D01*
X0012927Y0061868D01*
X0012940Y0061920D01*
X0012949Y0061972D01*
X0012954Y0062025D01*
X0012956Y0062078D01*
X0014190Y0063789D02*
X0014190Y0064100D01*
X0012178Y0054100D02*
X0011400Y0054100D01*
X0011400Y0051300D01*
X0012178Y0051300D01*
X0012231Y0051302D01*
X0012284Y0051307D01*
X0012336Y0051316D01*
X0012388Y0051329D01*
X0012439Y0051345D01*
X0012488Y0051364D01*
X0012536Y0051387D01*
X0012582Y0051413D01*
X0012627Y0051442D01*
X0012669Y0051474D01*
X0012709Y0051509D01*
X0012747Y0051547D01*
X0012782Y0051587D01*
X0012814Y0051629D01*
X0012843Y0051674D01*
X0012869Y0051720D01*
X0012892Y0051768D01*
X0012911Y0051817D01*
X0012927Y0051868D01*
X0012940Y0051920D01*
X0012949Y0051972D01*
X0012954Y0052025D01*
X0012956Y0052078D01*
X0012956Y0053322D01*
X0012954Y0053378D01*
X0012948Y0053433D01*
X0012938Y0053487D01*
X0012924Y0053541D01*
X0012907Y0053594D01*
X0012886Y0053645D01*
X0012861Y0053695D01*
X0012832Y0053743D01*
X0012801Y0053788D01*
X0012766Y0053831D01*
X0012728Y0053872D01*
X0012687Y0053910D01*
X0012644Y0053945D01*
X0012599Y0053976D01*
X0012551Y0054005D01*
X0012501Y0054030D01*
X0012450Y0054051D01*
X0012397Y0054068D01*
X0012343Y0054082D01*
X0012289Y0054092D01*
X0012234Y0054098D01*
X0012178Y0054100D01*
X0014346Y0053478D02*
X0014348Y0053429D01*
X0014354Y0053381D01*
X0014363Y0053333D01*
X0014376Y0053286D01*
X0014393Y0053240D01*
X0014414Y0053196D01*
X0014438Y0053153D01*
X0014465Y0053112D01*
X0014495Y0053074D01*
X0014528Y0053038D01*
X0014564Y0053005D01*
X0014602Y0052975D01*
X0014643Y0052948D01*
X0014686Y0052924D01*
X0014730Y0052903D01*
X0014776Y0052886D01*
X0014823Y0052873D01*
X0014871Y0052864D01*
X0014919Y0052858D01*
X0014968Y0052856D01*
X0015017Y0052858D01*
X0015065Y0052864D01*
X0015113Y0052873D01*
X0015160Y0052886D01*
X0015206Y0052903D01*
X0015250Y0052924D01*
X0015293Y0052948D01*
X0015334Y0052975D01*
X0015372Y0053005D01*
X0015408Y0053038D01*
X0015441Y0053074D01*
X0015471Y0053112D01*
X0015498Y0053153D01*
X0015522Y0053196D01*
X0015543Y0053240D01*
X0015560Y0053286D01*
X0015573Y0053333D01*
X0015582Y0053381D01*
X0015588Y0053429D01*
X0015590Y0053478D01*
X0015588Y0053527D01*
X0015582Y0053575D01*
X0015573Y0053623D01*
X0015560Y0053670D01*
X0015543Y0053716D01*
X0015522Y0053760D01*
X0015498Y0053803D01*
X0015471Y0053844D01*
X0015441Y0053882D01*
X0015408Y0053918D01*
X0015372Y0053951D01*
X0015334Y0053981D01*
X0015293Y0054008D01*
X0015250Y0054032D01*
X0015206Y0054053D01*
X0015160Y0054070D01*
X0015113Y0054083D01*
X0015065Y0054092D01*
X0015017Y0054098D01*
X0014968Y0054100D01*
X0014919Y0054098D01*
X0014871Y0054092D01*
X0014823Y0054083D01*
X0014776Y0054070D01*
X0014730Y0054053D01*
X0014686Y0054032D01*
X0014643Y0054008D01*
X0014602Y0053981D01*
X0014564Y0053951D01*
X0014528Y0053918D01*
X0014495Y0053882D01*
X0014465Y0053844D01*
X0014438Y0053803D01*
X0014414Y0053760D01*
X0014393Y0053716D01*
X0014376Y0053670D01*
X0014363Y0053623D01*
X0014354Y0053575D01*
X0014348Y0053527D01*
X0014346Y0053478D01*
X0014190Y0052078D02*
X0014192Y0052022D01*
X0014198Y0051967D01*
X0014208Y0051913D01*
X0014222Y0051859D01*
X0014239Y0051806D01*
X0014260Y0051755D01*
X0014285Y0051705D01*
X0014314Y0051657D01*
X0014345Y0051612D01*
X0014380Y0051569D01*
X0014418Y0051528D01*
X0014459Y0051490D01*
X0014502Y0051455D01*
X0014547Y0051424D01*
X0014595Y0051395D01*
X0014645Y0051370D01*
X0014696Y0051349D01*
X0014749Y0051332D01*
X0014803Y0051318D01*
X0014857Y0051308D01*
X0014912Y0051302D01*
X0014968Y0051300D01*
X0015024Y0051302D01*
X0015079Y0051308D01*
X0015133Y0051318D01*
X0015187Y0051332D01*
X0015240Y0051349D01*
X0015291Y0051370D01*
X0015341Y0051395D01*
X0015389Y0051424D01*
X0015434Y0051455D01*
X0015477Y0051490D01*
X0015518Y0051528D01*
X0015556Y0051569D01*
X0015591Y0051612D01*
X0015622Y0051657D01*
X0015651Y0051705D01*
X0015676Y0051755D01*
X0015697Y0051806D01*
X0015714Y0051859D01*
X0015728Y0051913D01*
X0015738Y0051967D01*
X0015744Y0052022D01*
X0015746Y0052078D01*
X0015744Y0052134D01*
X0015738Y0052189D01*
X0015728Y0052243D01*
X0015714Y0052297D01*
X0015697Y0052350D01*
X0015676Y0052401D01*
X0015651Y0052451D01*
X0015622Y0052499D01*
X0015591Y0052544D01*
X0015556Y0052587D01*
X0015518Y0052628D01*
X0015477Y0052666D01*
X0015434Y0052701D01*
X0015389Y0052732D01*
X0015341Y0052761D01*
X0015291Y0052786D01*
X0015240Y0052807D01*
X0015187Y0052824D01*
X0015133Y0052838D01*
X0015079Y0052848D01*
X0015024Y0052854D01*
X0014968Y0052856D01*
X0014912Y0052854D01*
X0014857Y0052848D01*
X0014803Y0052838D01*
X0014749Y0052824D01*
X0014696Y0052807D01*
X0014645Y0052786D01*
X0014595Y0052761D01*
X0014547Y0052732D01*
X0014502Y0052701D01*
X0014459Y0052666D01*
X0014418Y0052628D01*
X0014380Y0052587D01*
X0014345Y0052544D01*
X0014314Y0052499D01*
X0014285Y0052451D01*
X0014260Y0052401D01*
X0014239Y0052350D01*
X0014222Y0052297D01*
X0014208Y0052243D01*
X0014198Y0052189D01*
X0014192Y0052134D01*
X0014190Y0052078D01*
X0013944Y0044100D02*
X0014878Y0041300D01*
X0015811Y0044100D01*
X0016800Y0044100D02*
X0017733Y0044100D01*
X0017782Y0044098D01*
X0017830Y0044092D01*
X0017878Y0044083D01*
X0017925Y0044070D01*
X0017971Y0044053D01*
X0018015Y0044032D01*
X0018058Y0044008D01*
X0018099Y0043981D01*
X0018137Y0043951D01*
X0018173Y0043918D01*
X0018206Y0043882D01*
X0018236Y0043844D01*
X0018263Y0043803D01*
X0018287Y0043760D01*
X0018308Y0043716D01*
X0018325Y0043670D01*
X0018338Y0043623D01*
X0018347Y0043575D01*
X0018353Y0043527D01*
X0018355Y0043478D01*
X0018353Y0043429D01*
X0018347Y0043381D01*
X0018338Y0043333D01*
X0018325Y0043286D01*
X0018308Y0043240D01*
X0018287Y0043196D01*
X0018263Y0043153D01*
X0018236Y0043112D01*
X0018206Y0043074D01*
X0018173Y0043038D01*
X0018137Y0043005D01*
X0018099Y0042975D01*
X0018058Y0042948D01*
X0018015Y0042924D01*
X0017971Y0042903D01*
X0017925Y0042886D01*
X0017878Y0042873D01*
X0017830Y0042864D01*
X0017782Y0042858D01*
X0017733Y0042856D01*
X0017111Y0042856D01*
X0017578Y0042856D02*
X0017634Y0042854D01*
X0017689Y0042848D01*
X0017743Y0042838D01*
X0017797Y0042824D01*
X0017850Y0042807D01*
X0017901Y0042786D01*
X0017951Y0042761D01*
X0017999Y0042732D01*
X0018044Y0042701D01*
X0018087Y0042666D01*
X0018128Y0042628D01*
X0018166Y0042587D01*
X0018201Y0042544D01*
X0018232Y0042499D01*
X0018261Y0042451D01*
X0018286Y0042401D01*
X0018307Y0042350D01*
X0018324Y0042297D01*
X0018338Y0042243D01*
X0018348Y0042189D01*
X0018354Y0042134D01*
X0018356Y0042078D01*
X0018354Y0042022D01*
X0018348Y0041967D01*
X0018338Y0041913D01*
X0018324Y0041859D01*
X0018307Y0041806D01*
X0018286Y0041755D01*
X0018261Y0041705D01*
X0018232Y0041657D01*
X0018201Y0041612D01*
X0018166Y0041569D01*
X0018128Y0041528D01*
X0018087Y0041490D01*
X0018044Y0041455D01*
X0017999Y0041424D01*
X0017951Y0041395D01*
X0017901Y0041370D01*
X0017850Y0041349D01*
X0017797Y0041332D01*
X0017743Y0041318D01*
X0017689Y0041308D01*
X0017634Y0041302D01*
X0017578Y0041300D01*
X0016800Y0041300D01*
X0012333Y0042856D02*
X0011711Y0042856D01*
X0012333Y0042856D02*
X0012382Y0042858D01*
X0012430Y0042864D01*
X0012478Y0042873D01*
X0012525Y0042886D01*
X0012571Y0042903D01*
X0012615Y0042924D01*
X0012658Y0042948D01*
X0012699Y0042975D01*
X0012737Y0043005D01*
X0012773Y0043038D01*
X0012806Y0043074D01*
X0012836Y0043112D01*
X0012863Y0043153D01*
X0012887Y0043196D01*
X0012908Y0043240D01*
X0012925Y0043286D01*
X0012938Y0043333D01*
X0012947Y0043381D01*
X0012953Y0043429D01*
X0012955Y0043478D01*
X0012953Y0043527D01*
X0012947Y0043575D01*
X0012938Y0043623D01*
X0012925Y0043670D01*
X0012908Y0043716D01*
X0012887Y0043760D01*
X0012863Y0043803D01*
X0012836Y0043844D01*
X0012806Y0043882D01*
X0012773Y0043918D01*
X0012737Y0043951D01*
X0012699Y0043981D01*
X0012658Y0044008D01*
X0012615Y0044032D01*
X0012571Y0044053D01*
X0012525Y0044070D01*
X0012478Y0044083D01*
X0012430Y0044092D01*
X0012382Y0044098D01*
X0012333Y0044100D01*
X0011400Y0044100D01*
X0012178Y0042856D02*
X0012234Y0042854D01*
X0012289Y0042848D01*
X0012343Y0042838D01*
X0012397Y0042824D01*
X0012450Y0042807D01*
X0012501Y0042786D01*
X0012551Y0042761D01*
X0012599Y0042732D01*
X0012644Y0042701D01*
X0012687Y0042666D01*
X0012728Y0042628D01*
X0012766Y0042587D01*
X0012801Y0042544D01*
X0012832Y0042499D01*
X0012861Y0042451D01*
X0012886Y0042401D01*
X0012907Y0042350D01*
X0012924Y0042297D01*
X0012938Y0042243D01*
X0012948Y0042189D01*
X0012954Y0042134D01*
X0012956Y0042078D01*
X0012954Y0042022D01*
X0012948Y0041967D01*
X0012938Y0041913D01*
X0012924Y0041859D01*
X0012907Y0041806D01*
X0012886Y0041755D01*
X0012861Y0041705D01*
X0012832Y0041657D01*
X0012801Y0041612D01*
X0012766Y0041569D01*
X0012728Y0041528D01*
X0012687Y0041490D01*
X0012644Y0041455D01*
X0012599Y0041424D01*
X0012551Y0041395D01*
X0012501Y0041370D01*
X0012450Y0041349D01*
X0012397Y0041332D01*
X0012343Y0041318D01*
X0012289Y0041308D01*
X0012234Y0041302D01*
X0012178Y0041300D01*
X0011400Y0041300D01*
X0014211Y0032900D02*
X0015189Y0032900D01*
X0015237Y0032898D01*
X0015285Y0032892D01*
X0015332Y0032883D01*
X0015378Y0032870D01*
X0015423Y0032853D01*
X0015466Y0032833D01*
X0015508Y0032810D01*
X0015548Y0032783D01*
X0015586Y0032754D01*
X0015621Y0032721D01*
X0015654Y0032686D01*
X0015683Y0032648D01*
X0015710Y0032608D01*
X0015733Y0032566D01*
X0015753Y0032523D01*
X0015770Y0032478D01*
X0015783Y0032432D01*
X0015792Y0032385D01*
X0015798Y0032337D01*
X0015800Y0032289D01*
X0015800Y0031678D01*
X0013600Y0031678D01*
X0013600Y0032289D01*
X0013602Y0032337D01*
X0013608Y0032385D01*
X0013617Y0032432D01*
X0013630Y0032478D01*
X0013647Y0032523D01*
X0013667Y0032566D01*
X0013690Y0032608D01*
X0013717Y0032648D01*
X0013746Y0032686D01*
X0013779Y0032721D01*
X0013814Y0032754D01*
X0013852Y0032783D01*
X0013892Y0032810D01*
X0013934Y0032833D01*
X0013977Y0032853D01*
X0014022Y0032870D01*
X0014068Y0032883D01*
X0014115Y0032892D01*
X0014163Y0032898D01*
X0014211Y0032900D01*
X0013600Y0030596D02*
X0015800Y0030596D01*
X0013600Y0029374D01*
X0015800Y0029374D01*
X0015800Y0028292D02*
X0014578Y0028292D01*
X0014578Y0027925D01*
X0014089Y0027070D02*
X0014046Y0027072D01*
X0014004Y0027077D01*
X0013962Y0027087D01*
X0013922Y0027099D01*
X0013882Y0027116D01*
X0013845Y0027136D01*
X0013809Y0027158D01*
X0013775Y0027184D01*
X0013743Y0027213D01*
X0013714Y0027245D01*
X0013688Y0027279D01*
X0013666Y0027314D01*
X0013646Y0027352D01*
X0013629Y0027392D01*
X0013617Y0027432D01*
X0013607Y0027474D01*
X0013602Y0027516D01*
X0013600Y0027559D01*
X0013600Y0028292D01*
X0014089Y0027070D02*
X0015311Y0027070D01*
X0015354Y0027072D01*
X0015396Y0027077D01*
X0015438Y0027087D01*
X0015478Y0027099D01*
X0015518Y0027116D01*
X0015556Y0027136D01*
X0015591Y0027158D01*
X0015625Y0027184D01*
X0015657Y0027213D01*
X0015686Y0027245D01*
X0015712Y0027279D01*
X0015734Y0027315D01*
X0015754Y0027352D01*
X0015771Y0027392D01*
X0015783Y0027432D01*
X0015793Y0027474D01*
X0015798Y0027516D01*
X0015800Y0027559D01*
X0015800Y0028292D01*
X0014944Y0026038D02*
X0014944Y0024572D01*
X0015800Y0023721D02*
X0015800Y0023232D01*
X0015798Y0023189D01*
X0015793Y0023147D01*
X0015783Y0023105D01*
X0015771Y0023065D01*
X0015754Y0023025D01*
X0015734Y0022988D01*
X0015712Y0022952D01*
X0015686Y0022918D01*
X0015657Y0022886D01*
X0015625Y0022857D01*
X0015591Y0022831D01*
X0015556Y0022809D01*
X0015518Y0022789D01*
X0015478Y0022772D01*
X0015438Y0022760D01*
X0015396Y0022750D01*
X0015354Y0022745D01*
X0015311Y0022743D01*
X0014089Y0022743D01*
X0014046Y0022745D01*
X0014004Y0022750D01*
X0013962Y0022760D01*
X0013922Y0022772D01*
X0013882Y0022789D01*
X0013845Y0022809D01*
X0013809Y0022831D01*
X0013775Y0022857D01*
X0013743Y0022886D01*
X0013714Y0022918D01*
X0013688Y0022952D01*
X0013666Y0022987D01*
X0013646Y0023025D01*
X0013629Y0023065D01*
X0013617Y0023105D01*
X0013607Y0023147D01*
X0013602Y0023189D01*
X0013600Y0023232D01*
X0013600Y0023721D01*
X0013600Y0021921D02*
X0013600Y0021432D01*
X0013602Y0021389D01*
X0013607Y0021347D01*
X0013617Y0021305D01*
X0013629Y0021265D01*
X0013646Y0021225D01*
X0013666Y0021187D01*
X0013688Y0021152D01*
X0013714Y0021118D01*
X0013743Y0021086D01*
X0013775Y0021057D01*
X0013809Y0021031D01*
X0013845Y0021009D01*
X0013882Y0020989D01*
X0013922Y0020972D01*
X0013962Y0020960D01*
X0014004Y0020950D01*
X0014046Y0020945D01*
X0014089Y0020943D01*
X0015311Y0020943D01*
X0015354Y0020945D01*
X0015396Y0020950D01*
X0015438Y0020960D01*
X0015478Y0020972D01*
X0015518Y0020989D01*
X0015556Y0021009D01*
X0015591Y0021031D01*
X0015625Y0021057D01*
X0015657Y0021086D01*
X0015686Y0021118D01*
X0015712Y0021152D01*
X0015734Y0021188D01*
X0015754Y0021225D01*
X0015771Y0021265D01*
X0015783Y0021305D01*
X0015793Y0021347D01*
X0015798Y0021389D01*
X0015800Y0021432D01*
X0015800Y0021921D01*
X0015800Y0019401D02*
X0013600Y0020134D01*
X0013600Y0018668D02*
X0015800Y0019401D01*
X0014944Y0017830D02*
X0014944Y0016364D01*
X0015189Y0015332D02*
X0014211Y0015332D01*
X0014163Y0015330D01*
X0014115Y0015324D01*
X0014068Y0015315D01*
X0014022Y0015302D01*
X0013977Y0015285D01*
X0013934Y0015265D01*
X0013892Y0015242D01*
X0013852Y0015215D01*
X0013814Y0015186D01*
X0013779Y0015153D01*
X0013746Y0015118D01*
X0013717Y0015080D01*
X0013690Y0015040D01*
X0013667Y0014998D01*
X0013647Y0014955D01*
X0013630Y0014910D01*
X0013617Y0014864D01*
X0013608Y0014817D01*
X0013602Y0014769D01*
X0013600Y0014721D01*
X0013600Y0014110D01*
X0015800Y0014110D01*
X0015800Y0014721D01*
X0015798Y0014769D01*
X0015792Y0014817D01*
X0015783Y0014864D01*
X0015770Y0014910D01*
X0015753Y0014955D01*
X0015733Y0014998D01*
X0015710Y0015040D01*
X0015683Y0015080D01*
X0015654Y0015118D01*
X0015621Y0015153D01*
X0015586Y0015186D01*
X0015548Y0015215D01*
X0015508Y0015242D01*
X0015466Y0015265D01*
X0015423Y0015285D01*
X0015378Y0015302D01*
X0015332Y0015315D01*
X0015285Y0015324D01*
X0015237Y0015330D01*
X0015189Y0015332D01*
X0015800Y0013028D02*
X0013600Y0013028D01*
X0013600Y0011806D02*
X0015800Y0013028D01*
X0015800Y0011806D02*
X0013600Y0011806D01*
X0013600Y0010724D02*
X0013600Y0009991D01*
X0013602Y0009948D01*
X0013607Y0009906D01*
X0013617Y0009864D01*
X0013629Y0009824D01*
X0013646Y0009784D01*
X0013666Y0009746D01*
X0013688Y0009711D01*
X0013714Y0009677D01*
X0013743Y0009645D01*
X0013775Y0009616D01*
X0013809Y0009590D01*
X0013845Y0009568D01*
X0013882Y0009548D01*
X0013922Y0009531D01*
X0013962Y0009519D01*
X0014004Y0009509D01*
X0014046Y0009504D01*
X0014089Y0009502D01*
X0015311Y0009502D01*
X0015354Y0009504D01*
X0015396Y0009509D01*
X0015438Y0009519D01*
X0015478Y0009531D01*
X0015518Y0009548D01*
X0015556Y0009568D01*
X0015591Y0009590D01*
X0015625Y0009616D01*
X0015657Y0009645D01*
X0015686Y0009677D01*
X0015712Y0009711D01*
X0015734Y0009747D01*
X0015754Y0009784D01*
X0015771Y0009824D01*
X0015783Y0009864D01*
X0015793Y0009906D01*
X0015798Y0009948D01*
X0015800Y0009991D01*
X0015800Y0010724D01*
X0014578Y0010724D01*
X0014578Y0010357D01*
X0031300Y0010700D02*
X0031300Y0011700D01*
X0041300Y0011700D01*
X0041300Y0010700D01*
X0041300Y0033700D02*
X0031800Y0033700D01*
X0031800Y0034700D01*
X0031400Y0046800D02*
X0032378Y0046800D01*
X0033272Y0046800D02*
X0033272Y0049000D01*
X0034250Y0049000D01*
X0035140Y0049000D02*
X0035751Y0049000D01*
X0035799Y0048998D01*
X0035847Y0048992D01*
X0035894Y0048983D01*
X0035940Y0048970D01*
X0035985Y0048953D01*
X0036028Y0048933D01*
X0036070Y0048910D01*
X0036110Y0048883D01*
X0036148Y0048854D01*
X0036183Y0048821D01*
X0036216Y0048786D01*
X0036245Y0048748D01*
X0036272Y0048708D01*
X0036295Y0048666D01*
X0036315Y0048623D01*
X0036332Y0048578D01*
X0036345Y0048532D01*
X0036354Y0048485D01*
X0036360Y0048437D01*
X0036362Y0048389D01*
X0036362Y0047411D01*
X0036360Y0047363D01*
X0036354Y0047315D01*
X0036345Y0047268D01*
X0036332Y0047222D01*
X0036315Y0047177D01*
X0036295Y0047134D01*
X0036272Y0047092D01*
X0036245Y0047052D01*
X0036216Y0047014D01*
X0036183Y0046979D01*
X0036148Y0046946D01*
X0036110Y0046917D01*
X0036070Y0046890D01*
X0036028Y0046867D01*
X0035985Y0046847D01*
X0035940Y0046830D01*
X0035894Y0046817D01*
X0035847Y0046808D01*
X0035799Y0046802D01*
X0035751Y0046800D01*
X0035140Y0046800D01*
X0035140Y0049000D01*
X0034005Y0048022D02*
X0033272Y0048022D01*
X0033272Y0046800D02*
X0034250Y0046800D01*
X0031400Y0046800D02*
X0031400Y0049000D01*
X0026500Y0052989D02*
X0026500Y0053722D01*
X0025278Y0053722D01*
X0025278Y0053356D01*
X0024789Y0052500D02*
X0024746Y0052502D01*
X0024704Y0052507D01*
X0024662Y0052517D01*
X0024622Y0052529D01*
X0024582Y0052546D01*
X0024545Y0052566D01*
X0024509Y0052588D01*
X0024475Y0052614D01*
X0024443Y0052643D01*
X0024414Y0052675D01*
X0024388Y0052709D01*
X0024366Y0052744D01*
X0024346Y0052782D01*
X0024329Y0052822D01*
X0024317Y0052862D01*
X0024307Y0052904D01*
X0024302Y0052946D01*
X0024300Y0052989D01*
X0024300Y0053722D01*
X0024300Y0054804D02*
X0026500Y0056026D01*
X0024300Y0056026D01*
X0024300Y0057108D02*
X0024300Y0057719D01*
X0024300Y0057108D02*
X0026500Y0057108D01*
X0026500Y0057719D01*
X0026498Y0057767D01*
X0026492Y0057815D01*
X0026483Y0057862D01*
X0026470Y0057908D01*
X0026453Y0057953D01*
X0026433Y0057996D01*
X0026410Y0058038D01*
X0026383Y0058078D01*
X0026354Y0058116D01*
X0026321Y0058151D01*
X0026286Y0058184D01*
X0026248Y0058213D01*
X0026208Y0058240D01*
X0026166Y0058263D01*
X0026123Y0058283D01*
X0026078Y0058300D01*
X0026032Y0058313D01*
X0025985Y0058322D01*
X0025937Y0058328D01*
X0025889Y0058330D01*
X0024911Y0058330D01*
X0024863Y0058328D01*
X0024815Y0058322D01*
X0024768Y0058313D01*
X0024722Y0058300D01*
X0024677Y0058283D01*
X0024634Y0058263D01*
X0024592Y0058240D01*
X0024552Y0058213D01*
X0024514Y0058184D01*
X0024479Y0058151D01*
X0024446Y0058116D01*
X0024417Y0058078D01*
X0024390Y0058038D01*
X0024367Y0057996D01*
X0024347Y0057953D01*
X0024330Y0057908D01*
X0024317Y0057862D01*
X0024308Y0057815D01*
X0024302Y0057767D01*
X0024300Y0057719D01*
X0024300Y0054804D02*
X0026500Y0054804D01*
X0026500Y0052989D02*
X0026498Y0052946D01*
X0026493Y0052904D01*
X0026483Y0052862D01*
X0026471Y0052822D01*
X0026454Y0052782D01*
X0026434Y0052745D01*
X0026412Y0052709D01*
X0026386Y0052675D01*
X0026357Y0052643D01*
X0026325Y0052614D01*
X0026291Y0052588D01*
X0026256Y0052566D01*
X0026218Y0052546D01*
X0026178Y0052529D01*
X0026138Y0052517D01*
X0026096Y0052507D01*
X0026054Y0052502D01*
X0026011Y0052500D01*
X0024789Y0052500D01*
X0031400Y0056800D02*
X0032378Y0056800D01*
X0033272Y0056800D02*
X0033272Y0059000D01*
X0034250Y0059000D01*
X0035140Y0059000D02*
X0035140Y0056800D01*
X0035751Y0056800D01*
X0035799Y0056802D01*
X0035847Y0056808D01*
X0035894Y0056817D01*
X0035940Y0056830D01*
X0035985Y0056847D01*
X0036028Y0056867D01*
X0036070Y0056890D01*
X0036110Y0056917D01*
X0036148Y0056946D01*
X0036183Y0056979D01*
X0036216Y0057014D01*
X0036245Y0057052D01*
X0036272Y0057092D01*
X0036295Y0057134D01*
X0036315Y0057177D01*
X0036332Y0057222D01*
X0036345Y0057268D01*
X0036354Y0057315D01*
X0036360Y0057363D01*
X0036362Y0057411D01*
X0036362Y0058389D01*
X0036360Y0058437D01*
X0036354Y0058485D01*
X0036345Y0058532D01*
X0036332Y0058578D01*
X0036315Y0058623D01*
X0036295Y0058666D01*
X0036272Y0058708D01*
X0036245Y0058748D01*
X0036216Y0058786D01*
X0036183Y0058821D01*
X0036148Y0058854D01*
X0036110Y0058883D01*
X0036070Y0058910D01*
X0036028Y0058933D01*
X0035985Y0058953D01*
X0035940Y0058970D01*
X0035894Y0058983D01*
X0035847Y0058992D01*
X0035799Y0058998D01*
X0035751Y0059000D01*
X0035140Y0059000D01*
X0034005Y0058022D02*
X0033272Y0058022D01*
X0033272Y0056800D02*
X0034250Y0056800D01*
X0031400Y0056800D02*
X0031400Y0059000D01*
X0037372Y0059000D02*
X0038594Y0059000D01*
X0038105Y0058022D02*
X0037372Y0058022D01*
X0037372Y0059000D01*
X0038105Y0058022D02*
X0038148Y0058020D01*
X0038190Y0058015D01*
X0038232Y0058005D01*
X0038272Y0057993D01*
X0038312Y0057976D01*
X0038350Y0057956D01*
X0038385Y0057934D01*
X0038419Y0057908D01*
X0038451Y0057879D01*
X0038480Y0057847D01*
X0038506Y0057813D01*
X0038528Y0057778D01*
X0038548Y0057740D01*
X0038565Y0057700D01*
X0038577Y0057660D01*
X0038587Y0057618D01*
X0038592Y0057576D01*
X0038594Y0057533D01*
X0038594Y0057289D01*
X0038592Y0057246D01*
X0038587Y0057204D01*
X0038577Y0057162D01*
X0038565Y0057122D01*
X0038548Y0057082D01*
X0038528Y0057044D01*
X0038506Y0057009D01*
X0038480Y0056975D01*
X0038451Y0056943D01*
X0038419Y0056914D01*
X0038385Y0056888D01*
X0038349Y0056866D01*
X0038312Y0056846D01*
X0038272Y0056829D01*
X0038232Y0056817D01*
X0038190Y0056807D01*
X0038148Y0056802D01*
X0038105Y0056800D01*
X0037372Y0056800D01*
X0038594Y0048450D02*
X0038592Y0048402D01*
X0038586Y0048355D01*
X0038577Y0048308D01*
X0038563Y0048262D01*
X0038546Y0048217D01*
X0038526Y0048174D01*
X0038502Y0048133D01*
X0038474Y0048093D01*
X0038444Y0048056D01*
X0038411Y0048022D01*
X0038410Y0048022D02*
X0037372Y0046800D01*
X0038594Y0046800D01*
X0037371Y0048511D02*
X0037389Y0048560D01*
X0037411Y0048608D01*
X0037436Y0048654D01*
X0037464Y0048697D01*
X0037496Y0048739D01*
X0037530Y0048779D01*
X0037567Y0048815D01*
X0037607Y0048849D01*
X0037650Y0048880D01*
X0037694Y0048907D01*
X0037740Y0048931D01*
X0037788Y0048952D01*
X0037838Y0048969D01*
X0037888Y0048983D01*
X0037940Y0048992D01*
X0037992Y0048998D01*
X0038044Y0049000D01*
X0038089Y0048998D01*
X0038135Y0048992D01*
X0038179Y0048983D01*
X0038223Y0048970D01*
X0038265Y0048954D01*
X0038306Y0048934D01*
X0038345Y0048910D01*
X0038382Y0048884D01*
X0038417Y0048855D01*
X0038449Y0048823D01*
X0038478Y0048788D01*
X0038504Y0048751D01*
X0038528Y0048712D01*
X0038548Y0048671D01*
X0038564Y0048629D01*
X0038577Y0048585D01*
X0038586Y0048541D01*
X0038592Y0048495D01*
X0038594Y0048450D01*
X0041300Y0034700D02*
X0041300Y0033700D01*
X0054006Y0046400D02*
X0054984Y0046400D01*
X0055878Y0046400D02*
X0055878Y0048600D01*
X0056856Y0048600D01*
X0057746Y0048600D02*
X0057746Y0046400D01*
X0058357Y0046400D01*
X0058405Y0046402D01*
X0058453Y0046408D01*
X0058500Y0046417D01*
X0058546Y0046430D01*
X0058591Y0046447D01*
X0058634Y0046467D01*
X0058676Y0046490D01*
X0058716Y0046517D01*
X0058754Y0046546D01*
X0058789Y0046579D01*
X0058822Y0046614D01*
X0058851Y0046652D01*
X0058878Y0046692D01*
X0058901Y0046734D01*
X0058921Y0046777D01*
X0058938Y0046822D01*
X0058951Y0046868D01*
X0058960Y0046915D01*
X0058966Y0046963D01*
X0058968Y0047011D01*
X0058968Y0047989D01*
X0058966Y0048037D01*
X0058960Y0048085D01*
X0058951Y0048132D01*
X0058938Y0048178D01*
X0058921Y0048223D01*
X0058901Y0048266D01*
X0058878Y0048308D01*
X0058851Y0048348D01*
X0058822Y0048386D01*
X0058789Y0048421D01*
X0058754Y0048454D01*
X0058716Y0048483D01*
X0058676Y0048510D01*
X0058634Y0048533D01*
X0058591Y0048553D01*
X0058546Y0048570D01*
X0058500Y0048583D01*
X0058453Y0048592D01*
X0058405Y0048598D01*
X0058357Y0048600D01*
X0057746Y0048600D01*
X0056612Y0047622D02*
X0055878Y0047622D01*
X0055878Y0046400D02*
X0056856Y0046400D01*
X0054006Y0046400D02*
X0054006Y0048600D01*
X0059978Y0048111D02*
X0060589Y0048600D01*
X0060589Y0046400D01*
X0059978Y0046400D02*
X0061200Y0046400D01*
X0060833Y0056400D02*
X0060833Y0057378D01*
X0061200Y0056889D02*
X0059978Y0056889D01*
X0060467Y0058600D01*
X0058968Y0057989D02*
X0058968Y0057011D01*
X0058966Y0056963D01*
X0058960Y0056915D01*
X0058951Y0056868D01*
X0058938Y0056822D01*
X0058921Y0056777D01*
X0058901Y0056734D01*
X0058878Y0056692D01*
X0058851Y0056652D01*
X0058822Y0056614D01*
X0058789Y0056579D01*
X0058754Y0056546D01*
X0058716Y0056517D01*
X0058676Y0056490D01*
X0058634Y0056467D01*
X0058591Y0056447D01*
X0058546Y0056430D01*
X0058500Y0056417D01*
X0058453Y0056408D01*
X0058405Y0056402D01*
X0058357Y0056400D01*
X0057746Y0056400D01*
X0057746Y0058600D01*
X0058357Y0058600D01*
X0058405Y0058598D01*
X0058453Y0058592D01*
X0058500Y0058583D01*
X0058546Y0058570D01*
X0058591Y0058553D01*
X0058634Y0058533D01*
X0058676Y0058510D01*
X0058716Y0058483D01*
X0058754Y0058454D01*
X0058789Y0058421D01*
X0058822Y0058386D01*
X0058851Y0058348D01*
X0058878Y0058308D01*
X0058901Y0058266D01*
X0058921Y0058223D01*
X0058938Y0058178D01*
X0058951Y0058132D01*
X0058960Y0058085D01*
X0058966Y0058037D01*
X0058968Y0057989D01*
X0056856Y0058600D02*
X0055878Y0058600D01*
X0055878Y0056400D01*
X0056856Y0056400D01*
X0056612Y0057622D02*
X0055878Y0057622D01*
X0054984Y0056400D02*
X0054006Y0056400D01*
X0054006Y0058600D01*
X0061100Y0105000D02*
X0061344Y0105000D01*
X0061387Y0105002D01*
X0061429Y0105007D01*
X0061471Y0105017D01*
X0061511Y0105029D01*
X0061551Y0105046D01*
X0061589Y0105066D01*
X0061624Y0105088D01*
X0061658Y0105114D01*
X0061690Y0105143D01*
X0061719Y0105175D01*
X0061745Y0105209D01*
X0061767Y0105245D01*
X0061787Y0105282D01*
X0061804Y0105322D01*
X0061816Y0105362D01*
X0061826Y0105404D01*
X0061831Y0105446D01*
X0061833Y0105489D01*
X0061833Y0107200D01*
X0062939Y0107200D02*
X0063550Y0107200D01*
X0063598Y0107198D01*
X0063646Y0107192D01*
X0063693Y0107183D01*
X0063739Y0107170D01*
X0063784Y0107153D01*
X0063827Y0107133D01*
X0063869Y0107110D01*
X0063909Y0107083D01*
X0063947Y0107054D01*
X0063982Y0107021D01*
X0064015Y0106986D01*
X0064044Y0106948D01*
X0064071Y0106908D01*
X0064094Y0106866D01*
X0064114Y0106823D01*
X0064131Y0106778D01*
X0064144Y0106732D01*
X0064153Y0106685D01*
X0064159Y0106637D01*
X0064161Y0106589D01*
X0064159Y0106541D01*
X0064153Y0106493D01*
X0064144Y0106446D01*
X0064131Y0106400D01*
X0064114Y0106355D01*
X0064094Y0106312D01*
X0064071Y0106270D01*
X0064044Y0106230D01*
X0064015Y0106192D01*
X0063982Y0106157D01*
X0063947Y0106124D01*
X0063909Y0106095D01*
X0063869Y0106068D01*
X0063827Y0106045D01*
X0063784Y0106025D01*
X0063739Y0106008D01*
X0063693Y0105995D01*
X0063646Y0105986D01*
X0063598Y0105980D01*
X0063550Y0105978D01*
X0062939Y0105978D01*
X0062939Y0105000D02*
X0062939Y0107200D01*
X0064994Y0107200D02*
X0065727Y0107200D01*
X0065770Y0107198D01*
X0065812Y0107193D01*
X0065854Y0107183D01*
X0065894Y0107171D01*
X0065934Y0107154D01*
X0065972Y0107134D01*
X0066007Y0107112D01*
X0066041Y0107086D01*
X0066073Y0107057D01*
X0066102Y0107025D01*
X0066128Y0106991D01*
X0066150Y0106956D01*
X0066170Y0106918D01*
X0066187Y0106878D01*
X0066199Y0106838D01*
X0066209Y0106796D01*
X0066214Y0106754D01*
X0066216Y0106711D01*
X0066214Y0106668D01*
X0066209Y0106626D01*
X0066199Y0106584D01*
X0066187Y0106544D01*
X0066170Y0106504D01*
X0066150Y0106467D01*
X0066128Y0106431D01*
X0066102Y0106397D01*
X0066073Y0106365D01*
X0066041Y0106336D01*
X0066007Y0106310D01*
X0065972Y0106288D01*
X0065934Y0106268D01*
X0065894Y0106251D01*
X0065854Y0106239D01*
X0065812Y0106229D01*
X0065770Y0106224D01*
X0065727Y0106222D01*
X0065239Y0106222D01*
X0065605Y0106222D02*
X0065653Y0106220D01*
X0065701Y0106214D01*
X0065748Y0106205D01*
X0065794Y0106192D01*
X0065839Y0106175D01*
X0065882Y0106155D01*
X0065924Y0106132D01*
X0065964Y0106105D01*
X0066002Y0106076D01*
X0066037Y0106043D01*
X0066070Y0106008D01*
X0066099Y0105970D01*
X0066126Y0105930D01*
X0066149Y0105888D01*
X0066169Y0105845D01*
X0066186Y0105800D01*
X0066199Y0105754D01*
X0066208Y0105707D01*
X0066214Y0105659D01*
X0066216Y0105611D01*
X0066214Y0105563D01*
X0066208Y0105515D01*
X0066199Y0105468D01*
X0066186Y0105422D01*
X0066169Y0105377D01*
X0066149Y0105334D01*
X0066126Y0105292D01*
X0066099Y0105252D01*
X0066070Y0105214D01*
X0066037Y0105179D01*
X0066002Y0105146D01*
X0065964Y0105117D01*
X0065924Y0105090D01*
X0065882Y0105067D01*
X0065839Y0105047D01*
X0065794Y0105030D01*
X0065748Y0105017D01*
X0065701Y0105008D01*
X0065653Y0105002D01*
X0065605Y0105000D01*
X0064994Y0105000D01*
D12*
X0064048Y0125900D02*
X0065781Y0131100D01*
X0067515Y0125900D01*
X0067081Y0127200D02*
X0064481Y0127200D01*
X0062457Y0125900D02*
X0060146Y0125900D01*
X0060146Y0131100D01*
X0062457Y0131100D01*
X0061880Y0128789D02*
X0060146Y0128789D01*
X0058089Y0125900D02*
X0055778Y0125900D01*
X0055778Y0131100D01*
X0053698Y0131100D02*
X0052543Y0131100D01*
X0052476Y0131098D01*
X0052409Y0131092D01*
X0052342Y0131082D01*
X0052276Y0131069D01*
X0052211Y0131051D01*
X0052148Y0131030D01*
X0052085Y0131005D01*
X0052024Y0130977D01*
X0051965Y0130945D01*
X0051908Y0130910D01*
X0051853Y0130871D01*
X0051800Y0130830D01*
X0051750Y0130785D01*
X0051702Y0130737D01*
X0051657Y0130687D01*
X0051616Y0130634D01*
X0051577Y0130579D01*
X0051542Y0130522D01*
X0051510Y0130463D01*
X0051482Y0130402D01*
X0051457Y0130339D01*
X0051436Y0130276D01*
X0051418Y0130211D01*
X0051405Y0130145D01*
X0051395Y0130078D01*
X0051389Y0130011D01*
X0051387Y0129944D01*
X0051387Y0127056D01*
X0051389Y0126989D01*
X0051395Y0126922D01*
X0051405Y0126855D01*
X0051418Y0126789D01*
X0051436Y0126724D01*
X0051457Y0126661D01*
X0051482Y0126598D01*
X0051510Y0126537D01*
X0051542Y0126478D01*
X0051577Y0126421D01*
X0051616Y0126366D01*
X0051657Y0126313D01*
X0051702Y0126263D01*
X0051750Y0126215D01*
X0051800Y0126170D01*
X0051853Y0126129D01*
X0051908Y0126090D01*
X0051965Y0126055D01*
X0052024Y0126023D01*
X0052085Y0125995D01*
X0052148Y0125970D01*
X0052211Y0125949D01*
X0052276Y0125931D01*
X0052342Y0125918D01*
X0052409Y0125908D01*
X0052476Y0125902D01*
X0052543Y0125900D01*
X0053698Y0125900D01*
X0054224Y0134300D02*
X0054224Y0139500D01*
X0057112Y0134300D01*
X0057112Y0139500D01*
X0059600Y0139500D02*
X0059600Y0134300D01*
X0062488Y0134300D02*
X0062488Y0139500D01*
X0059600Y0139500D02*
X0062488Y0134300D01*
X0064519Y0134300D02*
X0066252Y0139500D01*
X0067985Y0134300D01*
X0067552Y0135600D02*
X0064952Y0135600D01*
X0069576Y0131100D02*
X0071020Y0131100D01*
X0071096Y0131098D01*
X0071171Y0131092D01*
X0071246Y0131082D01*
X0071320Y0131068D01*
X0071394Y0131051D01*
X0071466Y0131029D01*
X0071537Y0131004D01*
X0071607Y0130975D01*
X0071676Y0130943D01*
X0071742Y0130907D01*
X0071806Y0130867D01*
X0071869Y0130824D01*
X0071929Y0130778D01*
X0071986Y0130729D01*
X0072041Y0130677D01*
X0072093Y0130622D01*
X0072142Y0130565D01*
X0072188Y0130505D01*
X0072231Y0130442D01*
X0072271Y0130378D01*
X0072307Y0130312D01*
X0072339Y0130243D01*
X0072368Y0130173D01*
X0072393Y0130102D01*
X0072415Y0130030D01*
X0072432Y0129956D01*
X0072446Y0129882D01*
X0072456Y0129807D01*
X0072462Y0129732D01*
X0072464Y0129656D01*
X0072462Y0129580D01*
X0072456Y0129505D01*
X0072446Y0129430D01*
X0072432Y0129356D01*
X0072415Y0129282D01*
X0072393Y0129210D01*
X0072368Y0129139D01*
X0072339Y0129069D01*
X0072307Y0129000D01*
X0072271Y0128934D01*
X0072231Y0128870D01*
X0072188Y0128807D01*
X0072142Y0128747D01*
X0072093Y0128690D01*
X0072041Y0128635D01*
X0071986Y0128583D01*
X0071929Y0128534D01*
X0071869Y0128488D01*
X0071806Y0128445D01*
X0071742Y0128405D01*
X0071676Y0128369D01*
X0071607Y0128337D01*
X0071537Y0128308D01*
X0071466Y0128283D01*
X0071394Y0128261D01*
X0071320Y0128244D01*
X0071246Y0128230D01*
X0071171Y0128220D01*
X0071096Y0128214D01*
X0071020Y0128212D01*
X0071020Y0128211D02*
X0069576Y0128211D01*
X0071309Y0128211D02*
X0072464Y0125900D01*
X0069576Y0125900D02*
X0069576Y0131100D01*
X0052176Y0134300D02*
X0049865Y0134300D01*
X0049865Y0139500D01*
X0052176Y0139500D01*
X0051598Y0137189D02*
X0049865Y0137189D01*
X0047872Y0139500D02*
X0044984Y0139500D01*
X0046428Y0139500D02*
X0046428Y0134300D01*
X0045356Y0131100D02*
X0043912Y0131100D01*
X0043912Y0125900D01*
X0041793Y0125900D02*
X0039482Y0125900D01*
X0039482Y0131100D01*
X0041793Y0131100D01*
X0041216Y0128789D02*
X0039482Y0128789D01*
X0037425Y0131100D02*
X0035114Y0131100D01*
X0035114Y0125900D01*
X0037425Y0125900D01*
X0036848Y0128789D02*
X0035114Y0128789D01*
X0033024Y0131100D02*
X0030136Y0127922D01*
X0031291Y0129078D02*
X0033024Y0125900D01*
X0030136Y0125900D02*
X0030136Y0131100D01*
X0034615Y0134300D02*
X0036348Y0139500D01*
X0038081Y0134300D01*
X0037648Y0135600D02*
X0035048Y0135600D01*
X0040112Y0134300D02*
X0040112Y0139500D01*
X0043000Y0134300D01*
X0043000Y0139500D01*
X0045356Y0131100D02*
X0045432Y0131098D01*
X0045507Y0131092D01*
X0045582Y0131082D01*
X0045656Y0131068D01*
X0045730Y0131051D01*
X0045802Y0131029D01*
X0045873Y0131004D01*
X0045943Y0130975D01*
X0046012Y0130943D01*
X0046078Y0130907D01*
X0046142Y0130867D01*
X0046205Y0130824D01*
X0046265Y0130778D01*
X0046322Y0130729D01*
X0046377Y0130677D01*
X0046429Y0130622D01*
X0046478Y0130565D01*
X0046524Y0130505D01*
X0046567Y0130442D01*
X0046607Y0130378D01*
X0046643Y0130312D01*
X0046675Y0130243D01*
X0046704Y0130173D01*
X0046729Y0130102D01*
X0046751Y0130030D01*
X0046768Y0129956D01*
X0046782Y0129882D01*
X0046792Y0129807D01*
X0046798Y0129732D01*
X0046800Y0129656D01*
X0046798Y0129580D01*
X0046792Y0129505D01*
X0046782Y0129430D01*
X0046768Y0129356D01*
X0046751Y0129282D01*
X0046729Y0129210D01*
X0046704Y0129139D01*
X0046675Y0129069D01*
X0046643Y0129000D01*
X0046607Y0128934D01*
X0046567Y0128870D01*
X0046524Y0128807D01*
X0046478Y0128747D01*
X0046429Y0128690D01*
X0046377Y0128635D01*
X0046322Y0128583D01*
X0046265Y0128534D01*
X0046205Y0128488D01*
X0046142Y0128445D01*
X0046078Y0128405D01*
X0046012Y0128369D01*
X0045943Y0128337D01*
X0045873Y0128308D01*
X0045802Y0128283D01*
X0045730Y0128261D01*
X0045656Y0128244D01*
X0045582Y0128230D01*
X0045507Y0128220D01*
X0045432Y0128214D01*
X0045356Y0128212D01*
X0045356Y0128211D02*
X0043912Y0128211D01*
X0093789Y0012322D02*
X0096100Y0012322D01*
D13*
X0006300Y0020200D03*
D14*
X0008800Y0017700D02*
X0011300Y0015200D01*
X0011300Y0010200D01*
X0008800Y0007700D01*
X0003800Y0007700D01*
X0001300Y0010200D01*
X0001300Y0015200D01*
X0003800Y0017700D01*
X0001300Y0020200D01*
X0001300Y0025200D01*
X0003800Y0027700D01*
X0001300Y0030200D01*
X0001300Y0035200D01*
X0003800Y0037700D01*
X0008800Y0037700D01*
X0011300Y0035200D01*
X0011300Y0030200D01*
X0008800Y0027700D01*
X0011300Y0025200D01*
X0011300Y0020200D01*
X0008800Y0017700D01*
X0003800Y0017700D01*
X0003800Y0027700D02*
X0008800Y0027700D01*
X0018800Y0037700D02*
X0016300Y0040200D01*
X0016300Y0045200D01*
X0018800Y0047700D01*
X0016300Y0050200D01*
X0016300Y0055200D01*
X0018800Y0057700D01*
X0023800Y0057700D01*
X0026300Y0055200D01*
X0026300Y0050200D01*
X0023800Y0047700D01*
X0026300Y0045200D01*
X0026300Y0040200D01*
X0023800Y0037700D01*
X0018800Y0037700D01*
X0018800Y0047700D02*
X0023800Y0047700D01*
X0023800Y0057700D02*
X0026300Y0060200D01*
X0026300Y0065200D01*
X0023800Y0067700D01*
X0026300Y0070200D01*
X0026300Y0075200D01*
X0023800Y0077700D01*
X0018800Y0077700D01*
X0016300Y0075200D01*
X0016300Y0070200D01*
X0018800Y0067700D01*
X0023800Y0067700D01*
X0026300Y0070200D02*
X0028800Y0067700D01*
X0033800Y0067700D01*
X0036300Y0070200D01*
X0038800Y0067700D01*
X0043800Y0067700D01*
X0046300Y0070200D01*
X0046300Y0075200D01*
X0043800Y0077700D01*
X0038800Y0077700D01*
X0036300Y0075200D01*
X0036300Y0070200D01*
X0036300Y0075200D02*
X0033800Y0077700D01*
X0028800Y0077700D01*
X0026300Y0075200D01*
X0026300Y0070200D01*
X0018800Y0067700D02*
X0016300Y0065200D01*
X0016300Y0060200D01*
X0018800Y0057700D01*
X0027800Y0034700D02*
X0031800Y0034700D01*
X0041300Y0034700D01*
X0044800Y0034700D01*
X0048300Y0026700D02*
X0048300Y0025700D01*
X0049300Y0025700D01*
X0049300Y0019700D01*
X0048300Y0019700D01*
X0048300Y0018700D01*
X0044800Y0010700D02*
X0041300Y0010700D01*
X0031300Y0010700D01*
X0027800Y0010700D01*
X0024300Y0018700D02*
X0024300Y0019700D01*
X0023300Y0019700D01*
X0023300Y0025700D01*
X0024300Y0025700D01*
X0024300Y0026700D01*
X0035300Y0022700D02*
X0035302Y0022763D01*
X0035308Y0022825D01*
X0035318Y0022887D01*
X0035331Y0022949D01*
X0035349Y0023009D01*
X0035370Y0023068D01*
X0035395Y0023126D01*
X0035424Y0023182D01*
X0035456Y0023236D01*
X0035491Y0023288D01*
X0035529Y0023337D01*
X0035571Y0023385D01*
X0035615Y0023429D01*
X0035663Y0023471D01*
X0035712Y0023509D01*
X0035764Y0023544D01*
X0035818Y0023576D01*
X0035874Y0023605D01*
X0035932Y0023630D01*
X0035991Y0023651D01*
X0036051Y0023669D01*
X0036113Y0023682D01*
X0036175Y0023692D01*
X0036237Y0023698D01*
X0036300Y0023700D01*
X0036363Y0023698D01*
X0036425Y0023692D01*
X0036487Y0023682D01*
X0036549Y0023669D01*
X0036609Y0023651D01*
X0036668Y0023630D01*
X0036726Y0023605D01*
X0036782Y0023576D01*
X0036836Y0023544D01*
X0036888Y0023509D01*
X0036937Y0023471D01*
X0036985Y0023429D01*
X0037029Y0023385D01*
X0037071Y0023337D01*
X0037109Y0023288D01*
X0037144Y0023236D01*
X0037176Y0023182D01*
X0037205Y0023126D01*
X0037230Y0023068D01*
X0037251Y0023009D01*
X0037269Y0022949D01*
X0037282Y0022887D01*
X0037292Y0022825D01*
X0037298Y0022763D01*
X0037300Y0022700D01*
X0037298Y0022637D01*
X0037292Y0022575D01*
X0037282Y0022513D01*
X0037269Y0022451D01*
X0037251Y0022391D01*
X0037230Y0022332D01*
X0037205Y0022274D01*
X0037176Y0022218D01*
X0037144Y0022164D01*
X0037109Y0022112D01*
X0037071Y0022063D01*
X0037029Y0022015D01*
X0036985Y0021971D01*
X0036937Y0021929D01*
X0036888Y0021891D01*
X0036836Y0021856D01*
X0036782Y0021824D01*
X0036726Y0021795D01*
X0036668Y0021770D01*
X0036609Y0021749D01*
X0036549Y0021731D01*
X0036487Y0021718D01*
X0036425Y0021708D01*
X0036363Y0021702D01*
X0036300Y0021700D01*
X0036237Y0021702D01*
X0036175Y0021708D01*
X0036113Y0021718D01*
X0036051Y0021731D01*
X0035991Y0021749D01*
X0035932Y0021770D01*
X0035874Y0021795D01*
X0035818Y0021824D01*
X0035764Y0021856D01*
X0035712Y0021891D01*
X0035663Y0021929D01*
X0035615Y0021971D01*
X0035571Y0022015D01*
X0035529Y0022063D01*
X0035491Y0022112D01*
X0035456Y0022164D01*
X0035424Y0022218D01*
X0035395Y0022274D01*
X0035370Y0022332D01*
X0035349Y0022391D01*
X0035331Y0022451D01*
X0035318Y0022513D01*
X0035308Y0022575D01*
X0035302Y0022637D01*
X0035300Y0022700D01*
X0029300Y0022700D02*
X0029302Y0022872D01*
X0029308Y0023043D01*
X0029319Y0023215D01*
X0029334Y0023386D01*
X0029353Y0023557D01*
X0029376Y0023727D01*
X0029403Y0023897D01*
X0029435Y0024066D01*
X0029470Y0024234D01*
X0029510Y0024401D01*
X0029554Y0024567D01*
X0029601Y0024732D01*
X0029653Y0024896D01*
X0029709Y0025058D01*
X0029769Y0025219D01*
X0029833Y0025379D01*
X0029901Y0025537D01*
X0029972Y0025693D01*
X0030047Y0025847D01*
X0030127Y0026000D01*
X0030209Y0026150D01*
X0030296Y0026299D01*
X0030386Y0026445D01*
X0030480Y0026589D01*
X0030577Y0026731D01*
X0030678Y0026870D01*
X0030782Y0027007D01*
X0030889Y0027141D01*
X0031000Y0027272D01*
X0031113Y0027401D01*
X0031230Y0027527D01*
X0031350Y0027650D01*
X0031473Y0027770D01*
X0031599Y0027887D01*
X0031728Y0028000D01*
X0031859Y0028111D01*
X0031993Y0028218D01*
X0032130Y0028322D01*
X0032269Y0028423D01*
X0032411Y0028520D01*
X0032555Y0028614D01*
X0032701Y0028704D01*
X0032850Y0028791D01*
X0033000Y0028873D01*
X0033153Y0028953D01*
X0033307Y0029028D01*
X0033463Y0029099D01*
X0033621Y0029167D01*
X0033781Y0029231D01*
X0033942Y0029291D01*
X0034104Y0029347D01*
X0034268Y0029399D01*
X0034433Y0029446D01*
X0034599Y0029490D01*
X0034766Y0029530D01*
X0034934Y0029565D01*
X0035103Y0029597D01*
X0035273Y0029624D01*
X0035443Y0029647D01*
X0035614Y0029666D01*
X0035785Y0029681D01*
X0035957Y0029692D01*
X0036128Y0029698D01*
X0036300Y0029700D01*
X0036472Y0029698D01*
X0036643Y0029692D01*
X0036815Y0029681D01*
X0036986Y0029666D01*
X0037157Y0029647D01*
X0037327Y0029624D01*
X0037497Y0029597D01*
X0037666Y0029565D01*
X0037834Y0029530D01*
X0038001Y0029490D01*
X0038167Y0029446D01*
X0038332Y0029399D01*
X0038496Y0029347D01*
X0038658Y0029291D01*
X0038819Y0029231D01*
X0038979Y0029167D01*
X0039137Y0029099D01*
X0039293Y0029028D01*
X0039447Y0028953D01*
X0039600Y0028873D01*
X0039750Y0028791D01*
X0039899Y0028704D01*
X0040045Y0028614D01*
X0040189Y0028520D01*
X0040331Y0028423D01*
X0040470Y0028322D01*
X0040607Y0028218D01*
X0040741Y0028111D01*
X0040872Y0028000D01*
X0041001Y0027887D01*
X0041127Y0027770D01*
X0041250Y0027650D01*
X0041370Y0027527D01*
X0041487Y0027401D01*
X0041600Y0027272D01*
X0041711Y0027141D01*
X0041818Y0027007D01*
X0041922Y0026870D01*
X0042023Y0026731D01*
X0042120Y0026589D01*
X0042214Y0026445D01*
X0042304Y0026299D01*
X0042391Y0026150D01*
X0042473Y0026000D01*
X0042553Y0025847D01*
X0042628Y0025693D01*
X0042699Y0025537D01*
X0042767Y0025379D01*
X0042831Y0025219D01*
X0042891Y0025058D01*
X0042947Y0024896D01*
X0042999Y0024732D01*
X0043046Y0024567D01*
X0043090Y0024401D01*
X0043130Y0024234D01*
X0043165Y0024066D01*
X0043197Y0023897D01*
X0043224Y0023727D01*
X0043247Y0023557D01*
X0043266Y0023386D01*
X0043281Y0023215D01*
X0043292Y0023043D01*
X0043298Y0022872D01*
X0043300Y0022700D01*
X0043298Y0022528D01*
X0043292Y0022357D01*
X0043281Y0022185D01*
X0043266Y0022014D01*
X0043247Y0021843D01*
X0043224Y0021673D01*
X0043197Y0021503D01*
X0043165Y0021334D01*
X0043130Y0021166D01*
X0043090Y0020999D01*
X0043046Y0020833D01*
X0042999Y0020668D01*
X0042947Y0020504D01*
X0042891Y0020342D01*
X0042831Y0020181D01*
X0042767Y0020021D01*
X0042699Y0019863D01*
X0042628Y0019707D01*
X0042553Y0019553D01*
X0042473Y0019400D01*
X0042391Y0019250D01*
X0042304Y0019101D01*
X0042214Y0018955D01*
X0042120Y0018811D01*
X0042023Y0018669D01*
X0041922Y0018530D01*
X0041818Y0018393D01*
X0041711Y0018259D01*
X0041600Y0018128D01*
X0041487Y0017999D01*
X0041370Y0017873D01*
X0041250Y0017750D01*
X0041127Y0017630D01*
X0041001Y0017513D01*
X0040872Y0017400D01*
X0040741Y0017289D01*
X0040607Y0017182D01*
X0040470Y0017078D01*
X0040331Y0016977D01*
X0040189Y0016880D01*
X0040045Y0016786D01*
X0039899Y0016696D01*
X0039750Y0016609D01*
X0039600Y0016527D01*
X0039447Y0016447D01*
X0039293Y0016372D01*
X0039137Y0016301D01*
X0038979Y0016233D01*
X0038819Y0016169D01*
X0038658Y0016109D01*
X0038496Y0016053D01*
X0038332Y0016001D01*
X0038167Y0015954D01*
X0038001Y0015910D01*
X0037834Y0015870D01*
X0037666Y0015835D01*
X0037497Y0015803D01*
X0037327Y0015776D01*
X0037157Y0015753D01*
X0036986Y0015734D01*
X0036815Y0015719D01*
X0036643Y0015708D01*
X0036472Y0015702D01*
X0036300Y0015700D01*
X0036128Y0015702D01*
X0035957Y0015708D01*
X0035785Y0015719D01*
X0035614Y0015734D01*
X0035443Y0015753D01*
X0035273Y0015776D01*
X0035103Y0015803D01*
X0034934Y0015835D01*
X0034766Y0015870D01*
X0034599Y0015910D01*
X0034433Y0015954D01*
X0034268Y0016001D01*
X0034104Y0016053D01*
X0033942Y0016109D01*
X0033781Y0016169D01*
X0033621Y0016233D01*
X0033463Y0016301D01*
X0033307Y0016372D01*
X0033153Y0016447D01*
X0033000Y0016527D01*
X0032850Y0016609D01*
X0032701Y0016696D01*
X0032555Y0016786D01*
X0032411Y0016880D01*
X0032269Y0016977D01*
X0032130Y0017078D01*
X0031993Y0017182D01*
X0031859Y0017289D01*
X0031728Y0017400D01*
X0031599Y0017513D01*
X0031473Y0017630D01*
X0031350Y0017750D01*
X0031230Y0017873D01*
X0031113Y0017999D01*
X0031000Y0018128D01*
X0030889Y0018259D01*
X0030782Y0018393D01*
X0030678Y0018530D01*
X0030577Y0018669D01*
X0030480Y0018811D01*
X0030386Y0018955D01*
X0030296Y0019101D01*
X0030209Y0019250D01*
X0030127Y0019400D01*
X0030047Y0019553D01*
X0029972Y0019707D01*
X0029901Y0019863D01*
X0029833Y0020021D01*
X0029769Y0020181D01*
X0029709Y0020342D01*
X0029653Y0020504D01*
X0029601Y0020668D01*
X0029554Y0020833D01*
X0029510Y0020999D01*
X0029470Y0021166D01*
X0029435Y0021334D01*
X0029403Y0021503D01*
X0029376Y0021673D01*
X0029353Y0021843D01*
X0029334Y0022014D01*
X0029319Y0022185D01*
X0029308Y0022357D01*
X0029302Y0022528D01*
X0029300Y0022700D01*
X0041182Y0046187D02*
X0041091Y0046312D01*
X0040997Y0046434D01*
X0040899Y0046553D01*
X0040799Y0046670D01*
X0040695Y0046784D01*
X0040589Y0046896D01*
X0040480Y0047004D01*
X0040368Y0047110D01*
X0040253Y0047213D01*
X0040136Y0047313D01*
X0040016Y0047411D01*
X0039894Y0047504D01*
X0039770Y0047595D01*
X0039643Y0047683D01*
X0039514Y0047767D01*
X0039382Y0047848D01*
X0039249Y0047925D01*
X0039114Y0047999D01*
X0038977Y0048070D01*
X0038838Y0048137D01*
X0038698Y0048200D01*
X0038555Y0048260D01*
X0038412Y0048316D01*
X0038267Y0048368D01*
X0038121Y0048417D01*
X0037973Y0048462D01*
X0037825Y0048503D01*
X0037675Y0048540D01*
X0037525Y0048574D01*
X0037373Y0048603D01*
X0037221Y0048629D01*
X0037069Y0048651D01*
X0036916Y0048668D01*
X0036762Y0048682D01*
X0036608Y0048692D01*
X0036454Y0048698D01*
X0036300Y0048700D01*
X0031564Y0039017D02*
X0031658Y0038898D01*
X0031756Y0038782D01*
X0031856Y0038668D01*
X0031960Y0038557D01*
X0032066Y0038449D01*
X0032174Y0038343D01*
X0032286Y0038241D01*
X0032400Y0038141D01*
X0032516Y0038043D01*
X0032635Y0037949D01*
X0032756Y0037858D01*
X0032880Y0037770D01*
X0033006Y0037685D01*
X0033133Y0037604D01*
X0033263Y0037525D01*
X0033395Y0037450D01*
X0033528Y0037379D01*
X0033664Y0037310D01*
X0033801Y0037245D01*
X0033939Y0037184D01*
X0034080Y0037126D01*
X0034221Y0037072D01*
X0034364Y0037021D01*
X0034508Y0036974D01*
X0034653Y0036930D01*
X0034800Y0036891D01*
X0034947Y0036855D01*
X0035095Y0036822D01*
X0035244Y0036794D01*
X0035394Y0036769D01*
X0035544Y0036748D01*
X0035694Y0036731D01*
X0035846Y0036717D01*
X0035997Y0036708D01*
X0036148Y0036702D01*
X0036300Y0036700D01*
X0031500Y0046300D02*
X0031592Y0046419D01*
X0031686Y0046536D01*
X0031784Y0046650D01*
X0031884Y0046762D01*
X0031988Y0046872D01*
X0032093Y0046978D01*
X0032202Y0047083D01*
X0032313Y0047184D01*
X0032427Y0047282D01*
X0032543Y0047378D01*
X0032661Y0047471D01*
X0032782Y0047560D01*
X0032905Y0047647D01*
X0033030Y0047730D01*
X0033157Y0047811D01*
X0033286Y0047888D01*
X0033417Y0047962D01*
X0033550Y0048033D01*
X0033684Y0048100D01*
X0033820Y0048164D01*
X0033958Y0048224D01*
X0034097Y0048281D01*
X0034238Y0048334D01*
X0034380Y0048384D01*
X0034523Y0048431D01*
X0034667Y0048473D01*
X0034812Y0048513D01*
X0034958Y0048548D01*
X0035105Y0048580D01*
X0035253Y0048608D01*
X0035401Y0048632D01*
X0035550Y0048653D01*
X0035700Y0048670D01*
X0035849Y0048683D01*
X0035999Y0048692D01*
X0036150Y0048698D01*
X0036300Y0048700D01*
X0041036Y0039017D02*
X0040942Y0038898D01*
X0040844Y0038782D01*
X0040744Y0038668D01*
X0040640Y0038557D01*
X0040534Y0038449D01*
X0040426Y0038343D01*
X0040314Y0038241D01*
X0040200Y0038141D01*
X0040084Y0038043D01*
X0039965Y0037949D01*
X0039844Y0037858D01*
X0039720Y0037770D01*
X0039594Y0037685D01*
X0039467Y0037604D01*
X0039337Y0037525D01*
X0039205Y0037450D01*
X0039072Y0037379D01*
X0038936Y0037310D01*
X0038799Y0037245D01*
X0038661Y0037184D01*
X0038520Y0037126D01*
X0038379Y0037072D01*
X0038236Y0037021D01*
X0038092Y0036974D01*
X0037947Y0036930D01*
X0037800Y0036891D01*
X0037653Y0036855D01*
X0037505Y0036822D01*
X0037356Y0036794D01*
X0037206Y0036769D01*
X0037056Y0036748D01*
X0036906Y0036731D01*
X0036754Y0036717D01*
X0036603Y0036708D01*
X0036452Y0036702D01*
X0036300Y0036700D01*
X0031500Y0066300D02*
X0031592Y0066419D01*
X0031686Y0066536D01*
X0031784Y0066650D01*
X0031884Y0066762D01*
X0031988Y0066872D01*
X0032093Y0066978D01*
X0032202Y0067083D01*
X0032313Y0067184D01*
X0032427Y0067282D01*
X0032543Y0067378D01*
X0032661Y0067471D01*
X0032782Y0067560D01*
X0032905Y0067647D01*
X0033030Y0067730D01*
X0033157Y0067811D01*
X0033286Y0067888D01*
X0033417Y0067962D01*
X0033550Y0068033D01*
X0033684Y0068100D01*
X0033820Y0068164D01*
X0033958Y0068224D01*
X0034097Y0068281D01*
X0034238Y0068334D01*
X0034380Y0068384D01*
X0034523Y0068431D01*
X0034667Y0068473D01*
X0034812Y0068513D01*
X0034958Y0068548D01*
X0035105Y0068580D01*
X0035253Y0068608D01*
X0035401Y0068632D01*
X0035550Y0068653D01*
X0035700Y0068670D01*
X0035849Y0068683D01*
X0035999Y0068692D01*
X0036150Y0068698D01*
X0036300Y0068700D01*
X0031564Y0059017D02*
X0031658Y0058898D01*
X0031756Y0058782D01*
X0031856Y0058668D01*
X0031960Y0058557D01*
X0032066Y0058449D01*
X0032174Y0058343D01*
X0032286Y0058241D01*
X0032400Y0058141D01*
X0032516Y0058043D01*
X0032635Y0057949D01*
X0032756Y0057858D01*
X0032880Y0057770D01*
X0033006Y0057685D01*
X0033133Y0057604D01*
X0033263Y0057525D01*
X0033395Y0057450D01*
X0033528Y0057379D01*
X0033664Y0057310D01*
X0033801Y0057245D01*
X0033939Y0057184D01*
X0034080Y0057126D01*
X0034221Y0057072D01*
X0034364Y0057021D01*
X0034508Y0056974D01*
X0034653Y0056930D01*
X0034800Y0056891D01*
X0034947Y0056855D01*
X0035095Y0056822D01*
X0035244Y0056794D01*
X0035394Y0056769D01*
X0035544Y0056748D01*
X0035694Y0056731D01*
X0035846Y0056717D01*
X0035997Y0056708D01*
X0036148Y0056702D01*
X0036300Y0056700D01*
X0041182Y0066187D02*
X0041091Y0066312D01*
X0040997Y0066434D01*
X0040899Y0066553D01*
X0040799Y0066670D01*
X0040695Y0066784D01*
X0040589Y0066896D01*
X0040480Y0067004D01*
X0040368Y0067110D01*
X0040253Y0067213D01*
X0040136Y0067313D01*
X0040016Y0067411D01*
X0039894Y0067504D01*
X0039770Y0067595D01*
X0039643Y0067683D01*
X0039514Y0067767D01*
X0039382Y0067848D01*
X0039249Y0067925D01*
X0039114Y0067999D01*
X0038977Y0068070D01*
X0038838Y0068137D01*
X0038698Y0068200D01*
X0038555Y0068260D01*
X0038412Y0068316D01*
X0038267Y0068368D01*
X0038121Y0068417D01*
X0037973Y0068462D01*
X0037825Y0068503D01*
X0037675Y0068540D01*
X0037525Y0068574D01*
X0037373Y0068603D01*
X0037221Y0068629D01*
X0037069Y0068651D01*
X0036916Y0068668D01*
X0036762Y0068682D01*
X0036608Y0068692D01*
X0036454Y0068698D01*
X0036300Y0068700D01*
X0041036Y0059017D02*
X0040942Y0058898D01*
X0040844Y0058782D01*
X0040744Y0058668D01*
X0040640Y0058557D01*
X0040534Y0058449D01*
X0040426Y0058343D01*
X0040314Y0058241D01*
X0040200Y0058141D01*
X0040084Y0058043D01*
X0039965Y0057949D01*
X0039844Y0057858D01*
X0039720Y0057770D01*
X0039594Y0057685D01*
X0039467Y0057604D01*
X0039337Y0057525D01*
X0039205Y0057450D01*
X0039072Y0057379D01*
X0038936Y0057310D01*
X0038799Y0057245D01*
X0038661Y0057184D01*
X0038520Y0057126D01*
X0038379Y0057072D01*
X0038236Y0057021D01*
X0038092Y0056974D01*
X0037947Y0056930D01*
X0037800Y0056891D01*
X0037653Y0056855D01*
X0037505Y0056822D01*
X0037356Y0056794D01*
X0037206Y0056769D01*
X0037056Y0056748D01*
X0036906Y0056731D01*
X0036754Y0056717D01*
X0036603Y0056708D01*
X0036452Y0056702D01*
X0036300Y0056700D01*
X0048800Y0067700D02*
X0046300Y0070200D01*
X0048800Y0067700D02*
X0053800Y0067700D01*
X0056300Y0070200D01*
X0058800Y0067700D01*
X0063800Y0067700D01*
X0066300Y0070200D01*
X0068800Y0067700D01*
X0073800Y0067700D01*
X0076300Y0070200D01*
X0078800Y0067700D01*
X0083800Y0067700D01*
X0086300Y0070200D01*
X0086300Y0075200D01*
X0083800Y0077700D01*
X0078800Y0077700D01*
X0076300Y0075200D01*
X0076300Y0070200D01*
X0076300Y0075200D02*
X0073800Y0077700D01*
X0068800Y0077700D01*
X0066300Y0075200D01*
X0066300Y0070200D01*
X0066300Y0075200D02*
X0063800Y0077700D01*
X0058800Y0077700D01*
X0056300Y0075200D01*
X0056300Y0070200D01*
X0056300Y0075200D02*
X0053800Y0077700D01*
X0048800Y0077700D01*
X0046300Y0075200D01*
X0044800Y0086700D02*
X0044800Y0087700D01*
X0044300Y0088200D01*
X0044300Y0097200D01*
X0044800Y0097700D01*
X0044800Y0098700D01*
X0044798Y0098760D01*
X0044793Y0098821D01*
X0044784Y0098880D01*
X0044771Y0098939D01*
X0044755Y0098998D01*
X0044735Y0099055D01*
X0044712Y0099110D01*
X0044685Y0099165D01*
X0044656Y0099217D01*
X0044623Y0099268D01*
X0044587Y0099317D01*
X0044549Y0099363D01*
X0044507Y0099407D01*
X0044463Y0099449D01*
X0044417Y0099487D01*
X0044368Y0099523D01*
X0044317Y0099556D01*
X0044265Y0099585D01*
X0044210Y0099612D01*
X0044155Y0099635D01*
X0044098Y0099655D01*
X0044039Y0099671D01*
X0043980Y0099684D01*
X0043921Y0099693D01*
X0043860Y0099698D01*
X0043800Y0099700D01*
X0043800Y0097700D02*
X0046300Y0095200D01*
X0048800Y0097700D01*
X0053800Y0097700D01*
X0056300Y0095200D01*
X0058800Y0097700D01*
X0063800Y0097700D01*
X0066300Y0095200D01*
X0068800Y0097700D01*
X0073800Y0097700D01*
X0076300Y0095200D01*
X0078800Y0097700D01*
X0083800Y0097700D01*
X0086300Y0095200D01*
X0086300Y0090200D01*
X0083800Y0087700D01*
X0078800Y0087700D01*
X0076300Y0090200D01*
X0073800Y0087700D01*
X0068800Y0087700D01*
X0066300Y0090200D01*
X0066300Y0095200D01*
X0064300Y0097200D02*
X0064800Y0097700D01*
X0064800Y0098700D01*
X0064798Y0098760D01*
X0064793Y0098821D01*
X0064784Y0098880D01*
X0064771Y0098939D01*
X0064755Y0098998D01*
X0064735Y0099055D01*
X0064712Y0099110D01*
X0064685Y0099165D01*
X0064656Y0099217D01*
X0064623Y0099268D01*
X0064587Y0099317D01*
X0064549Y0099363D01*
X0064507Y0099407D01*
X0064463Y0099449D01*
X0064417Y0099487D01*
X0064368Y0099523D01*
X0064317Y0099556D01*
X0064265Y0099585D01*
X0064210Y0099612D01*
X0064155Y0099635D01*
X0064098Y0099655D01*
X0064039Y0099671D01*
X0063980Y0099684D01*
X0063921Y0099693D01*
X0063860Y0099698D01*
X0063800Y0099700D01*
X0064300Y0097200D02*
X0064300Y0088200D01*
X0064800Y0087700D01*
X0064800Y0086700D01*
X0064798Y0086640D01*
X0064793Y0086579D01*
X0064784Y0086520D01*
X0064771Y0086461D01*
X0064755Y0086402D01*
X0064735Y0086345D01*
X0064712Y0086290D01*
X0064685Y0086235D01*
X0064656Y0086183D01*
X0064623Y0086132D01*
X0064587Y0086083D01*
X0064549Y0086037D01*
X0064507Y0085993D01*
X0064463Y0085951D01*
X0064417Y0085913D01*
X0064368Y0085877D01*
X0064317Y0085844D01*
X0064265Y0085815D01*
X0064210Y0085788D01*
X0064155Y0085765D01*
X0064098Y0085745D01*
X0064039Y0085729D01*
X0063980Y0085716D01*
X0063921Y0085707D01*
X0063860Y0085702D01*
X0063800Y0085700D01*
X0063800Y0087700D02*
X0058800Y0087700D01*
X0056300Y0090200D01*
X0053800Y0087700D01*
X0048800Y0087700D01*
X0046300Y0090200D01*
X0043800Y0087700D01*
X0038800Y0087700D01*
X0036300Y0090200D01*
X0036300Y0095200D01*
X0038800Y0097700D01*
X0043800Y0097700D01*
X0046300Y0095200D02*
X0046300Y0090200D01*
X0048300Y0088200D02*
X0047800Y0087700D01*
X0047800Y0086700D01*
X0047802Y0086640D01*
X0047807Y0086579D01*
X0047816Y0086520D01*
X0047829Y0086461D01*
X0047845Y0086402D01*
X0047865Y0086345D01*
X0047888Y0086290D01*
X0047915Y0086235D01*
X0047944Y0086183D01*
X0047977Y0086132D01*
X0048013Y0086083D01*
X0048051Y0086037D01*
X0048093Y0085993D01*
X0048137Y0085951D01*
X0048183Y0085913D01*
X0048232Y0085877D01*
X0048283Y0085844D01*
X0048335Y0085815D01*
X0048390Y0085788D01*
X0048445Y0085765D01*
X0048502Y0085745D01*
X0048561Y0085729D01*
X0048620Y0085716D01*
X0048679Y0085707D01*
X0048740Y0085702D01*
X0048800Y0085700D01*
X0048300Y0088200D02*
X0048300Y0097200D01*
X0047800Y0097700D01*
X0047800Y0098700D01*
X0047802Y0098760D01*
X0047807Y0098821D01*
X0047816Y0098880D01*
X0047829Y0098939D01*
X0047845Y0098998D01*
X0047865Y0099055D01*
X0047888Y0099110D01*
X0047915Y0099165D01*
X0047944Y0099217D01*
X0047977Y0099268D01*
X0048013Y0099317D01*
X0048051Y0099363D01*
X0048093Y0099407D01*
X0048137Y0099449D01*
X0048183Y0099487D01*
X0048232Y0099523D01*
X0048283Y0099556D01*
X0048335Y0099585D01*
X0048390Y0099612D01*
X0048445Y0099635D01*
X0048502Y0099655D01*
X0048561Y0099671D01*
X0048620Y0099684D01*
X0048679Y0099693D01*
X0048740Y0099698D01*
X0048800Y0099700D01*
X0053800Y0099700D02*
X0053860Y0099698D01*
X0053921Y0099693D01*
X0053980Y0099684D01*
X0054039Y0099671D01*
X0054098Y0099655D01*
X0054155Y0099635D01*
X0054210Y0099612D01*
X0054265Y0099585D01*
X0054317Y0099556D01*
X0054368Y0099523D01*
X0054417Y0099487D01*
X0054463Y0099449D01*
X0054507Y0099407D01*
X0054549Y0099363D01*
X0054587Y0099317D01*
X0054623Y0099268D01*
X0054656Y0099217D01*
X0054685Y0099165D01*
X0054712Y0099110D01*
X0054735Y0099055D01*
X0054755Y0098998D01*
X0054771Y0098939D01*
X0054784Y0098880D01*
X0054793Y0098821D01*
X0054798Y0098760D01*
X0054800Y0098700D01*
X0054800Y0097700D01*
X0054300Y0097200D01*
X0054300Y0088200D01*
X0054800Y0087700D01*
X0054800Y0086700D01*
X0054798Y0086640D01*
X0054793Y0086579D01*
X0054784Y0086520D01*
X0054771Y0086461D01*
X0054755Y0086402D01*
X0054735Y0086345D01*
X0054712Y0086290D01*
X0054685Y0086235D01*
X0054656Y0086183D01*
X0054623Y0086132D01*
X0054587Y0086083D01*
X0054549Y0086037D01*
X0054507Y0085993D01*
X0054463Y0085951D01*
X0054417Y0085913D01*
X0054368Y0085877D01*
X0054317Y0085844D01*
X0054265Y0085815D01*
X0054210Y0085788D01*
X0054155Y0085765D01*
X0054098Y0085745D01*
X0054039Y0085729D01*
X0053980Y0085716D01*
X0053921Y0085707D01*
X0053860Y0085702D01*
X0053800Y0085700D01*
X0056300Y0090200D02*
X0056300Y0095200D01*
X0058300Y0097200D02*
X0058300Y0088200D01*
X0057800Y0087700D01*
X0057800Y0086700D01*
X0057802Y0086640D01*
X0057807Y0086579D01*
X0057816Y0086520D01*
X0057829Y0086461D01*
X0057845Y0086402D01*
X0057865Y0086345D01*
X0057888Y0086290D01*
X0057915Y0086235D01*
X0057944Y0086183D01*
X0057977Y0086132D01*
X0058013Y0086083D01*
X0058051Y0086037D01*
X0058093Y0085993D01*
X0058137Y0085951D01*
X0058183Y0085913D01*
X0058232Y0085877D01*
X0058283Y0085844D01*
X0058335Y0085815D01*
X0058390Y0085788D01*
X0058445Y0085765D01*
X0058502Y0085745D01*
X0058561Y0085729D01*
X0058620Y0085716D01*
X0058679Y0085707D01*
X0058740Y0085702D01*
X0058800Y0085700D01*
X0063800Y0087700D02*
X0066300Y0090200D01*
X0068300Y0088200D02*
X0067800Y0087700D01*
X0067800Y0086700D01*
X0067802Y0086640D01*
X0067807Y0086579D01*
X0067816Y0086520D01*
X0067829Y0086461D01*
X0067845Y0086402D01*
X0067865Y0086345D01*
X0067888Y0086290D01*
X0067915Y0086235D01*
X0067944Y0086183D01*
X0067977Y0086132D01*
X0068013Y0086083D01*
X0068051Y0086037D01*
X0068093Y0085993D01*
X0068137Y0085951D01*
X0068183Y0085913D01*
X0068232Y0085877D01*
X0068283Y0085844D01*
X0068335Y0085815D01*
X0068390Y0085788D01*
X0068445Y0085765D01*
X0068502Y0085745D01*
X0068561Y0085729D01*
X0068620Y0085716D01*
X0068679Y0085707D01*
X0068740Y0085702D01*
X0068800Y0085700D01*
X0068300Y0088200D02*
X0068300Y0097200D01*
X0067800Y0097700D01*
X0067800Y0098700D01*
X0067802Y0098760D01*
X0067807Y0098821D01*
X0067816Y0098880D01*
X0067829Y0098939D01*
X0067845Y0098998D01*
X0067865Y0099055D01*
X0067888Y0099110D01*
X0067915Y0099165D01*
X0067944Y0099217D01*
X0067977Y0099268D01*
X0068013Y0099317D01*
X0068051Y0099363D01*
X0068093Y0099407D01*
X0068137Y0099449D01*
X0068183Y0099487D01*
X0068232Y0099523D01*
X0068283Y0099556D01*
X0068335Y0099585D01*
X0068390Y0099612D01*
X0068445Y0099635D01*
X0068502Y0099655D01*
X0068561Y0099671D01*
X0068620Y0099684D01*
X0068679Y0099693D01*
X0068740Y0099698D01*
X0068800Y0099700D01*
X0073800Y0099700D02*
X0073860Y0099698D01*
X0073921Y0099693D01*
X0073980Y0099684D01*
X0074039Y0099671D01*
X0074098Y0099655D01*
X0074155Y0099635D01*
X0074210Y0099612D01*
X0074265Y0099585D01*
X0074317Y0099556D01*
X0074368Y0099523D01*
X0074417Y0099487D01*
X0074463Y0099449D01*
X0074507Y0099407D01*
X0074549Y0099363D01*
X0074587Y0099317D01*
X0074623Y0099268D01*
X0074656Y0099217D01*
X0074685Y0099165D01*
X0074712Y0099110D01*
X0074735Y0099055D01*
X0074755Y0098998D01*
X0074771Y0098939D01*
X0074784Y0098880D01*
X0074793Y0098821D01*
X0074798Y0098760D01*
X0074800Y0098700D01*
X0074800Y0097700D01*
X0074300Y0097200D01*
X0074300Y0088200D01*
X0074800Y0087700D01*
X0074800Y0086700D01*
X0074798Y0086640D01*
X0074793Y0086579D01*
X0074784Y0086520D01*
X0074771Y0086461D01*
X0074755Y0086402D01*
X0074735Y0086345D01*
X0074712Y0086290D01*
X0074685Y0086235D01*
X0074656Y0086183D01*
X0074623Y0086132D01*
X0074587Y0086083D01*
X0074549Y0086037D01*
X0074507Y0085993D01*
X0074463Y0085951D01*
X0074417Y0085913D01*
X0074368Y0085877D01*
X0074317Y0085844D01*
X0074265Y0085815D01*
X0074210Y0085788D01*
X0074155Y0085765D01*
X0074098Y0085745D01*
X0074039Y0085729D01*
X0073980Y0085716D01*
X0073921Y0085707D01*
X0073860Y0085702D01*
X0073800Y0085700D01*
X0076300Y0090200D02*
X0076300Y0095200D01*
X0078300Y0097200D02*
X0077800Y0097700D01*
X0077800Y0098700D01*
X0077802Y0098760D01*
X0077807Y0098821D01*
X0077816Y0098880D01*
X0077829Y0098939D01*
X0077845Y0098998D01*
X0077865Y0099055D01*
X0077888Y0099110D01*
X0077915Y0099165D01*
X0077944Y0099217D01*
X0077977Y0099268D01*
X0078013Y0099317D01*
X0078051Y0099363D01*
X0078093Y0099407D01*
X0078137Y0099449D01*
X0078183Y0099487D01*
X0078232Y0099523D01*
X0078283Y0099556D01*
X0078335Y0099585D01*
X0078390Y0099612D01*
X0078445Y0099635D01*
X0078502Y0099655D01*
X0078561Y0099671D01*
X0078620Y0099684D01*
X0078679Y0099693D01*
X0078740Y0099698D01*
X0078800Y0099700D01*
X0078300Y0097200D02*
X0078300Y0088200D01*
X0077800Y0087700D01*
X0077800Y0086700D01*
X0077802Y0086640D01*
X0077807Y0086579D01*
X0077816Y0086520D01*
X0077829Y0086461D01*
X0077845Y0086402D01*
X0077865Y0086345D01*
X0077888Y0086290D01*
X0077915Y0086235D01*
X0077944Y0086183D01*
X0077977Y0086132D01*
X0078013Y0086083D01*
X0078051Y0086037D01*
X0078093Y0085993D01*
X0078137Y0085951D01*
X0078183Y0085913D01*
X0078232Y0085877D01*
X0078283Y0085844D01*
X0078335Y0085815D01*
X0078390Y0085788D01*
X0078445Y0085765D01*
X0078502Y0085745D01*
X0078561Y0085729D01*
X0078620Y0085716D01*
X0078679Y0085707D01*
X0078740Y0085702D01*
X0078800Y0085700D01*
X0083800Y0085700D02*
X0083860Y0085702D01*
X0083921Y0085707D01*
X0083980Y0085716D01*
X0084039Y0085729D01*
X0084098Y0085745D01*
X0084155Y0085765D01*
X0084210Y0085788D01*
X0084265Y0085815D01*
X0084317Y0085844D01*
X0084368Y0085877D01*
X0084417Y0085913D01*
X0084463Y0085951D01*
X0084507Y0085993D01*
X0084549Y0086037D01*
X0084587Y0086083D01*
X0084623Y0086132D01*
X0084656Y0086183D01*
X0084685Y0086235D01*
X0084712Y0086290D01*
X0084735Y0086345D01*
X0084755Y0086402D01*
X0084771Y0086461D01*
X0084784Y0086520D01*
X0084793Y0086579D01*
X0084798Y0086640D01*
X0084800Y0086700D01*
X0084800Y0087700D01*
X0084300Y0088200D01*
X0084300Y0097200D01*
X0084800Y0097700D01*
X0084800Y0098700D01*
X0084798Y0098760D01*
X0084793Y0098821D01*
X0084784Y0098880D01*
X0084771Y0098939D01*
X0084755Y0098998D01*
X0084735Y0099055D01*
X0084712Y0099110D01*
X0084685Y0099165D01*
X0084656Y0099217D01*
X0084623Y0099268D01*
X0084587Y0099317D01*
X0084549Y0099363D01*
X0084507Y0099407D01*
X0084463Y0099449D01*
X0084417Y0099487D01*
X0084368Y0099523D01*
X0084317Y0099556D01*
X0084265Y0099585D01*
X0084210Y0099612D01*
X0084155Y0099635D01*
X0084098Y0099655D01*
X0084039Y0099671D01*
X0083980Y0099684D01*
X0083921Y0099693D01*
X0083860Y0099698D01*
X0083800Y0099700D01*
X0083800Y0107700D02*
X0078800Y0107700D01*
X0076300Y0110200D01*
X0073800Y0107700D01*
X0068800Y0107700D01*
X0066300Y0110200D01*
X0063800Y0107700D01*
X0058800Y0107700D01*
X0056300Y0110200D01*
X0053800Y0107700D01*
X0048800Y0107700D01*
X0046300Y0110200D01*
X0043800Y0107700D01*
X0038800Y0107700D01*
X0036300Y0110200D01*
X0033800Y0107700D01*
X0028800Y0107700D01*
X0026300Y0110200D01*
X0023800Y0107700D01*
X0018800Y0107700D01*
X0016300Y0110200D01*
X0016300Y0115200D01*
X0018800Y0117700D01*
X0023800Y0117700D01*
X0026300Y0115200D01*
X0028800Y0117700D01*
X0033800Y0117700D01*
X0036300Y0115200D01*
X0038800Y0117700D01*
X0043800Y0117700D01*
X0046300Y0115200D01*
X0046300Y0110200D01*
X0046300Y0115200D01*
X0048800Y0117700D01*
X0053800Y0117700D01*
X0056300Y0115200D01*
X0058800Y0117700D01*
X0063800Y0117700D01*
X0066300Y0115200D01*
X0066300Y0110200D01*
X0066300Y0115200D02*
X0068800Y0117700D01*
X0073800Y0117700D01*
X0076300Y0115200D01*
X0078800Y0117700D01*
X0083800Y0117700D01*
X0086300Y0115200D01*
X0086300Y0110200D01*
X0083800Y0107700D01*
X0076300Y0110200D02*
X0076300Y0115200D01*
X0058800Y0099700D02*
X0058740Y0099698D01*
X0058679Y0099693D01*
X0058620Y0099684D01*
X0058561Y0099671D01*
X0058502Y0099655D01*
X0058445Y0099635D01*
X0058390Y0099612D01*
X0058335Y0099585D01*
X0058283Y0099556D01*
X0058232Y0099523D01*
X0058183Y0099487D01*
X0058137Y0099449D01*
X0058093Y0099407D01*
X0058051Y0099363D01*
X0058013Y0099317D01*
X0057977Y0099268D01*
X0057944Y0099217D01*
X0057915Y0099165D01*
X0057888Y0099110D01*
X0057865Y0099055D01*
X0057845Y0098998D01*
X0057829Y0098939D01*
X0057816Y0098880D01*
X0057807Y0098821D01*
X0057802Y0098760D01*
X0057800Y0098700D01*
X0057800Y0097700D01*
X0058300Y0097200D01*
X0056300Y0110200D02*
X0056300Y0115200D01*
X0038800Y0099700D02*
X0038740Y0099698D01*
X0038679Y0099693D01*
X0038620Y0099684D01*
X0038561Y0099671D01*
X0038502Y0099655D01*
X0038445Y0099635D01*
X0038390Y0099612D01*
X0038335Y0099585D01*
X0038283Y0099556D01*
X0038232Y0099523D01*
X0038183Y0099487D01*
X0038137Y0099449D01*
X0038093Y0099407D01*
X0038051Y0099363D01*
X0038013Y0099317D01*
X0037977Y0099268D01*
X0037944Y0099217D01*
X0037915Y0099165D01*
X0037888Y0099110D01*
X0037865Y0099055D01*
X0037845Y0098998D01*
X0037829Y0098939D01*
X0037816Y0098880D01*
X0037807Y0098821D01*
X0037802Y0098760D01*
X0037800Y0098700D01*
X0037800Y0097700D01*
X0038300Y0097200D01*
X0038300Y0088200D01*
X0037800Y0087700D01*
X0037800Y0086700D01*
X0037802Y0086640D01*
X0037807Y0086579D01*
X0037816Y0086520D01*
X0037829Y0086461D01*
X0037845Y0086402D01*
X0037865Y0086345D01*
X0037888Y0086290D01*
X0037915Y0086235D01*
X0037944Y0086183D01*
X0037977Y0086132D01*
X0038013Y0086083D01*
X0038051Y0086037D01*
X0038093Y0085993D01*
X0038137Y0085951D01*
X0038183Y0085913D01*
X0038232Y0085877D01*
X0038283Y0085844D01*
X0038335Y0085815D01*
X0038390Y0085788D01*
X0038445Y0085765D01*
X0038502Y0085745D01*
X0038561Y0085729D01*
X0038620Y0085716D01*
X0038679Y0085707D01*
X0038740Y0085702D01*
X0038800Y0085700D01*
X0036300Y0090200D02*
X0033800Y0087700D01*
X0028800Y0087700D01*
X0026300Y0090200D01*
X0023800Y0087700D01*
X0018800Y0087700D01*
X0016300Y0090200D01*
X0016300Y0095200D01*
X0018800Y0097700D01*
X0023800Y0097700D01*
X0026300Y0095200D01*
X0028800Y0097700D01*
X0033800Y0097700D01*
X0036300Y0095200D01*
X0034300Y0097200D02*
X0034300Y0088200D01*
X0034800Y0087700D01*
X0034800Y0086700D01*
X0034798Y0086640D01*
X0034793Y0086579D01*
X0034784Y0086520D01*
X0034771Y0086461D01*
X0034755Y0086402D01*
X0034735Y0086345D01*
X0034712Y0086290D01*
X0034685Y0086235D01*
X0034656Y0086183D01*
X0034623Y0086132D01*
X0034587Y0086083D01*
X0034549Y0086037D01*
X0034507Y0085993D01*
X0034463Y0085951D01*
X0034417Y0085913D01*
X0034368Y0085877D01*
X0034317Y0085844D01*
X0034265Y0085815D01*
X0034210Y0085788D01*
X0034155Y0085765D01*
X0034098Y0085745D01*
X0034039Y0085729D01*
X0033980Y0085716D01*
X0033921Y0085707D01*
X0033860Y0085702D01*
X0033800Y0085700D01*
X0028800Y0085700D02*
X0028740Y0085702D01*
X0028679Y0085707D01*
X0028620Y0085716D01*
X0028561Y0085729D01*
X0028502Y0085745D01*
X0028445Y0085765D01*
X0028390Y0085788D01*
X0028335Y0085815D01*
X0028283Y0085844D01*
X0028232Y0085877D01*
X0028183Y0085913D01*
X0028137Y0085951D01*
X0028093Y0085993D01*
X0028051Y0086037D01*
X0028013Y0086083D01*
X0027977Y0086132D01*
X0027944Y0086183D01*
X0027915Y0086235D01*
X0027888Y0086290D01*
X0027865Y0086345D01*
X0027845Y0086402D01*
X0027829Y0086461D01*
X0027816Y0086520D01*
X0027807Y0086579D01*
X0027802Y0086640D01*
X0027800Y0086700D01*
X0027800Y0087700D01*
X0028300Y0088200D01*
X0028300Y0097200D01*
X0027800Y0097700D01*
X0027800Y0098700D01*
X0027802Y0098760D01*
X0027807Y0098821D01*
X0027816Y0098880D01*
X0027829Y0098939D01*
X0027845Y0098998D01*
X0027865Y0099055D01*
X0027888Y0099110D01*
X0027915Y0099165D01*
X0027944Y0099217D01*
X0027977Y0099268D01*
X0028013Y0099317D01*
X0028051Y0099363D01*
X0028093Y0099407D01*
X0028137Y0099449D01*
X0028183Y0099487D01*
X0028232Y0099523D01*
X0028283Y0099556D01*
X0028335Y0099585D01*
X0028390Y0099612D01*
X0028445Y0099635D01*
X0028502Y0099655D01*
X0028561Y0099671D01*
X0028620Y0099684D01*
X0028679Y0099693D01*
X0028740Y0099698D01*
X0028800Y0099700D01*
X0026300Y0095200D02*
X0026300Y0090200D01*
X0024300Y0088200D02*
X0024800Y0087700D01*
X0024800Y0086700D01*
X0024798Y0086640D01*
X0024793Y0086579D01*
X0024784Y0086520D01*
X0024771Y0086461D01*
X0024755Y0086402D01*
X0024735Y0086345D01*
X0024712Y0086290D01*
X0024685Y0086235D01*
X0024656Y0086183D01*
X0024623Y0086132D01*
X0024587Y0086083D01*
X0024549Y0086037D01*
X0024507Y0085993D01*
X0024463Y0085951D01*
X0024417Y0085913D01*
X0024368Y0085877D01*
X0024317Y0085844D01*
X0024265Y0085815D01*
X0024210Y0085788D01*
X0024155Y0085765D01*
X0024098Y0085745D01*
X0024039Y0085729D01*
X0023980Y0085716D01*
X0023921Y0085707D01*
X0023860Y0085702D01*
X0023800Y0085700D01*
X0024300Y0088200D02*
X0024300Y0097200D01*
X0024800Y0097700D01*
X0024800Y0098700D01*
X0024798Y0098760D01*
X0024793Y0098821D01*
X0024784Y0098880D01*
X0024771Y0098939D01*
X0024755Y0098998D01*
X0024735Y0099055D01*
X0024712Y0099110D01*
X0024685Y0099165D01*
X0024656Y0099217D01*
X0024623Y0099268D01*
X0024587Y0099317D01*
X0024549Y0099363D01*
X0024507Y0099407D01*
X0024463Y0099449D01*
X0024417Y0099487D01*
X0024368Y0099523D01*
X0024317Y0099556D01*
X0024265Y0099585D01*
X0024210Y0099612D01*
X0024155Y0099635D01*
X0024098Y0099655D01*
X0024039Y0099671D01*
X0023980Y0099684D01*
X0023921Y0099693D01*
X0023860Y0099698D01*
X0023800Y0099700D01*
X0018800Y0099700D02*
X0018740Y0099698D01*
X0018679Y0099693D01*
X0018620Y0099684D01*
X0018561Y0099671D01*
X0018502Y0099655D01*
X0018445Y0099635D01*
X0018390Y0099612D01*
X0018335Y0099585D01*
X0018283Y0099556D01*
X0018232Y0099523D01*
X0018183Y0099487D01*
X0018137Y0099449D01*
X0018093Y0099407D01*
X0018051Y0099363D01*
X0018013Y0099317D01*
X0017977Y0099268D01*
X0017944Y0099217D01*
X0017915Y0099165D01*
X0017888Y0099110D01*
X0017865Y0099055D01*
X0017845Y0098998D01*
X0017829Y0098939D01*
X0017816Y0098880D01*
X0017807Y0098821D01*
X0017802Y0098760D01*
X0017800Y0098700D01*
X0017800Y0097700D01*
X0018300Y0097200D01*
X0018300Y0088200D01*
X0017800Y0087700D01*
X0017800Y0086700D01*
X0017802Y0086640D01*
X0017807Y0086579D01*
X0017816Y0086520D01*
X0017829Y0086461D01*
X0017845Y0086402D01*
X0017865Y0086345D01*
X0017888Y0086290D01*
X0017915Y0086235D01*
X0017944Y0086183D01*
X0017977Y0086132D01*
X0018013Y0086083D01*
X0018051Y0086037D01*
X0018093Y0085993D01*
X0018137Y0085951D01*
X0018183Y0085913D01*
X0018232Y0085877D01*
X0018283Y0085844D01*
X0018335Y0085815D01*
X0018390Y0085788D01*
X0018445Y0085765D01*
X0018502Y0085745D01*
X0018561Y0085729D01*
X0018620Y0085716D01*
X0018679Y0085707D01*
X0018740Y0085702D01*
X0018800Y0085700D01*
X0033800Y0099700D02*
X0033860Y0099698D01*
X0033921Y0099693D01*
X0033980Y0099684D01*
X0034039Y0099671D01*
X0034098Y0099655D01*
X0034155Y0099635D01*
X0034210Y0099612D01*
X0034265Y0099585D01*
X0034317Y0099556D01*
X0034368Y0099523D01*
X0034417Y0099487D01*
X0034463Y0099449D01*
X0034507Y0099407D01*
X0034549Y0099363D01*
X0034587Y0099317D01*
X0034623Y0099268D01*
X0034656Y0099217D01*
X0034685Y0099165D01*
X0034712Y0099110D01*
X0034735Y0099055D01*
X0034755Y0098998D01*
X0034771Y0098939D01*
X0034784Y0098880D01*
X0034793Y0098821D01*
X0034798Y0098760D01*
X0034800Y0098700D01*
X0034800Y0097700D01*
X0034300Y0097200D01*
X0036300Y0110200D02*
X0036300Y0115200D01*
X0026300Y0115200D02*
X0026300Y0110200D01*
X0044800Y0086700D02*
X0044798Y0086640D01*
X0044793Y0086579D01*
X0044784Y0086520D01*
X0044771Y0086461D01*
X0044755Y0086402D01*
X0044735Y0086345D01*
X0044712Y0086290D01*
X0044685Y0086235D01*
X0044656Y0086183D01*
X0044623Y0086132D01*
X0044587Y0086083D01*
X0044549Y0086037D01*
X0044507Y0085993D01*
X0044463Y0085951D01*
X0044417Y0085913D01*
X0044368Y0085877D01*
X0044317Y0085844D01*
X0044265Y0085815D01*
X0044210Y0085788D01*
X0044155Y0085765D01*
X0044098Y0085745D01*
X0044039Y0085729D01*
X0043980Y0085716D01*
X0043921Y0085707D01*
X0043860Y0085702D01*
X0043800Y0085700D01*
X0056300Y0068700D02*
X0056454Y0068698D01*
X0056608Y0068692D01*
X0056762Y0068682D01*
X0056916Y0068668D01*
X0057069Y0068651D01*
X0057221Y0068629D01*
X0057373Y0068603D01*
X0057525Y0068574D01*
X0057675Y0068540D01*
X0057825Y0068503D01*
X0057973Y0068462D01*
X0058121Y0068417D01*
X0058267Y0068368D01*
X0058412Y0068316D01*
X0058555Y0068260D01*
X0058698Y0068200D01*
X0058838Y0068137D01*
X0058977Y0068070D01*
X0059114Y0067999D01*
X0059249Y0067925D01*
X0059382Y0067848D01*
X0059514Y0067767D01*
X0059643Y0067683D01*
X0059770Y0067595D01*
X0059894Y0067504D01*
X0060016Y0067411D01*
X0060136Y0067313D01*
X0060253Y0067213D01*
X0060368Y0067110D01*
X0060480Y0067004D01*
X0060589Y0066896D01*
X0060695Y0066784D01*
X0060799Y0066670D01*
X0060899Y0066553D01*
X0060997Y0066434D01*
X0061091Y0066312D01*
X0061182Y0066187D01*
X0056300Y0056700D02*
X0056148Y0056702D01*
X0055997Y0056708D01*
X0055846Y0056717D01*
X0055694Y0056731D01*
X0055544Y0056748D01*
X0055394Y0056769D01*
X0055244Y0056794D01*
X0055095Y0056822D01*
X0054947Y0056855D01*
X0054800Y0056891D01*
X0054653Y0056930D01*
X0054508Y0056974D01*
X0054364Y0057021D01*
X0054221Y0057072D01*
X0054080Y0057126D01*
X0053939Y0057184D01*
X0053801Y0057245D01*
X0053664Y0057310D01*
X0053528Y0057379D01*
X0053395Y0057450D01*
X0053263Y0057525D01*
X0053133Y0057604D01*
X0053006Y0057685D01*
X0052880Y0057770D01*
X0052756Y0057858D01*
X0052635Y0057949D01*
X0052516Y0058043D01*
X0052400Y0058141D01*
X0052286Y0058241D01*
X0052174Y0058343D01*
X0052066Y0058449D01*
X0051960Y0058557D01*
X0051856Y0058668D01*
X0051756Y0058782D01*
X0051658Y0058898D01*
X0051564Y0059017D01*
X0056300Y0056700D02*
X0056452Y0056702D01*
X0056603Y0056708D01*
X0056754Y0056717D01*
X0056906Y0056731D01*
X0057056Y0056748D01*
X0057206Y0056769D01*
X0057356Y0056794D01*
X0057505Y0056822D01*
X0057653Y0056855D01*
X0057800Y0056891D01*
X0057947Y0056930D01*
X0058092Y0056974D01*
X0058236Y0057021D01*
X0058379Y0057072D01*
X0058520Y0057126D01*
X0058661Y0057184D01*
X0058799Y0057245D01*
X0058936Y0057310D01*
X0059072Y0057379D01*
X0059205Y0057450D01*
X0059337Y0057525D01*
X0059467Y0057604D01*
X0059594Y0057685D01*
X0059720Y0057770D01*
X0059844Y0057858D01*
X0059965Y0057949D01*
X0060084Y0058043D01*
X0060200Y0058141D01*
X0060314Y0058241D01*
X0060426Y0058343D01*
X0060534Y0058449D01*
X0060640Y0058557D01*
X0060744Y0058668D01*
X0060844Y0058782D01*
X0060942Y0058898D01*
X0061036Y0059017D01*
X0056300Y0068700D02*
X0056150Y0068698D01*
X0055999Y0068692D01*
X0055849Y0068683D01*
X0055700Y0068670D01*
X0055550Y0068653D01*
X0055401Y0068632D01*
X0055253Y0068608D01*
X0055105Y0068580D01*
X0054958Y0068548D01*
X0054812Y0068513D01*
X0054667Y0068473D01*
X0054523Y0068431D01*
X0054380Y0068384D01*
X0054238Y0068334D01*
X0054097Y0068281D01*
X0053958Y0068224D01*
X0053820Y0068164D01*
X0053684Y0068100D01*
X0053550Y0068033D01*
X0053417Y0067962D01*
X0053286Y0067888D01*
X0053157Y0067811D01*
X0053030Y0067730D01*
X0052905Y0067647D01*
X0052782Y0067560D01*
X0052661Y0067471D01*
X0052543Y0067378D01*
X0052427Y0067282D01*
X0052313Y0067184D01*
X0052202Y0067083D01*
X0052093Y0066978D01*
X0051988Y0066872D01*
X0051884Y0066762D01*
X0051784Y0066650D01*
X0051686Y0066536D01*
X0051592Y0066419D01*
X0051500Y0066300D01*
X0056300Y0048700D02*
X0056454Y0048698D01*
X0056608Y0048692D01*
X0056762Y0048682D01*
X0056916Y0048668D01*
X0057069Y0048651D01*
X0057221Y0048629D01*
X0057373Y0048603D01*
X0057525Y0048574D01*
X0057675Y0048540D01*
X0057825Y0048503D01*
X0057973Y0048462D01*
X0058121Y0048417D01*
X0058267Y0048368D01*
X0058412Y0048316D01*
X0058555Y0048260D01*
X0058698Y0048200D01*
X0058838Y0048137D01*
X0058977Y0048070D01*
X0059114Y0047999D01*
X0059249Y0047925D01*
X0059382Y0047848D01*
X0059514Y0047767D01*
X0059643Y0047683D01*
X0059770Y0047595D01*
X0059894Y0047504D01*
X0060016Y0047411D01*
X0060136Y0047313D01*
X0060253Y0047213D01*
X0060368Y0047110D01*
X0060480Y0047004D01*
X0060589Y0046896D01*
X0060695Y0046784D01*
X0060799Y0046670D01*
X0060899Y0046553D01*
X0060997Y0046434D01*
X0061091Y0046312D01*
X0061182Y0046187D01*
X0056300Y0036700D02*
X0056148Y0036702D01*
X0055997Y0036708D01*
X0055846Y0036717D01*
X0055694Y0036731D01*
X0055544Y0036748D01*
X0055394Y0036769D01*
X0055244Y0036794D01*
X0055095Y0036822D01*
X0054947Y0036855D01*
X0054800Y0036891D01*
X0054653Y0036930D01*
X0054508Y0036974D01*
X0054364Y0037021D01*
X0054221Y0037072D01*
X0054080Y0037126D01*
X0053939Y0037184D01*
X0053801Y0037245D01*
X0053664Y0037310D01*
X0053528Y0037379D01*
X0053395Y0037450D01*
X0053263Y0037525D01*
X0053133Y0037604D01*
X0053006Y0037685D01*
X0052880Y0037770D01*
X0052756Y0037858D01*
X0052635Y0037949D01*
X0052516Y0038043D01*
X0052400Y0038141D01*
X0052286Y0038241D01*
X0052174Y0038343D01*
X0052066Y0038449D01*
X0051960Y0038557D01*
X0051856Y0038668D01*
X0051756Y0038782D01*
X0051658Y0038898D01*
X0051564Y0039017D01*
X0056300Y0036700D02*
X0056452Y0036702D01*
X0056603Y0036708D01*
X0056754Y0036717D01*
X0056906Y0036731D01*
X0057056Y0036748D01*
X0057206Y0036769D01*
X0057356Y0036794D01*
X0057505Y0036822D01*
X0057653Y0036855D01*
X0057800Y0036891D01*
X0057947Y0036930D01*
X0058092Y0036974D01*
X0058236Y0037021D01*
X0058379Y0037072D01*
X0058520Y0037126D01*
X0058661Y0037184D01*
X0058799Y0037245D01*
X0058936Y0037310D01*
X0059072Y0037379D01*
X0059205Y0037450D01*
X0059337Y0037525D01*
X0059467Y0037604D01*
X0059594Y0037685D01*
X0059720Y0037770D01*
X0059844Y0037858D01*
X0059965Y0037949D01*
X0060084Y0038043D01*
X0060200Y0038141D01*
X0060314Y0038241D01*
X0060426Y0038343D01*
X0060534Y0038449D01*
X0060640Y0038557D01*
X0060744Y0038668D01*
X0060844Y0038782D01*
X0060942Y0038898D01*
X0061036Y0039017D01*
X0056300Y0048700D02*
X0056150Y0048698D01*
X0055999Y0048692D01*
X0055849Y0048683D01*
X0055700Y0048670D01*
X0055550Y0048653D01*
X0055401Y0048632D01*
X0055253Y0048608D01*
X0055105Y0048580D01*
X0054958Y0048548D01*
X0054812Y0048513D01*
X0054667Y0048473D01*
X0054523Y0048431D01*
X0054380Y0048384D01*
X0054238Y0048334D01*
X0054097Y0048281D01*
X0053958Y0048224D01*
X0053820Y0048164D01*
X0053684Y0048100D01*
X0053550Y0048033D01*
X0053417Y0047962D01*
X0053286Y0047888D01*
X0053157Y0047811D01*
X0053030Y0047730D01*
X0052905Y0047647D01*
X0052782Y0047560D01*
X0052661Y0047471D01*
X0052543Y0047378D01*
X0052427Y0047282D01*
X0052313Y0047184D01*
X0052202Y0047083D01*
X0052093Y0046978D01*
X0051988Y0046872D01*
X0051884Y0046762D01*
X0051784Y0046650D01*
X0051686Y0046536D01*
X0051592Y0046419D01*
X0051500Y0046300D01*
X0064300Y0026700D02*
X0064300Y0025700D01*
X0063300Y0025700D01*
X0063300Y0019700D01*
X0064300Y0019700D01*
X0064300Y0018700D01*
X0067800Y0010700D02*
X0071300Y0010700D01*
X0081300Y0010700D01*
X0084800Y0010700D01*
X0088300Y0018700D02*
X0088300Y0019700D01*
X0089300Y0019700D01*
X0089300Y0025700D01*
X0088300Y0025700D01*
X0088300Y0026700D01*
X0084800Y0034700D02*
X0081300Y0034700D01*
X0071800Y0034700D01*
X0067800Y0034700D01*
X0076300Y0048700D02*
X0076454Y0048698D01*
X0076608Y0048692D01*
X0076762Y0048682D01*
X0076916Y0048668D01*
X0077069Y0048651D01*
X0077221Y0048629D01*
X0077373Y0048603D01*
X0077525Y0048574D01*
X0077675Y0048540D01*
X0077825Y0048503D01*
X0077973Y0048462D01*
X0078121Y0048417D01*
X0078267Y0048368D01*
X0078412Y0048316D01*
X0078555Y0048260D01*
X0078698Y0048200D01*
X0078838Y0048137D01*
X0078977Y0048070D01*
X0079114Y0047999D01*
X0079249Y0047925D01*
X0079382Y0047848D01*
X0079514Y0047767D01*
X0079643Y0047683D01*
X0079770Y0047595D01*
X0079894Y0047504D01*
X0080016Y0047411D01*
X0080136Y0047313D01*
X0080253Y0047213D01*
X0080368Y0047110D01*
X0080480Y0047004D01*
X0080589Y0046896D01*
X0080695Y0046784D01*
X0080799Y0046670D01*
X0080899Y0046553D01*
X0080997Y0046434D01*
X0081091Y0046312D01*
X0081182Y0046187D01*
X0076300Y0036700D02*
X0076148Y0036702D01*
X0075997Y0036708D01*
X0075846Y0036717D01*
X0075694Y0036731D01*
X0075544Y0036748D01*
X0075394Y0036769D01*
X0075244Y0036794D01*
X0075095Y0036822D01*
X0074947Y0036855D01*
X0074800Y0036891D01*
X0074653Y0036930D01*
X0074508Y0036974D01*
X0074364Y0037021D01*
X0074221Y0037072D01*
X0074080Y0037126D01*
X0073939Y0037184D01*
X0073801Y0037245D01*
X0073664Y0037310D01*
X0073528Y0037379D01*
X0073395Y0037450D01*
X0073263Y0037525D01*
X0073133Y0037604D01*
X0073006Y0037685D01*
X0072880Y0037770D01*
X0072756Y0037858D01*
X0072635Y0037949D01*
X0072516Y0038043D01*
X0072400Y0038141D01*
X0072286Y0038241D01*
X0072174Y0038343D01*
X0072066Y0038449D01*
X0071960Y0038557D01*
X0071856Y0038668D01*
X0071756Y0038782D01*
X0071658Y0038898D01*
X0071564Y0039017D01*
X0076300Y0036700D02*
X0076452Y0036702D01*
X0076603Y0036708D01*
X0076754Y0036717D01*
X0076906Y0036731D01*
X0077056Y0036748D01*
X0077206Y0036769D01*
X0077356Y0036794D01*
X0077505Y0036822D01*
X0077653Y0036855D01*
X0077800Y0036891D01*
X0077947Y0036930D01*
X0078092Y0036974D01*
X0078236Y0037021D01*
X0078379Y0037072D01*
X0078520Y0037126D01*
X0078661Y0037184D01*
X0078799Y0037245D01*
X0078936Y0037310D01*
X0079072Y0037379D01*
X0079205Y0037450D01*
X0079337Y0037525D01*
X0079467Y0037604D01*
X0079594Y0037685D01*
X0079720Y0037770D01*
X0079844Y0037858D01*
X0079965Y0037949D01*
X0080084Y0038043D01*
X0080200Y0038141D01*
X0080314Y0038241D01*
X0080426Y0038343D01*
X0080534Y0038449D01*
X0080640Y0038557D01*
X0080744Y0038668D01*
X0080844Y0038782D01*
X0080942Y0038898D01*
X0081036Y0039017D01*
X0076300Y0048700D02*
X0076150Y0048698D01*
X0075999Y0048692D01*
X0075849Y0048683D01*
X0075700Y0048670D01*
X0075550Y0048653D01*
X0075401Y0048632D01*
X0075253Y0048608D01*
X0075105Y0048580D01*
X0074958Y0048548D01*
X0074812Y0048513D01*
X0074667Y0048473D01*
X0074523Y0048431D01*
X0074380Y0048384D01*
X0074238Y0048334D01*
X0074097Y0048281D01*
X0073958Y0048224D01*
X0073820Y0048164D01*
X0073684Y0048100D01*
X0073550Y0048033D01*
X0073417Y0047962D01*
X0073286Y0047888D01*
X0073157Y0047811D01*
X0073030Y0047730D01*
X0072905Y0047647D01*
X0072782Y0047560D01*
X0072661Y0047471D01*
X0072543Y0047378D01*
X0072427Y0047282D01*
X0072313Y0047184D01*
X0072202Y0047083D01*
X0072093Y0046978D01*
X0071988Y0046872D01*
X0071884Y0046762D01*
X0071784Y0046650D01*
X0071686Y0046536D01*
X0071592Y0046419D01*
X0071500Y0046300D01*
X0081182Y0066187D02*
X0081091Y0066312D01*
X0080997Y0066434D01*
X0080899Y0066553D01*
X0080799Y0066670D01*
X0080695Y0066784D01*
X0080589Y0066896D01*
X0080480Y0067004D01*
X0080368Y0067110D01*
X0080253Y0067213D01*
X0080136Y0067313D01*
X0080016Y0067411D01*
X0079894Y0067504D01*
X0079770Y0067595D01*
X0079643Y0067683D01*
X0079514Y0067767D01*
X0079382Y0067848D01*
X0079249Y0067925D01*
X0079114Y0067999D01*
X0078977Y0068070D01*
X0078838Y0068137D01*
X0078698Y0068200D01*
X0078555Y0068260D01*
X0078412Y0068316D01*
X0078267Y0068368D01*
X0078121Y0068417D01*
X0077973Y0068462D01*
X0077825Y0068503D01*
X0077675Y0068540D01*
X0077525Y0068574D01*
X0077373Y0068603D01*
X0077221Y0068629D01*
X0077069Y0068651D01*
X0076916Y0068668D01*
X0076762Y0068682D01*
X0076608Y0068692D01*
X0076454Y0068698D01*
X0076300Y0068700D01*
X0071564Y0059017D02*
X0071658Y0058898D01*
X0071756Y0058782D01*
X0071856Y0058668D01*
X0071960Y0058557D01*
X0072066Y0058449D01*
X0072174Y0058343D01*
X0072286Y0058241D01*
X0072400Y0058141D01*
X0072516Y0058043D01*
X0072635Y0057949D01*
X0072756Y0057858D01*
X0072880Y0057770D01*
X0073006Y0057685D01*
X0073133Y0057604D01*
X0073263Y0057525D01*
X0073395Y0057450D01*
X0073528Y0057379D01*
X0073664Y0057310D01*
X0073801Y0057245D01*
X0073939Y0057184D01*
X0074080Y0057126D01*
X0074221Y0057072D01*
X0074364Y0057021D01*
X0074508Y0056974D01*
X0074653Y0056930D01*
X0074800Y0056891D01*
X0074947Y0056855D01*
X0075095Y0056822D01*
X0075244Y0056794D01*
X0075394Y0056769D01*
X0075544Y0056748D01*
X0075694Y0056731D01*
X0075846Y0056717D01*
X0075997Y0056708D01*
X0076148Y0056702D01*
X0076300Y0056700D01*
X0071500Y0066300D02*
X0071592Y0066419D01*
X0071686Y0066536D01*
X0071784Y0066650D01*
X0071884Y0066762D01*
X0071988Y0066872D01*
X0072093Y0066978D01*
X0072202Y0067083D01*
X0072313Y0067184D01*
X0072427Y0067282D01*
X0072543Y0067378D01*
X0072661Y0067471D01*
X0072782Y0067560D01*
X0072905Y0067647D01*
X0073030Y0067730D01*
X0073157Y0067811D01*
X0073286Y0067888D01*
X0073417Y0067962D01*
X0073550Y0068033D01*
X0073684Y0068100D01*
X0073820Y0068164D01*
X0073958Y0068224D01*
X0074097Y0068281D01*
X0074238Y0068334D01*
X0074380Y0068384D01*
X0074523Y0068431D01*
X0074667Y0068473D01*
X0074812Y0068513D01*
X0074958Y0068548D01*
X0075105Y0068580D01*
X0075253Y0068608D01*
X0075401Y0068632D01*
X0075550Y0068653D01*
X0075700Y0068670D01*
X0075849Y0068683D01*
X0075999Y0068692D01*
X0076150Y0068698D01*
X0076300Y0068700D01*
X0081036Y0059017D02*
X0080942Y0058898D01*
X0080844Y0058782D01*
X0080744Y0058668D01*
X0080640Y0058557D01*
X0080534Y0058449D01*
X0080426Y0058343D01*
X0080314Y0058241D01*
X0080200Y0058141D01*
X0080084Y0058043D01*
X0079965Y0057949D01*
X0079844Y0057858D01*
X0079720Y0057770D01*
X0079594Y0057685D01*
X0079467Y0057604D01*
X0079337Y0057525D01*
X0079205Y0057450D01*
X0079072Y0057379D01*
X0078936Y0057310D01*
X0078799Y0057245D01*
X0078661Y0057184D01*
X0078520Y0057126D01*
X0078379Y0057072D01*
X0078236Y0057021D01*
X0078092Y0056974D01*
X0077947Y0056930D01*
X0077800Y0056891D01*
X0077653Y0056855D01*
X0077505Y0056822D01*
X0077356Y0056794D01*
X0077206Y0056769D01*
X0077056Y0056748D01*
X0076906Y0056731D01*
X0076754Y0056717D01*
X0076603Y0056708D01*
X0076452Y0056702D01*
X0076300Y0056700D01*
X0075300Y0022700D02*
X0075302Y0022763D01*
X0075308Y0022825D01*
X0075318Y0022887D01*
X0075331Y0022949D01*
X0075349Y0023009D01*
X0075370Y0023068D01*
X0075395Y0023126D01*
X0075424Y0023182D01*
X0075456Y0023236D01*
X0075491Y0023288D01*
X0075529Y0023337D01*
X0075571Y0023385D01*
X0075615Y0023429D01*
X0075663Y0023471D01*
X0075712Y0023509D01*
X0075764Y0023544D01*
X0075818Y0023576D01*
X0075874Y0023605D01*
X0075932Y0023630D01*
X0075991Y0023651D01*
X0076051Y0023669D01*
X0076113Y0023682D01*
X0076175Y0023692D01*
X0076237Y0023698D01*
X0076300Y0023700D01*
X0076363Y0023698D01*
X0076425Y0023692D01*
X0076487Y0023682D01*
X0076549Y0023669D01*
X0076609Y0023651D01*
X0076668Y0023630D01*
X0076726Y0023605D01*
X0076782Y0023576D01*
X0076836Y0023544D01*
X0076888Y0023509D01*
X0076937Y0023471D01*
X0076985Y0023429D01*
X0077029Y0023385D01*
X0077071Y0023337D01*
X0077109Y0023288D01*
X0077144Y0023236D01*
X0077176Y0023182D01*
X0077205Y0023126D01*
X0077230Y0023068D01*
X0077251Y0023009D01*
X0077269Y0022949D01*
X0077282Y0022887D01*
X0077292Y0022825D01*
X0077298Y0022763D01*
X0077300Y0022700D01*
X0077298Y0022637D01*
X0077292Y0022575D01*
X0077282Y0022513D01*
X0077269Y0022451D01*
X0077251Y0022391D01*
X0077230Y0022332D01*
X0077205Y0022274D01*
X0077176Y0022218D01*
X0077144Y0022164D01*
X0077109Y0022112D01*
X0077071Y0022063D01*
X0077029Y0022015D01*
X0076985Y0021971D01*
X0076937Y0021929D01*
X0076888Y0021891D01*
X0076836Y0021856D01*
X0076782Y0021824D01*
X0076726Y0021795D01*
X0076668Y0021770D01*
X0076609Y0021749D01*
X0076549Y0021731D01*
X0076487Y0021718D01*
X0076425Y0021708D01*
X0076363Y0021702D01*
X0076300Y0021700D01*
X0076237Y0021702D01*
X0076175Y0021708D01*
X0076113Y0021718D01*
X0076051Y0021731D01*
X0075991Y0021749D01*
X0075932Y0021770D01*
X0075874Y0021795D01*
X0075818Y0021824D01*
X0075764Y0021856D01*
X0075712Y0021891D01*
X0075663Y0021929D01*
X0075615Y0021971D01*
X0075571Y0022015D01*
X0075529Y0022063D01*
X0075491Y0022112D01*
X0075456Y0022164D01*
X0075424Y0022218D01*
X0075395Y0022274D01*
X0075370Y0022332D01*
X0075349Y0022391D01*
X0075331Y0022451D01*
X0075318Y0022513D01*
X0075308Y0022575D01*
X0075302Y0022637D01*
X0075300Y0022700D01*
X0069300Y0022700D02*
X0069302Y0022872D01*
X0069308Y0023043D01*
X0069319Y0023215D01*
X0069334Y0023386D01*
X0069353Y0023557D01*
X0069376Y0023727D01*
X0069403Y0023897D01*
X0069435Y0024066D01*
X0069470Y0024234D01*
X0069510Y0024401D01*
X0069554Y0024567D01*
X0069601Y0024732D01*
X0069653Y0024896D01*
X0069709Y0025058D01*
X0069769Y0025219D01*
X0069833Y0025379D01*
X0069901Y0025537D01*
X0069972Y0025693D01*
X0070047Y0025847D01*
X0070127Y0026000D01*
X0070209Y0026150D01*
X0070296Y0026299D01*
X0070386Y0026445D01*
X0070480Y0026589D01*
X0070577Y0026731D01*
X0070678Y0026870D01*
X0070782Y0027007D01*
X0070889Y0027141D01*
X0071000Y0027272D01*
X0071113Y0027401D01*
X0071230Y0027527D01*
X0071350Y0027650D01*
X0071473Y0027770D01*
X0071599Y0027887D01*
X0071728Y0028000D01*
X0071859Y0028111D01*
X0071993Y0028218D01*
X0072130Y0028322D01*
X0072269Y0028423D01*
X0072411Y0028520D01*
X0072555Y0028614D01*
X0072701Y0028704D01*
X0072850Y0028791D01*
X0073000Y0028873D01*
X0073153Y0028953D01*
X0073307Y0029028D01*
X0073463Y0029099D01*
X0073621Y0029167D01*
X0073781Y0029231D01*
X0073942Y0029291D01*
X0074104Y0029347D01*
X0074268Y0029399D01*
X0074433Y0029446D01*
X0074599Y0029490D01*
X0074766Y0029530D01*
X0074934Y0029565D01*
X0075103Y0029597D01*
X0075273Y0029624D01*
X0075443Y0029647D01*
X0075614Y0029666D01*
X0075785Y0029681D01*
X0075957Y0029692D01*
X0076128Y0029698D01*
X0076300Y0029700D01*
X0076472Y0029698D01*
X0076643Y0029692D01*
X0076815Y0029681D01*
X0076986Y0029666D01*
X0077157Y0029647D01*
X0077327Y0029624D01*
X0077497Y0029597D01*
X0077666Y0029565D01*
X0077834Y0029530D01*
X0078001Y0029490D01*
X0078167Y0029446D01*
X0078332Y0029399D01*
X0078496Y0029347D01*
X0078658Y0029291D01*
X0078819Y0029231D01*
X0078979Y0029167D01*
X0079137Y0029099D01*
X0079293Y0029028D01*
X0079447Y0028953D01*
X0079600Y0028873D01*
X0079750Y0028791D01*
X0079899Y0028704D01*
X0080045Y0028614D01*
X0080189Y0028520D01*
X0080331Y0028423D01*
X0080470Y0028322D01*
X0080607Y0028218D01*
X0080741Y0028111D01*
X0080872Y0028000D01*
X0081001Y0027887D01*
X0081127Y0027770D01*
X0081250Y0027650D01*
X0081370Y0027527D01*
X0081487Y0027401D01*
X0081600Y0027272D01*
X0081711Y0027141D01*
X0081818Y0027007D01*
X0081922Y0026870D01*
X0082023Y0026731D01*
X0082120Y0026589D01*
X0082214Y0026445D01*
X0082304Y0026299D01*
X0082391Y0026150D01*
X0082473Y0026000D01*
X0082553Y0025847D01*
X0082628Y0025693D01*
X0082699Y0025537D01*
X0082767Y0025379D01*
X0082831Y0025219D01*
X0082891Y0025058D01*
X0082947Y0024896D01*
X0082999Y0024732D01*
X0083046Y0024567D01*
X0083090Y0024401D01*
X0083130Y0024234D01*
X0083165Y0024066D01*
X0083197Y0023897D01*
X0083224Y0023727D01*
X0083247Y0023557D01*
X0083266Y0023386D01*
X0083281Y0023215D01*
X0083292Y0023043D01*
X0083298Y0022872D01*
X0083300Y0022700D01*
X0083298Y0022528D01*
X0083292Y0022357D01*
X0083281Y0022185D01*
X0083266Y0022014D01*
X0083247Y0021843D01*
X0083224Y0021673D01*
X0083197Y0021503D01*
X0083165Y0021334D01*
X0083130Y0021166D01*
X0083090Y0020999D01*
X0083046Y0020833D01*
X0082999Y0020668D01*
X0082947Y0020504D01*
X0082891Y0020342D01*
X0082831Y0020181D01*
X0082767Y0020021D01*
X0082699Y0019863D01*
X0082628Y0019707D01*
X0082553Y0019553D01*
X0082473Y0019400D01*
X0082391Y0019250D01*
X0082304Y0019101D01*
X0082214Y0018955D01*
X0082120Y0018811D01*
X0082023Y0018669D01*
X0081922Y0018530D01*
X0081818Y0018393D01*
X0081711Y0018259D01*
X0081600Y0018128D01*
X0081487Y0017999D01*
X0081370Y0017873D01*
X0081250Y0017750D01*
X0081127Y0017630D01*
X0081001Y0017513D01*
X0080872Y0017400D01*
X0080741Y0017289D01*
X0080607Y0017182D01*
X0080470Y0017078D01*
X0080331Y0016977D01*
X0080189Y0016880D01*
X0080045Y0016786D01*
X0079899Y0016696D01*
X0079750Y0016609D01*
X0079600Y0016527D01*
X0079447Y0016447D01*
X0079293Y0016372D01*
X0079137Y0016301D01*
X0078979Y0016233D01*
X0078819Y0016169D01*
X0078658Y0016109D01*
X0078496Y0016053D01*
X0078332Y0016001D01*
X0078167Y0015954D01*
X0078001Y0015910D01*
X0077834Y0015870D01*
X0077666Y0015835D01*
X0077497Y0015803D01*
X0077327Y0015776D01*
X0077157Y0015753D01*
X0076986Y0015734D01*
X0076815Y0015719D01*
X0076643Y0015708D01*
X0076472Y0015702D01*
X0076300Y0015700D01*
X0076128Y0015702D01*
X0075957Y0015708D01*
X0075785Y0015719D01*
X0075614Y0015734D01*
X0075443Y0015753D01*
X0075273Y0015776D01*
X0075103Y0015803D01*
X0074934Y0015835D01*
X0074766Y0015870D01*
X0074599Y0015910D01*
X0074433Y0015954D01*
X0074268Y0016001D01*
X0074104Y0016053D01*
X0073942Y0016109D01*
X0073781Y0016169D01*
X0073621Y0016233D01*
X0073463Y0016301D01*
X0073307Y0016372D01*
X0073153Y0016447D01*
X0073000Y0016527D01*
X0072850Y0016609D01*
X0072701Y0016696D01*
X0072555Y0016786D01*
X0072411Y0016880D01*
X0072269Y0016977D01*
X0072130Y0017078D01*
X0071993Y0017182D01*
X0071859Y0017289D01*
X0071728Y0017400D01*
X0071599Y0017513D01*
X0071473Y0017630D01*
X0071350Y0017750D01*
X0071230Y0017873D01*
X0071113Y0017999D01*
X0071000Y0018128D01*
X0070889Y0018259D01*
X0070782Y0018393D01*
X0070678Y0018530D01*
X0070577Y0018669D01*
X0070480Y0018811D01*
X0070386Y0018955D01*
X0070296Y0019101D01*
X0070209Y0019250D01*
X0070127Y0019400D01*
X0070047Y0019553D01*
X0069972Y0019707D01*
X0069901Y0019863D01*
X0069833Y0020021D01*
X0069769Y0020181D01*
X0069709Y0020342D01*
X0069653Y0020504D01*
X0069601Y0020668D01*
X0069554Y0020833D01*
X0069510Y0020999D01*
X0069470Y0021166D01*
X0069435Y0021334D01*
X0069403Y0021503D01*
X0069376Y0021673D01*
X0069353Y0021843D01*
X0069334Y0022014D01*
X0069319Y0022185D01*
X0069308Y0022357D01*
X0069302Y0022528D01*
X0069300Y0022700D01*
D15*
X0076300Y0034700D02*
X0076105Y0034702D01*
X0075909Y0034710D01*
X0075714Y0034722D01*
X0075519Y0034738D01*
X0075324Y0034760D01*
X0075130Y0034786D01*
X0074937Y0034817D01*
X0074745Y0034853D01*
X0074553Y0034893D01*
X0074363Y0034938D01*
X0074174Y0034988D01*
X0073986Y0035042D01*
X0073799Y0035101D01*
X0073614Y0035164D01*
X0073431Y0035232D01*
X0073249Y0035305D01*
X0073069Y0035381D01*
X0072891Y0035463D01*
X0072715Y0035548D01*
X0072541Y0035638D01*
X0072370Y0035732D01*
X0072200Y0035830D01*
X0072034Y0035933D01*
X0071869Y0036039D01*
X0071708Y0036149D01*
X0071549Y0036263D01*
X0071393Y0036382D01*
X0071240Y0036503D01*
X0071090Y0036629D01*
X0070943Y0036758D01*
X0070799Y0036891D01*
X0070659Y0037027D01*
X0070522Y0037167D01*
X0070388Y0037310D01*
X0070258Y0037456D01*
X0070132Y0037605D01*
X0070009Y0037758D01*
X0069890Y0037913D01*
X0069775Y0038071D01*
X0069664Y0038232D01*
X0069557Y0038396D01*
X0069453Y0038562D01*
X0069354Y0038731D01*
X0076300Y0050700D02*
X0076495Y0050698D01*
X0076689Y0050691D01*
X0076883Y0050679D01*
X0077077Y0050662D01*
X0077271Y0050641D01*
X0077464Y0050615D01*
X0077656Y0050584D01*
X0077848Y0050549D01*
X0078038Y0050509D01*
X0078228Y0050464D01*
X0078416Y0050415D01*
X0078603Y0050361D01*
X0078789Y0050303D01*
X0078973Y0050240D01*
X0079156Y0050173D01*
X0079337Y0050101D01*
X0079516Y0050025D01*
X0079693Y0049945D01*
X0079868Y0049860D01*
X0080042Y0049771D01*
X0080212Y0049678D01*
X0080381Y0049581D01*
X0080547Y0049479D01*
X0080711Y0049374D01*
X0080872Y0049265D01*
X0081031Y0049152D01*
X0081186Y0049035D01*
X0081339Y0048914D01*
X0081488Y0048789D01*
X0081635Y0048661D01*
X0081779Y0048530D01*
X0081919Y0048395D01*
X0082056Y0048256D01*
X0082189Y0048115D01*
X0082319Y0047970D01*
X0082446Y0047822D01*
X0076300Y0050700D02*
X0076108Y0050698D01*
X0075916Y0050691D01*
X0075724Y0050679D01*
X0075532Y0050663D01*
X0075341Y0050642D01*
X0075151Y0050617D01*
X0074961Y0050587D01*
X0074772Y0050553D01*
X0074584Y0050514D01*
X0074397Y0050470D01*
X0074211Y0050422D01*
X0074026Y0050370D01*
X0073842Y0050313D01*
X0073660Y0050252D01*
X0073480Y0050186D01*
X0073301Y0050116D01*
X0073123Y0050042D01*
X0072948Y0049964D01*
X0072774Y0049881D01*
X0072603Y0049794D01*
X0072434Y0049704D01*
X0072267Y0049609D01*
X0072102Y0049510D01*
X0071939Y0049407D01*
X0071780Y0049300D01*
X0071622Y0049190D01*
X0071468Y0049076D01*
X0071316Y0048958D01*
X0071167Y0048836D01*
X0071021Y0048711D01*
X0070879Y0048583D01*
X0070739Y0048451D01*
X0070602Y0048316D01*
X0070469Y0048177D01*
X0070339Y0048036D01*
X0070213Y0047891D01*
X0070090Y0047743D01*
X0069971Y0047593D01*
X0069855Y0047439D01*
X0069743Y0047283D01*
X0069635Y0047124D01*
X0069530Y0046963D01*
X0069430Y0046799D01*
X0069334Y0046633D01*
X0069241Y0046465D01*
X0076300Y0034700D02*
X0076493Y0034702D01*
X0076686Y0034709D01*
X0076878Y0034721D01*
X0077071Y0034737D01*
X0077263Y0034758D01*
X0077454Y0034784D01*
X0077644Y0034814D01*
X0077834Y0034849D01*
X0078023Y0034888D01*
X0078211Y0034932D01*
X0078398Y0034980D01*
X0078584Y0035033D01*
X0078768Y0035090D01*
X0078951Y0035152D01*
X0079132Y0035218D01*
X0079312Y0035289D01*
X0079490Y0035363D01*
X0079666Y0035442D01*
X0079840Y0035526D01*
X0080012Y0035613D01*
X0080182Y0035705D01*
X0080349Y0035801D01*
X0080515Y0035900D01*
X0080678Y0036004D01*
X0080838Y0036111D01*
X0080995Y0036223D01*
X0081150Y0036338D01*
X0081302Y0036457D01*
X0081451Y0036579D01*
X0081598Y0036705D01*
X0081741Y0036835D01*
X0081881Y0036968D01*
X0082017Y0037104D01*
X0082151Y0037244D01*
X0082280Y0037386D01*
X0082407Y0037532D01*
X0069241Y0066465D02*
X0069334Y0066633D01*
X0069430Y0066799D01*
X0069530Y0066963D01*
X0069635Y0067124D01*
X0069743Y0067283D01*
X0069855Y0067439D01*
X0069971Y0067593D01*
X0070090Y0067743D01*
X0070213Y0067891D01*
X0070339Y0068036D01*
X0070469Y0068177D01*
X0070602Y0068316D01*
X0070739Y0068451D01*
X0070879Y0068583D01*
X0071021Y0068711D01*
X0071167Y0068836D01*
X0071316Y0068958D01*
X0071468Y0069076D01*
X0071622Y0069190D01*
X0071780Y0069300D01*
X0071939Y0069407D01*
X0072102Y0069510D01*
X0072267Y0069609D01*
X0072434Y0069704D01*
X0072603Y0069794D01*
X0072774Y0069881D01*
X0072948Y0069964D01*
X0073123Y0070042D01*
X0073301Y0070116D01*
X0073480Y0070186D01*
X0073660Y0070252D01*
X0073842Y0070313D01*
X0074026Y0070370D01*
X0074211Y0070422D01*
X0074397Y0070470D01*
X0074584Y0070514D01*
X0074772Y0070553D01*
X0074961Y0070587D01*
X0075151Y0070617D01*
X0075341Y0070642D01*
X0075532Y0070663D01*
X0075724Y0070679D01*
X0075916Y0070691D01*
X0076108Y0070698D01*
X0076300Y0070700D01*
X0069354Y0058731D02*
X0069453Y0058562D01*
X0069557Y0058396D01*
X0069664Y0058232D01*
X0069775Y0058071D01*
X0069890Y0057913D01*
X0070009Y0057758D01*
X0070132Y0057605D01*
X0070258Y0057456D01*
X0070388Y0057310D01*
X0070522Y0057167D01*
X0070659Y0057027D01*
X0070799Y0056891D01*
X0070943Y0056758D01*
X0071090Y0056629D01*
X0071240Y0056503D01*
X0071393Y0056382D01*
X0071549Y0056263D01*
X0071708Y0056149D01*
X0071869Y0056039D01*
X0072034Y0055933D01*
X0072200Y0055830D01*
X0072370Y0055732D01*
X0072541Y0055638D01*
X0072715Y0055548D01*
X0072891Y0055463D01*
X0073069Y0055381D01*
X0073249Y0055305D01*
X0073431Y0055232D01*
X0073614Y0055164D01*
X0073799Y0055101D01*
X0073986Y0055042D01*
X0074174Y0054988D01*
X0074363Y0054938D01*
X0074553Y0054893D01*
X0074745Y0054853D01*
X0074937Y0054817D01*
X0075130Y0054786D01*
X0075324Y0054760D01*
X0075519Y0054738D01*
X0075714Y0054722D01*
X0075909Y0054710D01*
X0076105Y0054702D01*
X0076300Y0054700D01*
X0076493Y0054702D01*
X0076686Y0054709D01*
X0076878Y0054721D01*
X0077071Y0054737D01*
X0077263Y0054758D01*
X0077454Y0054784D01*
X0077644Y0054814D01*
X0077834Y0054849D01*
X0078023Y0054888D01*
X0078211Y0054932D01*
X0078398Y0054980D01*
X0078584Y0055033D01*
X0078768Y0055090D01*
X0078951Y0055152D01*
X0079132Y0055218D01*
X0079312Y0055289D01*
X0079490Y0055363D01*
X0079666Y0055442D01*
X0079840Y0055526D01*
X0080012Y0055613D01*
X0080182Y0055705D01*
X0080349Y0055801D01*
X0080515Y0055900D01*
X0080678Y0056004D01*
X0080838Y0056111D01*
X0080995Y0056223D01*
X0081150Y0056338D01*
X0081302Y0056457D01*
X0081451Y0056579D01*
X0081598Y0056705D01*
X0081741Y0056835D01*
X0081881Y0056968D01*
X0082017Y0057104D01*
X0082151Y0057244D01*
X0082280Y0057386D01*
X0082407Y0057532D01*
X0082446Y0067822D02*
X0082319Y0067970D01*
X0082189Y0068115D01*
X0082056Y0068256D01*
X0081919Y0068395D01*
X0081779Y0068530D01*
X0081635Y0068661D01*
X0081488Y0068789D01*
X0081339Y0068914D01*
X0081186Y0069035D01*
X0081031Y0069152D01*
X0080872Y0069265D01*
X0080711Y0069374D01*
X0080547Y0069479D01*
X0080381Y0069581D01*
X0080212Y0069678D01*
X0080042Y0069771D01*
X0079868Y0069860D01*
X0079693Y0069945D01*
X0079516Y0070025D01*
X0079337Y0070101D01*
X0079156Y0070173D01*
X0078973Y0070240D01*
X0078789Y0070303D01*
X0078603Y0070361D01*
X0078416Y0070415D01*
X0078228Y0070464D01*
X0078038Y0070509D01*
X0077848Y0070549D01*
X0077656Y0070584D01*
X0077464Y0070615D01*
X0077271Y0070641D01*
X0077077Y0070662D01*
X0076883Y0070679D01*
X0076689Y0070691D01*
X0076495Y0070698D01*
X0076300Y0070700D01*
X0056300Y0070700D02*
X0056108Y0070698D01*
X0055916Y0070691D01*
X0055724Y0070679D01*
X0055532Y0070663D01*
X0055341Y0070642D01*
X0055151Y0070617D01*
X0054961Y0070587D01*
X0054772Y0070553D01*
X0054584Y0070514D01*
X0054397Y0070470D01*
X0054211Y0070422D01*
X0054026Y0070370D01*
X0053842Y0070313D01*
X0053660Y0070252D01*
X0053480Y0070186D01*
X0053301Y0070116D01*
X0053123Y0070042D01*
X0052948Y0069964D01*
X0052774Y0069881D01*
X0052603Y0069794D01*
X0052434Y0069704D01*
X0052267Y0069609D01*
X0052102Y0069510D01*
X0051939Y0069407D01*
X0051780Y0069300D01*
X0051622Y0069190D01*
X0051468Y0069076D01*
X0051316Y0068958D01*
X0051167Y0068836D01*
X0051021Y0068711D01*
X0050879Y0068583D01*
X0050739Y0068451D01*
X0050602Y0068316D01*
X0050469Y0068177D01*
X0050339Y0068036D01*
X0050213Y0067891D01*
X0050090Y0067743D01*
X0049971Y0067593D01*
X0049855Y0067439D01*
X0049743Y0067283D01*
X0049635Y0067124D01*
X0049530Y0066963D01*
X0049430Y0066799D01*
X0049334Y0066633D01*
X0049241Y0066465D01*
X0049354Y0058731D02*
X0049453Y0058562D01*
X0049557Y0058396D01*
X0049664Y0058232D01*
X0049775Y0058071D01*
X0049890Y0057913D01*
X0050009Y0057758D01*
X0050132Y0057605D01*
X0050258Y0057456D01*
X0050388Y0057310D01*
X0050522Y0057167D01*
X0050659Y0057027D01*
X0050799Y0056891D01*
X0050943Y0056758D01*
X0051090Y0056629D01*
X0051240Y0056503D01*
X0051393Y0056382D01*
X0051549Y0056263D01*
X0051708Y0056149D01*
X0051869Y0056039D01*
X0052034Y0055933D01*
X0052200Y0055830D01*
X0052370Y0055732D01*
X0052541Y0055638D01*
X0052715Y0055548D01*
X0052891Y0055463D01*
X0053069Y0055381D01*
X0053249Y0055305D01*
X0053431Y0055232D01*
X0053614Y0055164D01*
X0053799Y0055101D01*
X0053986Y0055042D01*
X0054174Y0054988D01*
X0054363Y0054938D01*
X0054553Y0054893D01*
X0054745Y0054853D01*
X0054937Y0054817D01*
X0055130Y0054786D01*
X0055324Y0054760D01*
X0055519Y0054738D01*
X0055714Y0054722D01*
X0055909Y0054710D01*
X0056105Y0054702D01*
X0056300Y0054700D01*
X0056493Y0054702D01*
X0056686Y0054709D01*
X0056878Y0054721D01*
X0057071Y0054737D01*
X0057263Y0054758D01*
X0057454Y0054784D01*
X0057644Y0054814D01*
X0057834Y0054849D01*
X0058023Y0054888D01*
X0058211Y0054932D01*
X0058398Y0054980D01*
X0058584Y0055033D01*
X0058768Y0055090D01*
X0058951Y0055152D01*
X0059132Y0055218D01*
X0059312Y0055289D01*
X0059490Y0055363D01*
X0059666Y0055442D01*
X0059840Y0055526D01*
X0060012Y0055613D01*
X0060182Y0055705D01*
X0060349Y0055801D01*
X0060515Y0055900D01*
X0060678Y0056004D01*
X0060838Y0056111D01*
X0060995Y0056223D01*
X0061150Y0056338D01*
X0061302Y0056457D01*
X0061451Y0056579D01*
X0061598Y0056705D01*
X0061741Y0056835D01*
X0061881Y0056968D01*
X0062017Y0057104D01*
X0062151Y0057244D01*
X0062280Y0057386D01*
X0062407Y0057532D01*
X0062446Y0067822D02*
X0062319Y0067970D01*
X0062189Y0068115D01*
X0062056Y0068256D01*
X0061919Y0068395D01*
X0061779Y0068530D01*
X0061635Y0068661D01*
X0061488Y0068789D01*
X0061339Y0068914D01*
X0061186Y0069035D01*
X0061031Y0069152D01*
X0060872Y0069265D01*
X0060711Y0069374D01*
X0060547Y0069479D01*
X0060381Y0069581D01*
X0060212Y0069678D01*
X0060042Y0069771D01*
X0059868Y0069860D01*
X0059693Y0069945D01*
X0059516Y0070025D01*
X0059337Y0070101D01*
X0059156Y0070173D01*
X0058973Y0070240D01*
X0058789Y0070303D01*
X0058603Y0070361D01*
X0058416Y0070415D01*
X0058228Y0070464D01*
X0058038Y0070509D01*
X0057848Y0070549D01*
X0057656Y0070584D01*
X0057464Y0070615D01*
X0057271Y0070641D01*
X0057077Y0070662D01*
X0056883Y0070679D01*
X0056689Y0070691D01*
X0056495Y0070698D01*
X0056300Y0070700D01*
X0036300Y0070700D02*
X0036108Y0070698D01*
X0035916Y0070691D01*
X0035724Y0070679D01*
X0035532Y0070663D01*
X0035341Y0070642D01*
X0035151Y0070617D01*
X0034961Y0070587D01*
X0034772Y0070553D01*
X0034584Y0070514D01*
X0034397Y0070470D01*
X0034211Y0070422D01*
X0034026Y0070370D01*
X0033842Y0070313D01*
X0033660Y0070252D01*
X0033480Y0070186D01*
X0033301Y0070116D01*
X0033123Y0070042D01*
X0032948Y0069964D01*
X0032774Y0069881D01*
X0032603Y0069794D01*
X0032434Y0069704D01*
X0032267Y0069609D01*
X0032102Y0069510D01*
X0031939Y0069407D01*
X0031780Y0069300D01*
X0031622Y0069190D01*
X0031468Y0069076D01*
X0031316Y0068958D01*
X0031167Y0068836D01*
X0031021Y0068711D01*
X0030879Y0068583D01*
X0030739Y0068451D01*
X0030602Y0068316D01*
X0030469Y0068177D01*
X0030339Y0068036D01*
X0030213Y0067891D01*
X0030090Y0067743D01*
X0029971Y0067593D01*
X0029855Y0067439D01*
X0029743Y0067283D01*
X0029635Y0067124D01*
X0029530Y0066963D01*
X0029430Y0066799D01*
X0029334Y0066633D01*
X0029241Y0066465D01*
X0029354Y0058731D02*
X0029453Y0058562D01*
X0029557Y0058396D01*
X0029664Y0058232D01*
X0029775Y0058071D01*
X0029890Y0057913D01*
X0030009Y0057758D01*
X0030132Y0057605D01*
X0030258Y0057456D01*
X0030388Y0057310D01*
X0030522Y0057167D01*
X0030659Y0057027D01*
X0030799Y0056891D01*
X0030943Y0056758D01*
X0031090Y0056629D01*
X0031240Y0056503D01*
X0031393Y0056382D01*
X0031549Y0056263D01*
X0031708Y0056149D01*
X0031869Y0056039D01*
X0032034Y0055933D01*
X0032200Y0055830D01*
X0032370Y0055732D01*
X0032541Y0055638D01*
X0032715Y0055548D01*
X0032891Y0055463D01*
X0033069Y0055381D01*
X0033249Y0055305D01*
X0033431Y0055232D01*
X0033614Y0055164D01*
X0033799Y0055101D01*
X0033986Y0055042D01*
X0034174Y0054988D01*
X0034363Y0054938D01*
X0034553Y0054893D01*
X0034745Y0054853D01*
X0034937Y0054817D01*
X0035130Y0054786D01*
X0035324Y0054760D01*
X0035519Y0054738D01*
X0035714Y0054722D01*
X0035909Y0054710D01*
X0036105Y0054702D01*
X0036300Y0054700D01*
X0036493Y0054702D01*
X0036686Y0054709D01*
X0036878Y0054721D01*
X0037071Y0054737D01*
X0037263Y0054758D01*
X0037454Y0054784D01*
X0037644Y0054814D01*
X0037834Y0054849D01*
X0038023Y0054888D01*
X0038211Y0054932D01*
X0038398Y0054980D01*
X0038584Y0055033D01*
X0038768Y0055090D01*
X0038951Y0055152D01*
X0039132Y0055218D01*
X0039312Y0055289D01*
X0039490Y0055363D01*
X0039666Y0055442D01*
X0039840Y0055526D01*
X0040012Y0055613D01*
X0040182Y0055705D01*
X0040349Y0055801D01*
X0040515Y0055900D01*
X0040678Y0056004D01*
X0040838Y0056111D01*
X0040995Y0056223D01*
X0041150Y0056338D01*
X0041302Y0056457D01*
X0041451Y0056579D01*
X0041598Y0056705D01*
X0041741Y0056835D01*
X0041881Y0056968D01*
X0042017Y0057104D01*
X0042151Y0057244D01*
X0042280Y0057386D01*
X0042407Y0057532D01*
X0042446Y0067822D02*
X0042319Y0067970D01*
X0042189Y0068115D01*
X0042056Y0068256D01*
X0041919Y0068395D01*
X0041779Y0068530D01*
X0041635Y0068661D01*
X0041488Y0068789D01*
X0041339Y0068914D01*
X0041186Y0069035D01*
X0041031Y0069152D01*
X0040872Y0069265D01*
X0040711Y0069374D01*
X0040547Y0069479D01*
X0040381Y0069581D01*
X0040212Y0069678D01*
X0040042Y0069771D01*
X0039868Y0069860D01*
X0039693Y0069945D01*
X0039516Y0070025D01*
X0039337Y0070101D01*
X0039156Y0070173D01*
X0038973Y0070240D01*
X0038789Y0070303D01*
X0038603Y0070361D01*
X0038416Y0070415D01*
X0038228Y0070464D01*
X0038038Y0070509D01*
X0037848Y0070549D01*
X0037656Y0070584D01*
X0037464Y0070615D01*
X0037271Y0070641D01*
X0037077Y0070662D01*
X0036883Y0070679D01*
X0036689Y0070691D01*
X0036495Y0070698D01*
X0036300Y0070700D01*
X0029354Y0038731D02*
X0029453Y0038562D01*
X0029557Y0038396D01*
X0029664Y0038232D01*
X0029775Y0038071D01*
X0029890Y0037913D01*
X0030009Y0037758D01*
X0030132Y0037605D01*
X0030258Y0037456D01*
X0030388Y0037310D01*
X0030522Y0037167D01*
X0030659Y0037027D01*
X0030799Y0036891D01*
X0030943Y0036758D01*
X0031090Y0036629D01*
X0031240Y0036503D01*
X0031393Y0036382D01*
X0031549Y0036263D01*
X0031708Y0036149D01*
X0031869Y0036039D01*
X0032034Y0035933D01*
X0032200Y0035830D01*
X0032370Y0035732D01*
X0032541Y0035638D01*
X0032715Y0035548D01*
X0032891Y0035463D01*
X0033069Y0035381D01*
X0033249Y0035305D01*
X0033431Y0035232D01*
X0033614Y0035164D01*
X0033799Y0035101D01*
X0033986Y0035042D01*
X0034174Y0034988D01*
X0034363Y0034938D01*
X0034553Y0034893D01*
X0034745Y0034853D01*
X0034937Y0034817D01*
X0035130Y0034786D01*
X0035324Y0034760D01*
X0035519Y0034738D01*
X0035714Y0034722D01*
X0035909Y0034710D01*
X0036105Y0034702D01*
X0036300Y0034700D01*
X0029241Y0046465D02*
X0029334Y0046633D01*
X0029430Y0046799D01*
X0029530Y0046963D01*
X0029635Y0047124D01*
X0029743Y0047283D01*
X0029855Y0047439D01*
X0029971Y0047593D01*
X0030090Y0047743D01*
X0030213Y0047891D01*
X0030339Y0048036D01*
X0030469Y0048177D01*
X0030602Y0048316D01*
X0030739Y0048451D01*
X0030879Y0048583D01*
X0031021Y0048711D01*
X0031167Y0048836D01*
X0031316Y0048958D01*
X0031468Y0049076D01*
X0031622Y0049190D01*
X0031780Y0049300D01*
X0031939Y0049407D01*
X0032102Y0049510D01*
X0032267Y0049609D01*
X0032434Y0049704D01*
X0032603Y0049794D01*
X0032774Y0049881D01*
X0032948Y0049964D01*
X0033123Y0050042D01*
X0033301Y0050116D01*
X0033480Y0050186D01*
X0033660Y0050252D01*
X0033842Y0050313D01*
X0034026Y0050370D01*
X0034211Y0050422D01*
X0034397Y0050470D01*
X0034584Y0050514D01*
X0034772Y0050553D01*
X0034961Y0050587D01*
X0035151Y0050617D01*
X0035341Y0050642D01*
X0035532Y0050663D01*
X0035724Y0050679D01*
X0035916Y0050691D01*
X0036108Y0050698D01*
X0036300Y0050700D01*
X0042407Y0037532D02*
X0042280Y0037386D01*
X0042151Y0037244D01*
X0042017Y0037104D01*
X0041881Y0036968D01*
X0041741Y0036835D01*
X0041598Y0036705D01*
X0041451Y0036579D01*
X0041302Y0036457D01*
X0041150Y0036338D01*
X0040995Y0036223D01*
X0040838Y0036111D01*
X0040678Y0036004D01*
X0040515Y0035900D01*
X0040349Y0035801D01*
X0040182Y0035705D01*
X0040012Y0035613D01*
X0039840Y0035526D01*
X0039666Y0035442D01*
X0039490Y0035363D01*
X0039312Y0035289D01*
X0039132Y0035218D01*
X0038951Y0035152D01*
X0038768Y0035090D01*
X0038584Y0035033D01*
X0038398Y0034980D01*
X0038211Y0034932D01*
X0038023Y0034888D01*
X0037834Y0034849D01*
X0037644Y0034814D01*
X0037454Y0034784D01*
X0037263Y0034758D01*
X0037071Y0034737D01*
X0036878Y0034721D01*
X0036686Y0034709D01*
X0036493Y0034702D01*
X0036300Y0034700D01*
X0042446Y0047822D02*
X0042319Y0047970D01*
X0042189Y0048115D01*
X0042056Y0048256D01*
X0041919Y0048395D01*
X0041779Y0048530D01*
X0041635Y0048661D01*
X0041488Y0048789D01*
X0041339Y0048914D01*
X0041186Y0049035D01*
X0041031Y0049152D01*
X0040872Y0049265D01*
X0040711Y0049374D01*
X0040547Y0049479D01*
X0040381Y0049581D01*
X0040212Y0049678D01*
X0040042Y0049771D01*
X0039868Y0049860D01*
X0039693Y0049945D01*
X0039516Y0050025D01*
X0039337Y0050101D01*
X0039156Y0050173D01*
X0038973Y0050240D01*
X0038789Y0050303D01*
X0038603Y0050361D01*
X0038416Y0050415D01*
X0038228Y0050464D01*
X0038038Y0050509D01*
X0037848Y0050549D01*
X0037656Y0050584D01*
X0037464Y0050615D01*
X0037271Y0050641D01*
X0037077Y0050662D01*
X0036883Y0050679D01*
X0036689Y0050691D01*
X0036495Y0050698D01*
X0036300Y0050700D01*
X0049354Y0038731D02*
X0049453Y0038562D01*
X0049557Y0038396D01*
X0049664Y0038232D01*
X0049775Y0038071D01*
X0049890Y0037913D01*
X0050009Y0037758D01*
X0050132Y0037605D01*
X0050258Y0037456D01*
X0050388Y0037310D01*
X0050522Y0037167D01*
X0050659Y0037027D01*
X0050799Y0036891D01*
X0050943Y0036758D01*
X0051090Y0036629D01*
X0051240Y0036503D01*
X0051393Y0036382D01*
X0051549Y0036263D01*
X0051708Y0036149D01*
X0051869Y0036039D01*
X0052034Y0035933D01*
X0052200Y0035830D01*
X0052370Y0035732D01*
X0052541Y0035638D01*
X0052715Y0035548D01*
X0052891Y0035463D01*
X0053069Y0035381D01*
X0053249Y0035305D01*
X0053431Y0035232D01*
X0053614Y0035164D01*
X0053799Y0035101D01*
X0053986Y0035042D01*
X0054174Y0034988D01*
X0054363Y0034938D01*
X0054553Y0034893D01*
X0054745Y0034853D01*
X0054937Y0034817D01*
X0055130Y0034786D01*
X0055324Y0034760D01*
X0055519Y0034738D01*
X0055714Y0034722D01*
X0055909Y0034710D01*
X0056105Y0034702D01*
X0056300Y0034700D01*
X0049241Y0046465D02*
X0049334Y0046633D01*
X0049430Y0046799D01*
X0049530Y0046963D01*
X0049635Y0047124D01*
X0049743Y0047283D01*
X0049855Y0047439D01*
X0049971Y0047593D01*
X0050090Y0047743D01*
X0050213Y0047891D01*
X0050339Y0048036D01*
X0050469Y0048177D01*
X0050602Y0048316D01*
X0050739Y0048451D01*
X0050879Y0048583D01*
X0051021Y0048711D01*
X0051167Y0048836D01*
X0051316Y0048958D01*
X0051468Y0049076D01*
X0051622Y0049190D01*
X0051780Y0049300D01*
X0051939Y0049407D01*
X0052102Y0049510D01*
X0052267Y0049609D01*
X0052434Y0049704D01*
X0052603Y0049794D01*
X0052774Y0049881D01*
X0052948Y0049964D01*
X0053123Y0050042D01*
X0053301Y0050116D01*
X0053480Y0050186D01*
X0053660Y0050252D01*
X0053842Y0050313D01*
X0054026Y0050370D01*
X0054211Y0050422D01*
X0054397Y0050470D01*
X0054584Y0050514D01*
X0054772Y0050553D01*
X0054961Y0050587D01*
X0055151Y0050617D01*
X0055341Y0050642D01*
X0055532Y0050663D01*
X0055724Y0050679D01*
X0055916Y0050691D01*
X0056108Y0050698D01*
X0056300Y0050700D01*
X0062407Y0037532D02*
X0062280Y0037386D01*
X0062151Y0037244D01*
X0062017Y0037104D01*
X0061881Y0036968D01*
X0061741Y0036835D01*
X0061598Y0036705D01*
X0061451Y0036579D01*
X0061302Y0036457D01*
X0061150Y0036338D01*
X0060995Y0036223D01*
X0060838Y0036111D01*
X0060678Y0036004D01*
X0060515Y0035900D01*
X0060349Y0035801D01*
X0060182Y0035705D01*
X0060012Y0035613D01*
X0059840Y0035526D01*
X0059666Y0035442D01*
X0059490Y0035363D01*
X0059312Y0035289D01*
X0059132Y0035218D01*
X0058951Y0035152D01*
X0058768Y0035090D01*
X0058584Y0035033D01*
X0058398Y0034980D01*
X0058211Y0034932D01*
X0058023Y0034888D01*
X0057834Y0034849D01*
X0057644Y0034814D01*
X0057454Y0034784D01*
X0057263Y0034758D01*
X0057071Y0034737D01*
X0056878Y0034721D01*
X0056686Y0034709D01*
X0056493Y0034702D01*
X0056300Y0034700D01*
X0062446Y0047822D02*
X0062319Y0047970D01*
X0062189Y0048115D01*
X0062056Y0048256D01*
X0061919Y0048395D01*
X0061779Y0048530D01*
X0061635Y0048661D01*
X0061488Y0048789D01*
X0061339Y0048914D01*
X0061186Y0049035D01*
X0061031Y0049152D01*
X0060872Y0049265D01*
X0060711Y0049374D01*
X0060547Y0049479D01*
X0060381Y0049581D01*
X0060212Y0049678D01*
X0060042Y0049771D01*
X0059868Y0049860D01*
X0059693Y0049945D01*
X0059516Y0050025D01*
X0059337Y0050101D01*
X0059156Y0050173D01*
X0058973Y0050240D01*
X0058789Y0050303D01*
X0058603Y0050361D01*
X0058416Y0050415D01*
X0058228Y0050464D01*
X0058038Y0050509D01*
X0057848Y0050549D01*
X0057656Y0050584D01*
X0057464Y0050615D01*
X0057271Y0050641D01*
X0057077Y0050662D01*
X0056883Y0050679D01*
X0056689Y0050691D01*
X0056495Y0050698D01*
X0056300Y0050700D01*
M02*
