%
M48
M72
T01C0.0130
T02C0.0320
T03C0.0400
T04C0.1000
%
T01
X1240Y3935
X3610Y4295
X3280Y7355
X1990Y7325
T02
X1630Y7625
X2630Y7625
X3630Y7625
X4630Y7625
X5630Y7625
X6630Y7625
X7630Y7625
X8630Y7625
X8630Y9625
X7630Y9625
X6630Y9625
X5630Y9625
X4630Y9625
X3630Y9625
X2630Y9625
X1630Y9625
X3130Y5625
X4130Y5625
X5130Y5625
X6130Y5625
X7130Y5625
X8130Y5625
X8130Y3625
X7130Y3625
X6130Y3625
X5130Y3625
X4130Y3625
X3130Y3625
T03
X630Y2625
X630Y3625
X630Y4625
X630Y5625
X630Y6625
X630Y7625
X630Y8625
X630Y9625
X630Y10625
X1630Y10625
X2630Y10625
X3630Y10625
X4630Y10625
X5630Y10625
X6630Y10625
X7630Y10625
X8630Y10625
X9630Y10625
X9630Y9625
X9630Y8625
X9630Y7625
X9630Y6625
X9630Y5625
X9630Y4625
X9630Y3625
X9630Y2625
X8630Y2625
X7630Y2625
X6630Y2625
X5630Y2625
X4630Y2625
X3630Y2625
X2630Y2625
X2130Y3625
X2130Y4625
X2130Y5625
X2130Y6625
X3130Y6625
X4130Y6625
X5130Y6625
X6130Y6625
X7130Y6625
X8130Y6625
X7630Y8625
X6630Y8625
X5630Y8625
X4630Y8625
X3630Y8625
X2630Y8625
X1630Y8625
X1630Y2625
X8630Y8625
T04
X6630Y4625
X4630Y4625
M30
