G75*
%MOIN*%
%OFA0B0*%
%FSLAX25Y25*%
%IPPOS*%
%LPD*%
%AMOC8*
5,1,8,0,0,1.08239X$1,22.5*
%
%ADD10OC8,0.07200*%
%ADD11OC8,0.04800*%
%ADD12OC8,0.06000*%
%ADD13C,0.01500*%
%ADD14C,0.00600*%
%ADD15C,0.02700*%
D10*
X0006300Y0036250D03*
X0006300Y0046250D03*
X0006300Y0056250D03*
X0006300Y0066250D03*
X0006300Y0076250D03*
X0006300Y0086250D03*
X0006300Y0096250D03*
X0006300Y0106250D03*
X0096300Y0106250D03*
X0096300Y0096250D03*
X0096300Y0086250D03*
X0096300Y0076250D03*
X0096300Y0066250D03*
X0096300Y0056250D03*
X0096300Y0046250D03*
X0096300Y0036250D03*
D11*
X0081300Y0036250D03*
X0071300Y0036250D03*
X0061300Y0036250D03*
X0051300Y0036250D03*
X0041300Y0036250D03*
X0031300Y0036250D03*
X0031300Y0056250D03*
X0041300Y0056250D03*
X0051300Y0056250D03*
X0061300Y0056250D03*
X0071300Y0056250D03*
X0081300Y0056250D03*
X0076300Y0076250D03*
X0066300Y0076250D03*
X0056300Y0076250D03*
X0046300Y0076250D03*
X0036300Y0076250D03*
X0026300Y0076250D03*
X0016300Y0076250D03*
X0016300Y0096250D03*
X0026300Y0096250D03*
X0036300Y0096250D03*
X0046300Y0096250D03*
X0056300Y0096250D03*
X0066300Y0096250D03*
X0076300Y0096250D03*
X0086300Y0096250D03*
X0086300Y0076250D03*
D12*
X0006300Y0026250D03*
X0016300Y0026250D03*
X0021300Y0036250D03*
X0021300Y0046250D03*
X0021300Y0056250D03*
X0021300Y0066250D03*
X0031300Y0066250D03*
X0041300Y0066250D03*
X0051300Y0066250D03*
X0061300Y0066250D03*
X0071300Y0066250D03*
X0081300Y0066250D03*
X0076300Y0086250D03*
X0066300Y0086250D03*
X0056300Y0086250D03*
X0046300Y0086250D03*
X0036300Y0086250D03*
X0026300Y0086250D03*
X0016300Y0086250D03*
X0016300Y0106250D03*
X0026300Y0106250D03*
X0036300Y0106250D03*
X0046300Y0106250D03*
X0056300Y0106250D03*
X0066300Y0106250D03*
X0076300Y0106250D03*
X0086300Y0106250D03*
X0086300Y0086250D03*
X0086300Y0026250D03*
X0096300Y0026250D03*
X0076300Y0026250D03*
X0066300Y0026250D03*
X0056300Y0026250D03*
X0046300Y0026250D03*
X0036300Y0026250D03*
X0026300Y0026250D03*
D13*
X0025900Y0026750D01*
X0021700Y0030950D01*
X0021700Y0035750D01*
X0021300Y0036250D01*
X0021400Y0036350D01*
X0021400Y0046250D01*
X0021300Y0046250D01*
X0021400Y0046850D01*
X0021400Y0056150D01*
X0021300Y0056250D01*
X0021400Y0056750D01*
X0021400Y0065750D01*
X0021300Y0066250D01*
X0021100Y0066350D01*
X0016300Y0071150D01*
X0016300Y0076250D01*
X0026300Y0076250D02*
X0026500Y0076250D01*
X0026500Y0071150D01*
X0031300Y0066350D01*
X0031300Y0066250D01*
X0041200Y0056150D02*
X0041300Y0056250D01*
X0041200Y0056150D02*
X0041200Y0051650D01*
X0038800Y0049250D01*
X0038800Y0039350D01*
X0041200Y0036950D01*
X0041300Y0036250D01*
X0041200Y0036050D01*
X0041200Y0031250D01*
X0041800Y0030950D01*
X0047800Y0030950D01*
X0052300Y0026450D01*
X0055600Y0026450D01*
X0056300Y0026250D01*
X0061300Y0031250D01*
X0061300Y0032450D01*
X0081400Y0032450D01*
X0081400Y0036050D01*
X0081300Y0036250D01*
X0081400Y0032450D02*
X0081400Y0031250D01*
X0086200Y0026450D01*
X0086300Y0026250D01*
X0096300Y0026250D02*
X0096400Y0026450D01*
X0096400Y0036050D01*
X0096300Y0036250D01*
X0081300Y0066250D02*
X0081100Y0066350D01*
X0071500Y0066350D01*
X0071300Y0066250D01*
X0061300Y0066350D02*
X0061300Y0066250D01*
X0061300Y0066350D02*
X0051400Y0066350D01*
X0051300Y0066250D01*
X0061300Y0056250D02*
X0061300Y0051650D01*
X0058900Y0049250D01*
X0058900Y0039050D01*
X0061000Y0036950D01*
X0061300Y0036250D01*
X0061300Y0032450D01*
X0041200Y0031250D02*
X0036400Y0026450D01*
X0036300Y0026250D01*
X0035800Y0026150D01*
X0026500Y0026150D01*
X0026300Y0026250D01*
X0006400Y0026450D02*
X0006300Y0026250D01*
X0006400Y0026450D02*
X0006400Y0036050D01*
X0006300Y0036250D01*
D14*
X0012400Y0039350D02*
X0012400Y0040250D01*
X0006400Y0046250D01*
X0006300Y0046250D01*
X0016300Y0056150D02*
X0006400Y0066050D01*
X0006300Y0066250D01*
X0006300Y0076250D02*
X0011500Y0076250D01*
X0017500Y0082250D01*
X0032200Y0082250D01*
X0036100Y0086150D01*
X0036300Y0086250D01*
X0036400Y0086450D01*
X0036400Y0096050D01*
X0036300Y0096250D01*
X0037600Y0099650D02*
X0034900Y0099650D01*
X0028000Y0092750D01*
X0027100Y0092750D01*
X0020800Y0086450D01*
X0016300Y0086450D01*
X0016300Y0086250D01*
X0010900Y0086450D02*
X0017200Y0092750D01*
X0018100Y0092750D01*
X0026500Y0101150D01*
X0051100Y0101150D01*
X0056200Y0106250D01*
X0056300Y0106250D01*
X0060700Y0106250D01*
X0067300Y0099650D01*
X0068200Y0099650D01*
X0075100Y0092750D01*
X0086500Y0092750D01*
X0086500Y0096050D01*
X0086300Y0096250D01*
X0086500Y0092750D02*
X0086500Y0086450D01*
X0086300Y0086250D01*
X0086800Y0082250D02*
X0070900Y0082250D01*
X0066700Y0086450D01*
X0066300Y0086250D01*
X0066400Y0086450D01*
X0066400Y0096050D01*
X0066300Y0096250D01*
X0066400Y0106250D02*
X0066300Y0106250D01*
X0066400Y0106250D02*
X0076300Y0096350D01*
X0076300Y0096250D01*
X0086800Y0082250D02*
X0092800Y0076250D01*
X0096300Y0076250D01*
X0089800Y0077450D02*
X0086200Y0081050D01*
X0051400Y0081050D01*
X0046300Y0086150D01*
X0046300Y0086250D01*
X0046300Y0096250D01*
X0040300Y0096950D02*
X0040300Y0084650D01*
X0035200Y0079550D01*
X0034900Y0079550D01*
X0032800Y0077450D01*
X0032800Y0073550D01*
X0036100Y0076250D02*
X0036300Y0076250D01*
X0036100Y0076250D02*
X0036100Y0065450D01*
X0031300Y0060650D01*
X0031300Y0056250D01*
X0025300Y0057350D02*
X0025300Y0067850D01*
X0019900Y0073250D01*
X0010900Y0086450D02*
X0006400Y0086450D01*
X0006300Y0086250D01*
X0006300Y0096250D02*
X0006400Y0096350D01*
X0016300Y0096350D01*
X0016300Y0096250D01*
X0016300Y0096350D02*
X0022300Y0102350D01*
X0038200Y0102350D01*
X0042100Y0106250D01*
X0046300Y0106250D01*
X0037600Y0099650D02*
X0040300Y0096950D01*
X0056300Y0096250D02*
X0056500Y0096050D01*
X0056500Y0086450D01*
X0056300Y0086250D01*
X0056300Y0076250D02*
X0057100Y0076250D01*
X0065200Y0068150D01*
X0065200Y0066650D01*
X0071200Y0060650D01*
X0071200Y0056450D01*
X0071300Y0056250D01*
X0071500Y0041750D02*
X0086200Y0056450D01*
X0086200Y0076250D01*
X0086300Y0076250D01*
X0089800Y0077450D02*
X0089800Y0066350D01*
X0096100Y0060050D01*
X0096100Y0056450D01*
X0096300Y0056250D01*
X0071500Y0041750D02*
X0071500Y0036350D01*
X0071300Y0036250D01*
X0051300Y0056250D02*
X0046300Y0061250D01*
X0046300Y0076250D01*
X0025300Y0057350D02*
X0036100Y0046550D01*
X0036100Y0042950D01*
X0016300Y0056150D02*
X0016300Y0026250D01*
D15*
X0012400Y0039350D03*
X0036100Y0042950D03*
X0032800Y0073550D03*
X0019900Y0073250D03*
M02*
