G75*
%MOIN*%
%OFA0B0*%
%FSLAX25Y25*%
%IPPOS*%
%LPD*%
%AMOC8*
5,1,8,0,0,1.08239X$1,22.5*
%
%ADD10C,0.00000*%
D10*
X0001300Y0021250D02*
X0001300Y0112451D01*
X0101221Y0112451D01*
X0101221Y0021250D01*
X0001300Y0021250D01*
X0041300Y0046250D02*
X0041302Y0046391D01*
X0041308Y0046532D01*
X0041318Y0046672D01*
X0041332Y0046812D01*
X0041350Y0046952D01*
X0041371Y0047091D01*
X0041397Y0047230D01*
X0041426Y0047368D01*
X0041460Y0047504D01*
X0041497Y0047640D01*
X0041538Y0047775D01*
X0041583Y0047909D01*
X0041632Y0048041D01*
X0041684Y0048172D01*
X0041740Y0048301D01*
X0041800Y0048428D01*
X0041863Y0048554D01*
X0041929Y0048678D01*
X0042000Y0048801D01*
X0042073Y0048921D01*
X0042150Y0049039D01*
X0042230Y0049155D01*
X0042314Y0049268D01*
X0042400Y0049379D01*
X0042490Y0049488D01*
X0042583Y0049594D01*
X0042678Y0049697D01*
X0042777Y0049798D01*
X0042878Y0049896D01*
X0042982Y0049991D01*
X0043089Y0050083D01*
X0043198Y0050172D01*
X0043310Y0050257D01*
X0043424Y0050340D01*
X0043540Y0050420D01*
X0043659Y0050496D01*
X0043780Y0050568D01*
X0043902Y0050638D01*
X0044027Y0050703D01*
X0044153Y0050766D01*
X0044281Y0050824D01*
X0044411Y0050879D01*
X0044542Y0050931D01*
X0044675Y0050978D01*
X0044809Y0051022D01*
X0044944Y0051063D01*
X0045080Y0051099D01*
X0045217Y0051131D01*
X0045355Y0051160D01*
X0045493Y0051185D01*
X0045633Y0051205D01*
X0045773Y0051222D01*
X0045913Y0051235D01*
X0046054Y0051244D01*
X0046194Y0051249D01*
X0046335Y0051250D01*
X0046476Y0051247D01*
X0046617Y0051240D01*
X0046757Y0051229D01*
X0046897Y0051214D01*
X0047037Y0051195D01*
X0047176Y0051173D01*
X0047314Y0051146D01*
X0047452Y0051116D01*
X0047588Y0051081D01*
X0047724Y0051043D01*
X0047858Y0051001D01*
X0047992Y0050955D01*
X0048124Y0050906D01*
X0048254Y0050852D01*
X0048383Y0050795D01*
X0048510Y0050735D01*
X0048636Y0050671D01*
X0048759Y0050603D01*
X0048881Y0050532D01*
X0049001Y0050458D01*
X0049118Y0050380D01*
X0049233Y0050299D01*
X0049346Y0050215D01*
X0049457Y0050128D01*
X0049565Y0050037D01*
X0049670Y0049944D01*
X0049773Y0049847D01*
X0049873Y0049748D01*
X0049970Y0049646D01*
X0050064Y0049541D01*
X0050155Y0049434D01*
X0050243Y0049324D01*
X0050328Y0049212D01*
X0050410Y0049097D01*
X0050489Y0048980D01*
X0050564Y0048861D01*
X0050636Y0048740D01*
X0050704Y0048617D01*
X0050769Y0048492D01*
X0050831Y0048365D01*
X0050888Y0048236D01*
X0050943Y0048106D01*
X0050993Y0047975D01*
X0051040Y0047842D01*
X0051083Y0047708D01*
X0051122Y0047572D01*
X0051157Y0047436D01*
X0051189Y0047299D01*
X0051216Y0047161D01*
X0051240Y0047022D01*
X0051260Y0046882D01*
X0051276Y0046742D01*
X0051288Y0046602D01*
X0051296Y0046461D01*
X0051300Y0046320D01*
X0051300Y0046180D01*
X0051296Y0046039D01*
X0051288Y0045898D01*
X0051276Y0045758D01*
X0051260Y0045618D01*
X0051240Y0045478D01*
X0051216Y0045339D01*
X0051189Y0045201D01*
X0051157Y0045064D01*
X0051122Y0044928D01*
X0051083Y0044792D01*
X0051040Y0044658D01*
X0050993Y0044525D01*
X0050943Y0044394D01*
X0050888Y0044264D01*
X0050831Y0044135D01*
X0050769Y0044008D01*
X0050704Y0043883D01*
X0050636Y0043760D01*
X0050564Y0043639D01*
X0050489Y0043520D01*
X0050410Y0043403D01*
X0050328Y0043288D01*
X0050243Y0043176D01*
X0050155Y0043066D01*
X0050064Y0042959D01*
X0049970Y0042854D01*
X0049873Y0042752D01*
X0049773Y0042653D01*
X0049670Y0042556D01*
X0049565Y0042463D01*
X0049457Y0042372D01*
X0049346Y0042285D01*
X0049233Y0042201D01*
X0049118Y0042120D01*
X0049001Y0042042D01*
X0048881Y0041968D01*
X0048759Y0041897D01*
X0048636Y0041829D01*
X0048510Y0041765D01*
X0048383Y0041705D01*
X0048254Y0041648D01*
X0048124Y0041594D01*
X0047992Y0041545D01*
X0047858Y0041499D01*
X0047724Y0041457D01*
X0047588Y0041419D01*
X0047452Y0041384D01*
X0047314Y0041354D01*
X0047176Y0041327D01*
X0047037Y0041305D01*
X0046897Y0041286D01*
X0046757Y0041271D01*
X0046617Y0041260D01*
X0046476Y0041253D01*
X0046335Y0041250D01*
X0046194Y0041251D01*
X0046054Y0041256D01*
X0045913Y0041265D01*
X0045773Y0041278D01*
X0045633Y0041295D01*
X0045493Y0041315D01*
X0045355Y0041340D01*
X0045217Y0041369D01*
X0045080Y0041401D01*
X0044944Y0041437D01*
X0044809Y0041478D01*
X0044675Y0041522D01*
X0044542Y0041569D01*
X0044411Y0041621D01*
X0044281Y0041676D01*
X0044153Y0041734D01*
X0044027Y0041797D01*
X0043902Y0041862D01*
X0043780Y0041932D01*
X0043659Y0042004D01*
X0043540Y0042080D01*
X0043424Y0042160D01*
X0043310Y0042243D01*
X0043198Y0042328D01*
X0043089Y0042417D01*
X0042982Y0042509D01*
X0042878Y0042604D01*
X0042777Y0042702D01*
X0042678Y0042803D01*
X0042583Y0042906D01*
X0042490Y0043012D01*
X0042400Y0043121D01*
X0042314Y0043232D01*
X0042230Y0043345D01*
X0042150Y0043461D01*
X0042073Y0043579D01*
X0042000Y0043699D01*
X0041929Y0043822D01*
X0041863Y0043946D01*
X0041800Y0044072D01*
X0041740Y0044199D01*
X0041684Y0044328D01*
X0041632Y0044459D01*
X0041583Y0044591D01*
X0041538Y0044725D01*
X0041497Y0044860D01*
X0041460Y0044996D01*
X0041426Y0045132D01*
X0041397Y0045270D01*
X0041371Y0045409D01*
X0041350Y0045548D01*
X0041332Y0045688D01*
X0041318Y0045828D01*
X0041308Y0045968D01*
X0041302Y0046109D01*
X0041300Y0046250D01*
X0061300Y0046250D02*
X0061302Y0046391D01*
X0061308Y0046532D01*
X0061318Y0046672D01*
X0061332Y0046812D01*
X0061350Y0046952D01*
X0061371Y0047091D01*
X0061397Y0047230D01*
X0061426Y0047368D01*
X0061460Y0047504D01*
X0061497Y0047640D01*
X0061538Y0047775D01*
X0061583Y0047909D01*
X0061632Y0048041D01*
X0061684Y0048172D01*
X0061740Y0048301D01*
X0061800Y0048428D01*
X0061863Y0048554D01*
X0061929Y0048678D01*
X0062000Y0048801D01*
X0062073Y0048921D01*
X0062150Y0049039D01*
X0062230Y0049155D01*
X0062314Y0049268D01*
X0062400Y0049379D01*
X0062490Y0049488D01*
X0062583Y0049594D01*
X0062678Y0049697D01*
X0062777Y0049798D01*
X0062878Y0049896D01*
X0062982Y0049991D01*
X0063089Y0050083D01*
X0063198Y0050172D01*
X0063310Y0050257D01*
X0063424Y0050340D01*
X0063540Y0050420D01*
X0063659Y0050496D01*
X0063780Y0050568D01*
X0063902Y0050638D01*
X0064027Y0050703D01*
X0064153Y0050766D01*
X0064281Y0050824D01*
X0064411Y0050879D01*
X0064542Y0050931D01*
X0064675Y0050978D01*
X0064809Y0051022D01*
X0064944Y0051063D01*
X0065080Y0051099D01*
X0065217Y0051131D01*
X0065355Y0051160D01*
X0065493Y0051185D01*
X0065633Y0051205D01*
X0065773Y0051222D01*
X0065913Y0051235D01*
X0066054Y0051244D01*
X0066194Y0051249D01*
X0066335Y0051250D01*
X0066476Y0051247D01*
X0066617Y0051240D01*
X0066757Y0051229D01*
X0066897Y0051214D01*
X0067037Y0051195D01*
X0067176Y0051173D01*
X0067314Y0051146D01*
X0067452Y0051116D01*
X0067588Y0051081D01*
X0067724Y0051043D01*
X0067858Y0051001D01*
X0067992Y0050955D01*
X0068124Y0050906D01*
X0068254Y0050852D01*
X0068383Y0050795D01*
X0068510Y0050735D01*
X0068636Y0050671D01*
X0068759Y0050603D01*
X0068881Y0050532D01*
X0069001Y0050458D01*
X0069118Y0050380D01*
X0069233Y0050299D01*
X0069346Y0050215D01*
X0069457Y0050128D01*
X0069565Y0050037D01*
X0069670Y0049944D01*
X0069773Y0049847D01*
X0069873Y0049748D01*
X0069970Y0049646D01*
X0070064Y0049541D01*
X0070155Y0049434D01*
X0070243Y0049324D01*
X0070328Y0049212D01*
X0070410Y0049097D01*
X0070489Y0048980D01*
X0070564Y0048861D01*
X0070636Y0048740D01*
X0070704Y0048617D01*
X0070769Y0048492D01*
X0070831Y0048365D01*
X0070888Y0048236D01*
X0070943Y0048106D01*
X0070993Y0047975D01*
X0071040Y0047842D01*
X0071083Y0047708D01*
X0071122Y0047572D01*
X0071157Y0047436D01*
X0071189Y0047299D01*
X0071216Y0047161D01*
X0071240Y0047022D01*
X0071260Y0046882D01*
X0071276Y0046742D01*
X0071288Y0046602D01*
X0071296Y0046461D01*
X0071300Y0046320D01*
X0071300Y0046180D01*
X0071296Y0046039D01*
X0071288Y0045898D01*
X0071276Y0045758D01*
X0071260Y0045618D01*
X0071240Y0045478D01*
X0071216Y0045339D01*
X0071189Y0045201D01*
X0071157Y0045064D01*
X0071122Y0044928D01*
X0071083Y0044792D01*
X0071040Y0044658D01*
X0070993Y0044525D01*
X0070943Y0044394D01*
X0070888Y0044264D01*
X0070831Y0044135D01*
X0070769Y0044008D01*
X0070704Y0043883D01*
X0070636Y0043760D01*
X0070564Y0043639D01*
X0070489Y0043520D01*
X0070410Y0043403D01*
X0070328Y0043288D01*
X0070243Y0043176D01*
X0070155Y0043066D01*
X0070064Y0042959D01*
X0069970Y0042854D01*
X0069873Y0042752D01*
X0069773Y0042653D01*
X0069670Y0042556D01*
X0069565Y0042463D01*
X0069457Y0042372D01*
X0069346Y0042285D01*
X0069233Y0042201D01*
X0069118Y0042120D01*
X0069001Y0042042D01*
X0068881Y0041968D01*
X0068759Y0041897D01*
X0068636Y0041829D01*
X0068510Y0041765D01*
X0068383Y0041705D01*
X0068254Y0041648D01*
X0068124Y0041594D01*
X0067992Y0041545D01*
X0067858Y0041499D01*
X0067724Y0041457D01*
X0067588Y0041419D01*
X0067452Y0041384D01*
X0067314Y0041354D01*
X0067176Y0041327D01*
X0067037Y0041305D01*
X0066897Y0041286D01*
X0066757Y0041271D01*
X0066617Y0041260D01*
X0066476Y0041253D01*
X0066335Y0041250D01*
X0066194Y0041251D01*
X0066054Y0041256D01*
X0065913Y0041265D01*
X0065773Y0041278D01*
X0065633Y0041295D01*
X0065493Y0041315D01*
X0065355Y0041340D01*
X0065217Y0041369D01*
X0065080Y0041401D01*
X0064944Y0041437D01*
X0064809Y0041478D01*
X0064675Y0041522D01*
X0064542Y0041569D01*
X0064411Y0041621D01*
X0064281Y0041676D01*
X0064153Y0041734D01*
X0064027Y0041797D01*
X0063902Y0041862D01*
X0063780Y0041932D01*
X0063659Y0042004D01*
X0063540Y0042080D01*
X0063424Y0042160D01*
X0063310Y0042243D01*
X0063198Y0042328D01*
X0063089Y0042417D01*
X0062982Y0042509D01*
X0062878Y0042604D01*
X0062777Y0042702D01*
X0062678Y0042803D01*
X0062583Y0042906D01*
X0062490Y0043012D01*
X0062400Y0043121D01*
X0062314Y0043232D01*
X0062230Y0043345D01*
X0062150Y0043461D01*
X0062073Y0043579D01*
X0062000Y0043699D01*
X0061929Y0043822D01*
X0061863Y0043946D01*
X0061800Y0044072D01*
X0061740Y0044199D01*
X0061684Y0044328D01*
X0061632Y0044459D01*
X0061583Y0044591D01*
X0061538Y0044725D01*
X0061497Y0044860D01*
X0061460Y0044996D01*
X0061426Y0045132D01*
X0061397Y0045270D01*
X0061371Y0045409D01*
X0061350Y0045548D01*
X0061332Y0045688D01*
X0061318Y0045828D01*
X0061308Y0045968D01*
X0061302Y0046109D01*
X0061300Y0046250D01*
M02*
