%
M48
M72
T01C0.0130
T02C0.0320
T03C0.0400
T04C0.0500
T05C0.1000
%
T01
X1150Y3170
T02
X3130Y4270
X4130Y4270
X5130Y4270
X6130Y4270
X7130Y4270
X8130Y4270
X8130Y6270
X7130Y6270
X6130Y6270
X5130Y6270
X4130Y6270
X3130Y6270
X3130Y8270
X2130Y8270
X2130Y10270
X3130Y10270
X4130Y10270
X5130Y10270
X6130Y10270
X7130Y10270
X8130Y10270
X8130Y8270
X7130Y8270
X6130Y8270
X5130Y8270
X4130Y8270
T03
X630Y1270
X630Y2270
X630Y3270
X630Y4270
X630Y5270
X630Y6270
X630Y7270
X630Y8270
X630Y9270
X630Y10270
X630Y11270
X2130Y11270
X3130Y11270
X4130Y11270
X5130Y11270
X6130Y11270
X7130Y11270
X8130Y11270
X9630Y11270
X9630Y10270
X9630Y9270
X9630Y8270
X9630Y7270
X9630Y6270
X9630Y5270
X9630Y4270
X8910Y3160
X8910Y1380
X6350Y1380
X6350Y3160
X4910Y3160
X4910Y1380
X2350Y1380
X2350Y3160
X2130Y4270
X2130Y5270
X2130Y6270
X2130Y7270
X3130Y7270
X4130Y7270
X5130Y7270
X6130Y7270
X7130Y7270
X8130Y7270
X8130Y9270
X7130Y9270
X6130Y9270
X5130Y9270
X4130Y9270
X3130Y9270
X2130Y9270
T04
X1630Y2270
X9630Y2270
T05
X5630Y2270
M30
