G75*
%MOIN*%
%OFA0B0*%
%FSLAX25Y25*%
%IPPOS*%
%LPD*%
%AMOC8*
5,1,8,0,0,1.08239X$1,22.5*
%
%ADD10C,0.00000*%
D10*
X0001300Y0010200D02*
X0001300Y0118901D01*
X0101221Y0118901D01*
X0101221Y0010200D01*
X0001300Y0010200D01*
X0013800Y0022700D02*
X0013802Y0022799D01*
X0013808Y0022899D01*
X0013818Y0022998D01*
X0013832Y0023096D01*
X0013849Y0023194D01*
X0013871Y0023291D01*
X0013896Y0023387D01*
X0013925Y0023482D01*
X0013958Y0023576D01*
X0013995Y0023668D01*
X0014035Y0023759D01*
X0014079Y0023848D01*
X0014127Y0023936D01*
X0014178Y0024021D01*
X0014232Y0024104D01*
X0014289Y0024186D01*
X0014350Y0024264D01*
X0014414Y0024341D01*
X0014480Y0024414D01*
X0014550Y0024485D01*
X0014622Y0024553D01*
X0014697Y0024619D01*
X0014775Y0024681D01*
X0014855Y0024740D01*
X0014937Y0024796D01*
X0015021Y0024848D01*
X0015108Y0024897D01*
X0015196Y0024943D01*
X0015286Y0024985D01*
X0015378Y0025024D01*
X0015471Y0025059D01*
X0015565Y0025090D01*
X0015661Y0025117D01*
X0015758Y0025140D01*
X0015855Y0025160D01*
X0015953Y0025176D01*
X0016052Y0025188D01*
X0016151Y0025196D01*
X0016250Y0025200D01*
X0016350Y0025200D01*
X0016449Y0025196D01*
X0016548Y0025188D01*
X0016647Y0025176D01*
X0016745Y0025160D01*
X0016842Y0025140D01*
X0016939Y0025117D01*
X0017035Y0025090D01*
X0017129Y0025059D01*
X0017222Y0025024D01*
X0017314Y0024985D01*
X0017404Y0024943D01*
X0017492Y0024897D01*
X0017579Y0024848D01*
X0017663Y0024796D01*
X0017745Y0024740D01*
X0017825Y0024681D01*
X0017903Y0024619D01*
X0017978Y0024553D01*
X0018050Y0024485D01*
X0018120Y0024414D01*
X0018186Y0024341D01*
X0018250Y0024264D01*
X0018311Y0024186D01*
X0018368Y0024104D01*
X0018422Y0024021D01*
X0018473Y0023936D01*
X0018521Y0023848D01*
X0018565Y0023759D01*
X0018605Y0023668D01*
X0018642Y0023576D01*
X0018675Y0023482D01*
X0018704Y0023387D01*
X0018729Y0023291D01*
X0018751Y0023194D01*
X0018768Y0023096D01*
X0018782Y0022998D01*
X0018792Y0022899D01*
X0018798Y0022799D01*
X0018800Y0022700D01*
X0018798Y0022601D01*
X0018792Y0022501D01*
X0018782Y0022402D01*
X0018768Y0022304D01*
X0018751Y0022206D01*
X0018729Y0022109D01*
X0018704Y0022013D01*
X0018675Y0021918D01*
X0018642Y0021824D01*
X0018605Y0021732D01*
X0018565Y0021641D01*
X0018521Y0021552D01*
X0018473Y0021464D01*
X0018422Y0021379D01*
X0018368Y0021296D01*
X0018311Y0021214D01*
X0018250Y0021136D01*
X0018186Y0021059D01*
X0018120Y0020986D01*
X0018050Y0020915D01*
X0017978Y0020847D01*
X0017903Y0020781D01*
X0017825Y0020719D01*
X0017745Y0020660D01*
X0017663Y0020604D01*
X0017579Y0020552D01*
X0017492Y0020503D01*
X0017404Y0020457D01*
X0017314Y0020415D01*
X0017222Y0020376D01*
X0017129Y0020341D01*
X0017035Y0020310D01*
X0016939Y0020283D01*
X0016842Y0020260D01*
X0016745Y0020240D01*
X0016647Y0020224D01*
X0016548Y0020212D01*
X0016449Y0020204D01*
X0016350Y0020200D01*
X0016250Y0020200D01*
X0016151Y0020204D01*
X0016052Y0020212D01*
X0015953Y0020224D01*
X0015855Y0020240D01*
X0015758Y0020260D01*
X0015661Y0020283D01*
X0015565Y0020310D01*
X0015471Y0020341D01*
X0015378Y0020376D01*
X0015286Y0020415D01*
X0015196Y0020457D01*
X0015108Y0020503D01*
X0015021Y0020552D01*
X0014937Y0020604D01*
X0014855Y0020660D01*
X0014775Y0020719D01*
X0014697Y0020781D01*
X0014622Y0020847D01*
X0014550Y0020915D01*
X0014480Y0020986D01*
X0014414Y0021059D01*
X0014350Y0021136D01*
X0014289Y0021214D01*
X0014232Y0021296D01*
X0014178Y0021379D01*
X0014127Y0021464D01*
X0014079Y0021552D01*
X0014035Y0021641D01*
X0013995Y0021732D01*
X0013958Y0021824D01*
X0013925Y0021918D01*
X0013896Y0022013D01*
X0013871Y0022109D01*
X0013849Y0022206D01*
X0013832Y0022304D01*
X0013818Y0022402D01*
X0013808Y0022501D01*
X0013802Y0022601D01*
X0013800Y0022700D01*
X0051300Y0022700D02*
X0051302Y0022841D01*
X0051308Y0022982D01*
X0051318Y0023122D01*
X0051332Y0023262D01*
X0051350Y0023402D01*
X0051371Y0023541D01*
X0051397Y0023680D01*
X0051426Y0023818D01*
X0051460Y0023954D01*
X0051497Y0024090D01*
X0051538Y0024225D01*
X0051583Y0024359D01*
X0051632Y0024491D01*
X0051684Y0024622D01*
X0051740Y0024751D01*
X0051800Y0024878D01*
X0051863Y0025004D01*
X0051929Y0025128D01*
X0052000Y0025251D01*
X0052073Y0025371D01*
X0052150Y0025489D01*
X0052230Y0025605D01*
X0052314Y0025718D01*
X0052400Y0025829D01*
X0052490Y0025938D01*
X0052583Y0026044D01*
X0052678Y0026147D01*
X0052777Y0026248D01*
X0052878Y0026346D01*
X0052982Y0026441D01*
X0053089Y0026533D01*
X0053198Y0026622D01*
X0053310Y0026707D01*
X0053424Y0026790D01*
X0053540Y0026870D01*
X0053659Y0026946D01*
X0053780Y0027018D01*
X0053902Y0027088D01*
X0054027Y0027153D01*
X0054153Y0027216D01*
X0054281Y0027274D01*
X0054411Y0027329D01*
X0054542Y0027381D01*
X0054675Y0027428D01*
X0054809Y0027472D01*
X0054944Y0027513D01*
X0055080Y0027549D01*
X0055217Y0027581D01*
X0055355Y0027610D01*
X0055493Y0027635D01*
X0055633Y0027655D01*
X0055773Y0027672D01*
X0055913Y0027685D01*
X0056054Y0027694D01*
X0056194Y0027699D01*
X0056335Y0027700D01*
X0056476Y0027697D01*
X0056617Y0027690D01*
X0056757Y0027679D01*
X0056897Y0027664D01*
X0057037Y0027645D01*
X0057176Y0027623D01*
X0057314Y0027596D01*
X0057452Y0027566D01*
X0057588Y0027531D01*
X0057724Y0027493D01*
X0057858Y0027451D01*
X0057992Y0027405D01*
X0058124Y0027356D01*
X0058254Y0027302D01*
X0058383Y0027245D01*
X0058510Y0027185D01*
X0058636Y0027121D01*
X0058759Y0027053D01*
X0058881Y0026982D01*
X0059001Y0026908D01*
X0059118Y0026830D01*
X0059233Y0026749D01*
X0059346Y0026665D01*
X0059457Y0026578D01*
X0059565Y0026487D01*
X0059670Y0026394D01*
X0059773Y0026297D01*
X0059873Y0026198D01*
X0059970Y0026096D01*
X0060064Y0025991D01*
X0060155Y0025884D01*
X0060243Y0025774D01*
X0060328Y0025662D01*
X0060410Y0025547D01*
X0060489Y0025430D01*
X0060564Y0025311D01*
X0060636Y0025190D01*
X0060704Y0025067D01*
X0060769Y0024942D01*
X0060831Y0024815D01*
X0060888Y0024686D01*
X0060943Y0024556D01*
X0060993Y0024425D01*
X0061040Y0024292D01*
X0061083Y0024158D01*
X0061122Y0024022D01*
X0061157Y0023886D01*
X0061189Y0023749D01*
X0061216Y0023611D01*
X0061240Y0023472D01*
X0061260Y0023332D01*
X0061276Y0023192D01*
X0061288Y0023052D01*
X0061296Y0022911D01*
X0061300Y0022770D01*
X0061300Y0022630D01*
X0061296Y0022489D01*
X0061288Y0022348D01*
X0061276Y0022208D01*
X0061260Y0022068D01*
X0061240Y0021928D01*
X0061216Y0021789D01*
X0061189Y0021651D01*
X0061157Y0021514D01*
X0061122Y0021378D01*
X0061083Y0021242D01*
X0061040Y0021108D01*
X0060993Y0020975D01*
X0060943Y0020844D01*
X0060888Y0020714D01*
X0060831Y0020585D01*
X0060769Y0020458D01*
X0060704Y0020333D01*
X0060636Y0020210D01*
X0060564Y0020089D01*
X0060489Y0019970D01*
X0060410Y0019853D01*
X0060328Y0019738D01*
X0060243Y0019626D01*
X0060155Y0019516D01*
X0060064Y0019409D01*
X0059970Y0019304D01*
X0059873Y0019202D01*
X0059773Y0019103D01*
X0059670Y0019006D01*
X0059565Y0018913D01*
X0059457Y0018822D01*
X0059346Y0018735D01*
X0059233Y0018651D01*
X0059118Y0018570D01*
X0059001Y0018492D01*
X0058881Y0018418D01*
X0058759Y0018347D01*
X0058636Y0018279D01*
X0058510Y0018215D01*
X0058383Y0018155D01*
X0058254Y0018098D01*
X0058124Y0018044D01*
X0057992Y0017995D01*
X0057858Y0017949D01*
X0057724Y0017907D01*
X0057588Y0017869D01*
X0057452Y0017834D01*
X0057314Y0017804D01*
X0057176Y0017777D01*
X0057037Y0017755D01*
X0056897Y0017736D01*
X0056757Y0017721D01*
X0056617Y0017710D01*
X0056476Y0017703D01*
X0056335Y0017700D01*
X0056194Y0017701D01*
X0056054Y0017706D01*
X0055913Y0017715D01*
X0055773Y0017728D01*
X0055633Y0017745D01*
X0055493Y0017765D01*
X0055355Y0017790D01*
X0055217Y0017819D01*
X0055080Y0017851D01*
X0054944Y0017887D01*
X0054809Y0017928D01*
X0054675Y0017972D01*
X0054542Y0018019D01*
X0054411Y0018071D01*
X0054281Y0018126D01*
X0054153Y0018184D01*
X0054027Y0018247D01*
X0053902Y0018312D01*
X0053780Y0018382D01*
X0053659Y0018454D01*
X0053540Y0018530D01*
X0053424Y0018610D01*
X0053310Y0018693D01*
X0053198Y0018778D01*
X0053089Y0018867D01*
X0052982Y0018959D01*
X0052878Y0019054D01*
X0052777Y0019152D01*
X0052678Y0019253D01*
X0052583Y0019356D01*
X0052490Y0019462D01*
X0052400Y0019571D01*
X0052314Y0019682D01*
X0052230Y0019795D01*
X0052150Y0019911D01*
X0052073Y0020029D01*
X0052000Y0020149D01*
X0051929Y0020272D01*
X0051863Y0020396D01*
X0051800Y0020522D01*
X0051740Y0020649D01*
X0051684Y0020778D01*
X0051632Y0020909D01*
X0051583Y0021041D01*
X0051538Y0021175D01*
X0051497Y0021310D01*
X0051460Y0021446D01*
X0051426Y0021582D01*
X0051397Y0021720D01*
X0051371Y0021859D01*
X0051350Y0021998D01*
X0051332Y0022138D01*
X0051318Y0022278D01*
X0051308Y0022418D01*
X0051302Y0022559D01*
X0051300Y0022700D01*
X0093800Y0022700D02*
X0093802Y0022799D01*
X0093808Y0022899D01*
X0093818Y0022998D01*
X0093832Y0023096D01*
X0093849Y0023194D01*
X0093871Y0023291D01*
X0093896Y0023387D01*
X0093925Y0023482D01*
X0093958Y0023576D01*
X0093995Y0023668D01*
X0094035Y0023759D01*
X0094079Y0023848D01*
X0094127Y0023936D01*
X0094178Y0024021D01*
X0094232Y0024104D01*
X0094289Y0024186D01*
X0094350Y0024264D01*
X0094414Y0024341D01*
X0094480Y0024414D01*
X0094550Y0024485D01*
X0094622Y0024553D01*
X0094697Y0024619D01*
X0094775Y0024681D01*
X0094855Y0024740D01*
X0094937Y0024796D01*
X0095021Y0024848D01*
X0095108Y0024897D01*
X0095196Y0024943D01*
X0095286Y0024985D01*
X0095378Y0025024D01*
X0095471Y0025059D01*
X0095565Y0025090D01*
X0095661Y0025117D01*
X0095758Y0025140D01*
X0095855Y0025160D01*
X0095953Y0025176D01*
X0096052Y0025188D01*
X0096151Y0025196D01*
X0096250Y0025200D01*
X0096350Y0025200D01*
X0096449Y0025196D01*
X0096548Y0025188D01*
X0096647Y0025176D01*
X0096745Y0025160D01*
X0096842Y0025140D01*
X0096939Y0025117D01*
X0097035Y0025090D01*
X0097129Y0025059D01*
X0097222Y0025024D01*
X0097314Y0024985D01*
X0097404Y0024943D01*
X0097492Y0024897D01*
X0097579Y0024848D01*
X0097663Y0024796D01*
X0097745Y0024740D01*
X0097825Y0024681D01*
X0097903Y0024619D01*
X0097978Y0024553D01*
X0098050Y0024485D01*
X0098120Y0024414D01*
X0098186Y0024341D01*
X0098250Y0024264D01*
X0098311Y0024186D01*
X0098368Y0024104D01*
X0098422Y0024021D01*
X0098473Y0023936D01*
X0098521Y0023848D01*
X0098565Y0023759D01*
X0098605Y0023668D01*
X0098642Y0023576D01*
X0098675Y0023482D01*
X0098704Y0023387D01*
X0098729Y0023291D01*
X0098751Y0023194D01*
X0098768Y0023096D01*
X0098782Y0022998D01*
X0098792Y0022899D01*
X0098798Y0022799D01*
X0098800Y0022700D01*
X0098798Y0022601D01*
X0098792Y0022501D01*
X0098782Y0022402D01*
X0098768Y0022304D01*
X0098751Y0022206D01*
X0098729Y0022109D01*
X0098704Y0022013D01*
X0098675Y0021918D01*
X0098642Y0021824D01*
X0098605Y0021732D01*
X0098565Y0021641D01*
X0098521Y0021552D01*
X0098473Y0021464D01*
X0098422Y0021379D01*
X0098368Y0021296D01*
X0098311Y0021214D01*
X0098250Y0021136D01*
X0098186Y0021059D01*
X0098120Y0020986D01*
X0098050Y0020915D01*
X0097978Y0020847D01*
X0097903Y0020781D01*
X0097825Y0020719D01*
X0097745Y0020660D01*
X0097663Y0020604D01*
X0097579Y0020552D01*
X0097492Y0020503D01*
X0097404Y0020457D01*
X0097314Y0020415D01*
X0097222Y0020376D01*
X0097129Y0020341D01*
X0097035Y0020310D01*
X0096939Y0020283D01*
X0096842Y0020260D01*
X0096745Y0020240D01*
X0096647Y0020224D01*
X0096548Y0020212D01*
X0096449Y0020204D01*
X0096350Y0020200D01*
X0096250Y0020200D01*
X0096151Y0020204D01*
X0096052Y0020212D01*
X0095953Y0020224D01*
X0095855Y0020240D01*
X0095758Y0020260D01*
X0095661Y0020283D01*
X0095565Y0020310D01*
X0095471Y0020341D01*
X0095378Y0020376D01*
X0095286Y0020415D01*
X0095196Y0020457D01*
X0095108Y0020503D01*
X0095021Y0020552D01*
X0094937Y0020604D01*
X0094855Y0020660D01*
X0094775Y0020719D01*
X0094697Y0020781D01*
X0094622Y0020847D01*
X0094550Y0020915D01*
X0094480Y0020986D01*
X0094414Y0021059D01*
X0094350Y0021136D01*
X0094289Y0021214D01*
X0094232Y0021296D01*
X0094178Y0021379D01*
X0094127Y0021464D01*
X0094079Y0021552D01*
X0094035Y0021641D01*
X0093995Y0021732D01*
X0093958Y0021824D01*
X0093925Y0021918D01*
X0093896Y0022013D01*
X0093871Y0022109D01*
X0093849Y0022206D01*
X0093832Y0022304D01*
X0093818Y0022402D01*
X0093808Y0022501D01*
X0093802Y0022601D01*
X0093800Y0022700D01*
M02*
